<svg width="300" height="73" viewBox="0 0 300 73" fill="none" xmlns="http://www.w3.org/2000/svg">
<path d="M100.698 33.672C100.818 33.864 100.914 34.176 100.986 34.608C101.058 35.016 101.094 35.424 101.094 35.832C101.094 36.336 101.034 36.696 100.914 36.912C101.01 37.176 101.058 37.44 101.058 37.704C101.058 38.16 100.89 38.604 100.554 39.036C100.602 39.444 100.53 39.852 100.338 40.26C100.146 40.668 99.8701 41.004 99.5101 41.268C99.5821 41.436 99.6181 41.604 99.6181 41.772C99.6181 42.132 99.4981 42.492 99.2581 42.852C99.0421 43.188 98.7661 43.476 98.4301 43.716C98.4061 44.1 98.2621 44.424 97.9981 44.688C97.7581 44.928 97.3861 45.144 96.8821 45.336C96.8101 45.672 96.7021 45.9 96.5581 46.02C96.4141 46.14 96.2341 46.236 96.0181 46.308C95.8261 46.38 95.6701 46.44 95.5501 46.488C95.4541 46.704 95.1541 46.908 94.6501 47.1C94.1701 47.268 93.8221 47.328 93.6061 47.28C93.5101 47.472 93.2941 47.64 92.9581 47.784C92.6461 47.928 92.2981 48 91.9141 48C91.4581 48 91.0861 47.904 90.7981 47.712C90.5581 47.76 90.3541 47.784 90.1861 47.784C89.6821 47.784 89.1541 47.688 88.6021 47.496C88.0501 47.28 87.6541 47.004 87.4141 46.668C86.9101 46.716 86.3581 46.512 85.7581 46.056C85.1821 45.576 84.8701 45.108 84.8221 44.652C84.5341 44.652 84.1981 44.388 83.8141 43.86C83.4541 43.308 83.2741 42.78 83.2741 42.276C83.2741 42.084 83.3101 41.904 83.3821 41.736C83.0941 41.616 82.8541 41.436 82.6621 41.196C82.4941 40.956 82.4101 40.692 82.4101 40.404C82.4101 40.236 82.4461 40.068 82.5181 39.9C82.3501 39.756 82.2061 39.54 82.0861 39.252C81.9661 38.94 81.9061 38.64 81.9061 38.352C81.9061 38.208 81.9301 38.064 81.9781 37.92C81.8341 37.632 81.7621 37.284 81.7621 36.876C81.7621 36.516 81.8221 36.264 81.9421 36.12C81.8221 35.952 81.7261 35.724 81.6541 35.436C81.5821 35.124 81.5461 34.812 81.5461 34.5C81.5461 34.116 81.6061 33.804 81.7261 33.564C81.5581 33.3 81.4741 32.988 81.4741 32.628C81.4741 32.388 81.5221 32.16 81.6181 31.944C81.7141 31.704 81.8221 31.548 81.9421 31.476C81.8701 31.26 81.8341 31.044 81.8341 30.828C81.8341 30.276 82.0741 29.832 82.5541 29.496C82.5541 28.896 82.6981 28.536 82.9861 28.416C82.8901 28.248 82.9501 27.984 83.1661 27.624C83.3821 27.24 83.5981 27.048 83.8141 27.048C83.9101 26.664 84.0781 26.316 84.3181 26.004C84.5821 25.692 84.8701 25.524 85.1821 25.5C85.3021 24.996 85.6501 24.516 86.2261 24.06C86.8261 23.604 87.3901 23.388 87.9181 23.412C88.0141 23.076 88.2661 22.812 88.6741 22.62C89.0821 22.428 89.5141 22.332 89.9701 22.332C90.4981 22.332 90.8821 22.452 91.1221 22.692C91.2421 22.548 91.4341 22.428 91.6981 22.332C91.9861 22.212 92.2861 22.152 92.5981 22.152C93.0781 22.152 93.4861 22.284 93.8221 22.548C94.0381 22.452 94.2661 22.404 94.5061 22.404C94.8181 22.404 95.0701 22.476 95.2621 22.62C95.4541 22.764 95.5621 22.956 95.5861 23.196C95.8741 23.1 96.1861 23.184 96.5221 23.448C96.8821 23.688 97.0981 24 97.1701 24.384C97.4341 24.312 97.6981 24.372 97.9621 24.564C98.2501 24.732 98.4661 24.96 98.6101 25.248C98.7541 25.536 98.7781 25.788 98.6821 26.004C98.8981 26.148 99.0781 26.34 99.2221 26.58C99.3901 26.796 99.4741 27.048 99.4741 27.336C99.4741 27.552 99.4141 27.804 99.2941 28.092C99.6301 28.236 99.8821 28.476 100.05 28.812C100.242 29.148 100.338 29.508 100.338 29.892C100.338 30.06 100.326 30.192 100.302 30.288C100.494 30.552 100.65 30.888 100.77 31.296C100.89 31.68 100.95 32.076 100.95 32.484C100.95 32.964 100.866 33.36 100.698 33.672ZM94.7581 43.608C94.8061 43.344 94.9741 43.08 95.2621 42.816C95.5501 42.528 95.8261 42.396 96.0901 42.42C96.1141 42.204 96.2461 41.796 96.4861 41.196C96.7501 40.596 96.9661 40.26 97.1341 40.188C97.1101 40.116 97.0981 39.984 97.0981 39.792C97.0981 39.336 97.1701 38.856 97.3141 38.352C97.4821 37.824 97.6741 37.536 97.8901 37.488C97.7461 37.224 97.6741 36.948 97.6741 36.66C97.6741 36.252 97.8421 35.688 98.1781 34.968C98.0581 34.752 97.9381 34.464 97.8181 34.104C97.6981 33.72 97.6381 33.384 97.6381 33.096C97.6381 32.856 97.6861 32.688 97.7821 32.592C97.6381 32.352 97.5661 32.004 97.5661 31.548C97.3501 31.068 97.2301 30.708 97.2061 30.468C96.8701 30.324 96.5941 30.024 96.3781 29.568C96.1621 29.088 96.0901 28.668 96.1621 28.308C95.9461 28.116 95.8021 27.9 95.7301 27.66C95.4901 27.564 95.2981 27.432 95.1541 27.264C95.0341 27.096 94.9141 26.856 94.7941 26.544L94.3981 26.58C93.9901 26.58 93.6061 26.52 93.2461 26.4C92.8861 26.256 92.6221 26.052 92.4541 25.788C91.9981 25.956 91.5541 26.04 91.1221 26.04C90.7141 26.04 90.2581 25.956 89.7541 25.788C89.6341 26.196 89.4061 26.508 89.0701 26.724C88.7581 26.916 88.4101 27 88.0261 26.976C87.9061 27.216 87.6901 27.492 87.3781 27.804C87.0901 28.092 86.8141 28.284 86.5501 28.38C86.5501 28.596 86.4421 28.824 86.2261 29.064C86.0341 29.304 85.9141 29.46 85.8661 29.532C85.8901 29.604 85.9021 29.712 85.9021 29.856C85.9021 30.288 85.7221 30.612 85.3621 30.828C85.3621 31.164 85.2541 31.488 85.0381 31.8C85.0621 31.848 85.0741 31.92 85.0741 32.016C85.0741 32.256 84.9781 32.52 84.7861 32.808C84.9541 33 85.0381 33.252 85.0381 33.564C85.0381 33.924 84.9421 34.212 84.7501 34.428C85.0621 34.788 85.2181 35.184 85.2181 35.616C85.2181 35.856 85.1581 36.12 85.0381 36.408C85.3261 36.696 85.4701 37.104 85.4701 37.632C85.4701 37.944 85.3981 38.208 85.2541 38.424C85.5181 38.688 85.6501 39 85.6501 39.36C85.6501 39.552 85.6141 39.72 85.5421 39.864C85.7821 39.984 85.9741 40.164 86.1181 40.404C86.2621 40.62 86.3341 40.848 86.3341 41.088C86.3341 41.16 86.3101 41.292 86.2621 41.484C86.6461 41.676 86.9941 41.952 87.3061 42.312C87.6181 42.672 87.7861 43.056 87.8101 43.464C88.0981 43.368 88.5181 43.5 89.0701 43.86C89.6461 44.22 90.0061 44.544 90.1501 44.832C90.3901 44.64 90.8701 44.544 91.5901 44.544C92.1661 44.544 92.5981 44.604 92.8861 44.724C93.0541 44.484 93.3421 44.244 93.7501 44.004C94.1581 43.764 94.4941 43.632 94.7581 43.608ZM119.554 25.536C119.77 25.608 119.926 25.764 120.022 26.004C120.142 26.244 120.178 26.472 120.13 26.688C120.442 26.928 120.586 27.18 120.562 27.444C120.562 27.876 120.274 28.332 119.698 28.812C119.77 29.028 119.806 29.244 119.806 29.46C119.806 29.796 119.722 30.108 119.554 30.396C119.386 30.684 119.182 30.888 118.942 31.008C118.87 31.872 118.618 32.448 118.186 32.736C118.114 33 117.874 33.24 117.466 33.456C117.058 33.648 116.686 33.744 116.35 33.744C116.182 33.888 115.882 34.032 115.45 34.176C115.018 34.296 114.694 34.32 114.478 34.248C114.19 34.632 113.794 34.824 113.29 34.824C113.098 34.824 112.966 34.812 112.894 34.788C112.75 34.86 112.558 34.896 112.318 34.896C112.054 34.896 111.766 34.836 111.454 34.716C111.07 34.956 110.29 35.076 109.114 35.076C109.21 35.412 109.258 35.652 109.258 35.796C109.258 36.084 109.162 36.336 108.97 36.552C109.234 36.888 109.366 37.452 109.366 38.244C109.366 38.868 109.306 39.336 109.186 39.648C109.474 40.032 109.618 40.524 109.618 41.124C109.618 41.652 109.498 42.156 109.258 42.636C109.402 42.828 109.51 43.104 109.582 43.464C109.654 43.824 109.69 44.196 109.69 44.58C109.69 45.156 109.618 45.54 109.474 45.732C109.522 46.068 109.546 46.32 109.546 46.488C109.546 47.496 108.994 48 107.89 48C107.386 48 107.002 47.748 106.738 47.244C106.498 46.716 106.378 46.104 106.378 45.408C106.378 44.712 106.474 44.172 106.666 43.788C106.426 43.356 106.306 42.828 106.306 42.204C106.306 41.94 106.33 41.616 106.378 41.232C106.162 40.944 106.054 40.356 106.054 39.468C106.054 38.724 106.126 38.244 106.27 38.028C106.15 37.716 106.09 37.272 106.09 36.696C106.09 36.144 106.15 35.748 106.27 35.508C106.15 35.22 106.09 34.98 106.09 34.788C106.09 34.596 106.126 34.416 106.198 34.248C105.982 33.912 105.874 33.504 105.874 33.024C105.874 32.688 105.922 32.436 106.018 32.268C105.922 32.052 105.874 31.824 105.874 31.584C105.874 31.32 105.922 31.104 106.018 30.936C105.778 30.576 105.658 30.288 105.658 30.072C105.658 29.832 105.754 29.58 105.946 29.316C105.802 29.028 105.73 28.764 105.73 28.524C105.73 28.14 105.874 27.828 106.162 27.588C105.778 27.228 105.586 26.796 105.586 26.292C105.586 26.196 105.61 26.004 105.658 25.716C105.37 25.524 105.226 25.164 105.226 24.636C105.226 24.252 105.31 23.892 105.478 23.556C105.646 23.22 105.85 23.052 106.09 23.052C106.114 22.764 106.258 22.548 106.522 22.404C106.81 22.236 107.134 22.152 107.494 22.152C107.83 22.152 108.13 22.224 108.394 22.368C108.682 22.488 108.85 22.656 108.898 22.872C109.378 22.656 109.75 22.548 110.014 22.548C110.158 22.548 110.254 22.572 110.302 22.62C110.374 22.596 110.542 22.548 110.806 22.476C111.07 22.38 111.31 22.332 111.526 22.332C111.838 22.332 112.15 22.428 112.462 22.62C112.606 22.5 112.81 22.404 113.074 22.332C113.338 22.26 113.614 22.224 113.902 22.224C114.166 22.224 114.382 22.26 114.55 22.332C114.646 22.308 114.778 22.296 114.946 22.296C115.306 22.296 115.666 22.392 116.026 22.584C116.386 22.776 116.662 22.992 116.854 23.232C117.286 23.208 117.622 23.292 117.862 23.484C118.126 23.652 118.342 23.976 118.51 24.456C118.774 24.528 119.026 24.672 119.266 24.888C119.53 25.104 119.626 25.32 119.554 25.536ZM108.754 32.268C108.898 32.148 109.138 32.088 109.474 32.088C109.882 32.088 110.146 32.148 110.266 32.268C110.434 32.1 110.758 32.016 111.238 32.016C111.718 32.016 112.03 32.1 112.174 32.268C112.342 32.148 112.594 32.088 112.93 32.088C113.146 32.088 113.314 32.124 113.434 32.196C113.698 31.908 113.986 31.764 114.298 31.764C114.466 31.764 114.598 31.776 114.694 31.8C114.742 31.608 115.006 31.392 115.486 31.152C115.966 30.888 116.338 30.792 116.602 30.864C116.602 30.672 116.674 30.42 116.818 30.108C116.962 29.796 117.106 29.592 117.25 29.496C117.154 29.4 117.106 29.208 117.106 28.92C117.106 28.584 117.154 28.212 117.25 27.804C117.37 27.372 117.49 27.096 117.61 26.976C116.65 26.448 116.158 25.956 116.134 25.5C115.75 25.428 115.306 25.236 114.802 24.924C114.13 25.26 113.566 25.428 113.11 25.428C112.846 25.428 112.474 25.368 111.994 25.248C111.514 25.56 110.998 25.716 110.446 25.716C110.11 25.716 109.834 25.644 109.618 25.5C109.594 25.572 109.426 25.656 109.114 25.752C108.826 25.848 108.622 25.884 108.502 25.86C108.526 26.1 108.61 26.4 108.754 26.76C108.922 27.168 109.006 27.528 109.006 27.84C109.006 28.152 108.898 28.452 108.682 28.74C108.778 28.932 108.826 29.256 108.826 29.712C108.826 30.096 108.778 30.372 108.682 30.54C108.898 30.756 109.006 31.068 109.006 31.476C109.006 31.74 108.922 32.004 108.754 32.268ZM137.437 22.872C137.773 22.656 138.157 22.548 138.589 22.548C138.925 22.548 139.201 22.62 139.417 22.764C139.897 22.668 140.293 22.788 140.605 23.124C140.941 23.436 141.109 23.808 141.109 24.24C141.109 24.6 140.977 24.9 140.713 25.14C140.473 25.38 140.113 25.5 139.633 25.5C139.321 25.5 139.081 25.476 138.913 25.428C138.649 25.644 138.277 25.752 137.797 25.752C137.269 25.752 136.789 25.644 136.357 25.428C136.213 25.524 135.949 25.608 135.565 25.68C135.181 25.752 134.809 25.788 134.449 25.788C134.209 25.788 133.993 25.764 133.801 25.716C133.993 26.028 134.089 26.424 134.089 26.904C134.089 27.408 133.981 27.756 133.765 27.948C134.125 28.38 134.305 28.944 134.305 29.64C134.305 30.096 134.209 30.516 134.017 30.9C134.257 31.548 134.377 32.184 134.377 32.808C134.377 33.216 134.329 33.576 134.233 33.888C134.353 34.032 134.449 34.26 134.521 34.572C134.617 34.884 134.665 35.196 134.665 35.508C134.665 35.868 134.593 36.18 134.449 36.444C134.809 36.78 134.989 37.308 134.989 38.028C134.989 38.508 134.929 38.892 134.809 39.18C135.025 39.516 135.133 39.948 135.133 40.476C135.133 40.788 135.073 41.064 134.953 41.304C135.073 41.52 135.133 41.82 135.133 42.204C135.133 42.564 135.085 42.84 134.989 43.032C135.229 43.272 135.349 43.656 135.349 44.184C135.349 44.4 135.313 44.604 135.241 44.796C135.553 45.156 135.685 45.516 135.637 45.876C135.757 46.164 135.817 46.404 135.817 46.596C135.817 47.004 135.661 47.34 135.349 47.604C135.037 47.868 134.677 48 134.269 48C133.957 48 133.681 47.916 133.441 47.748C133.225 47.556 133.081 47.268 133.009 46.884C132.841 46.716 132.709 46.476 132.613 46.164C132.517 45.852 132.469 45.552 132.469 45.264C132.469 45.096 132.493 44.916 132.541 44.724C132.277 44.46 132.145 43.992 132.145 43.32C132.145 43.008 132.169 42.792 132.217 42.672C132.001 42.336 131.893 42.048 131.893 41.808C131.893 41.472 132.025 41.172 132.289 40.908C131.953 40.668 131.785 40.296 131.785 39.792C131.785 39.384 131.881 39.072 132.073 38.856C131.737 38.664 131.569 38.16 131.569 37.344C131.569 36.888 131.617 36.528 131.713 36.264C131.593 36.12 131.485 35.904 131.389 35.616C131.317 35.304 131.281 34.992 131.281 34.68C131.281 34.344 131.329 34.092 131.425 33.924C131.209 33.492 131.101 32.976 131.101 32.376C131.101 32.016 131.149 31.5 131.245 30.828C131.077 30.372 130.993 29.88 130.993 29.352C130.993 28.872 131.065 28.476 131.209 28.164C130.921 27.876 130.777 27.348 130.777 26.58C130.777 26.22 130.813 25.896 130.885 25.608C130.621 25.752 130.357 25.824 130.093 25.824C129.829 25.824 129.577 25.764 129.337 25.644C129.169 25.74 128.941 25.788 128.653 25.788C128.173 25.788 127.837 25.68 127.645 25.464C127.525 25.584 127.345 25.68 127.105 25.752C126.865 25.824 126.613 25.86 126.349 25.86C125.749 25.86 125.341 25.716 125.125 25.428C124.981 25.452 124.789 25.464 124.549 25.464C123.949 25.464 123.505 25.356 123.217 25.14C122.929 24.924 122.785 24.636 122.785 24.276C122.785 23.868 122.977 23.484 123.361 23.124C123.745 22.74 124.201 22.548 124.729 22.548C124.969 22.548 125.245 22.608 125.557 22.728C125.749 22.512 126.121 22.404 126.673 22.404C127.129 22.404 127.477 22.488 127.717 22.656C127.909 22.488 128.245 22.404 128.725 22.404C129.037 22.404 129.337 22.44 129.625 22.512C129.937 22.584 130.165 22.68 130.309 22.8C130.477 22.56 130.921 22.44 131.641 22.44C132.289 22.44 132.697 22.548 132.865 22.764C133.057 22.572 133.393 22.476 133.873 22.476C134.329 22.476 134.617 22.584 134.737 22.8C135.025 22.584 135.445 22.476 135.997 22.476C136.621 22.476 137.101 22.608 137.437 22.872ZM148.694 27.84C148.814 28.32 148.874 28.716 148.874 29.028C148.874 29.148 148.85 29.448 148.802 29.928C148.922 30.168 148.982 30.54 148.982 31.044C148.982 31.476 148.922 31.812 148.802 32.052C148.922 32.292 148.982 32.52 148.982 32.736C148.982 33.048 148.874 33.348 148.658 33.636C148.826 34.044 148.91 34.464 148.91 34.896C148.91 35.232 148.85 35.604 148.73 36.012C148.874 36.252 148.946 36.552 148.946 36.912C148.946 37.272 148.862 37.668 148.694 38.1C148.886 38.364 148.982 38.64 148.982 38.928C148.982 39.216 148.886 39.492 148.694 39.756C148.79 39.924 148.838 40.116 148.838 40.332C148.838 40.548 148.778 40.776 148.658 41.016C148.85 41.352 148.946 41.604 148.946 41.772C148.946 41.916 148.862 42.12 148.694 42.384C148.79 42.72 148.838 42.972 148.838 43.14C148.838 43.5 148.706 43.812 148.442 44.076C148.73 44.58 148.874 45.192 148.874 45.912C148.874 46.8 148.622 47.412 148.118 47.748C147.878 47.916 147.626 48 147.362 48C146.906 48 146.522 47.796 146.21 47.388C145.922 46.956 145.778 46.488 145.778 45.984C145.778 45.744 145.814 45.516 145.886 45.3C145.67 45.012 145.562 44.604 145.562 44.076C145.562 43.548 145.67 43.164 145.886 42.924C145.838 42.804 145.814 42.636 145.814 42.42C145.814 42.252 145.826 42.12 145.85 42.024C145.73 41.832 145.67 41.58 145.67 41.268C145.67 40.884 145.766 40.56 145.958 40.296C145.766 40.104 145.67 39.852 145.67 39.54C145.67 39.324 145.73 39.096 145.85 38.856C145.754 38.664 145.706 38.352 145.706 37.92C145.706 37.392 145.826 37.056 146.066 36.912C145.826 36.48 145.706 36.06 145.706 35.652C145.706 35.436 145.766 35.232 145.886 35.04C145.718 34.704 145.634 34.32 145.634 33.888C145.634 33.384 145.754 32.964 145.994 32.628C145.898 32.412 145.85 32.208 145.85 32.016C145.85 31.848 145.922 31.656 146.066 31.44C145.874 31.176 145.778 30.888 145.778 30.576C145.778 30.312 145.85 30.132 145.994 30.036C145.826 29.844 145.742 29.556 145.742 29.172C145.742 28.884 145.814 28.668 145.958 28.524C145.742 28.188 145.634 27.708 145.634 27.084C145.634 26.532 145.718 26.148 145.886 25.932C145.67 25.548 145.562 25.116 145.562 24.636C145.562 24.204 145.658 23.892 145.85 23.7C145.874 23.292 146.03 22.968 146.318 22.728C146.606 22.464 146.942 22.332 147.326 22.332C147.59 22.332 147.83 22.404 148.046 22.548C148.502 22.812 148.73 23.22 148.73 23.772C148.73 24.228 148.61 24.672 148.37 25.104C148.682 25.656 148.838 26.268 148.838 26.94C148.838 27.276 148.79 27.576 148.694 27.84ZM173.542 33.672C173.662 33.864 173.758 34.176 173.83 34.608C173.902 35.016 173.938 35.424 173.938 35.832C173.938 36.336 173.878 36.696 173.758 36.912C173.854 37.176 173.902 37.44 173.902 37.704C173.902 38.16 173.734 38.604 173.398 39.036C173.446 39.444 173.374 39.852 173.182 40.26C172.99 40.668 172.714 41.004 172.354 41.268C172.426 41.436 172.462 41.604 172.462 41.772C172.462 42.132 172.342 42.492 172.102 42.852C171.886 43.188 171.61 43.476 171.274 43.716C171.25 44.1 171.106 44.424 170.842 44.688C170.602 44.928 170.23 45.144 169.726 45.336C169.654 45.672 169.546 45.9 169.402 46.02C169.258 46.14 169.078 46.236 168.862 46.308C168.67 46.38 168.514 46.44 168.394 46.488C168.298 46.704 167.998 46.908 167.494 47.1C167.014 47.268 166.666 47.328 166.45 47.28C166.354 47.472 166.138 47.64 165.802 47.784C165.49 47.928 165.142 48 164.758 48C164.302 48 163.93 47.904 163.642 47.712C163.402 47.76 163.198 47.784 163.03 47.784C162.526 47.784 161.998 47.688 161.446 47.496C160.894 47.28 160.498 47.004 160.258 46.668C159.754 46.716 159.202 46.512 158.602 46.056C158.026 45.576 157.714 45.108 157.666 44.652C157.378 44.652 157.042 44.388 156.658 43.86C156.298 43.308 156.118 42.78 156.118 42.276C156.118 42.084 156.154 41.904 156.226 41.736C155.938 41.616 155.698 41.436 155.506 41.196C155.338 40.956 155.254 40.692 155.254 40.404C155.254 40.236 155.29 40.068 155.362 39.9C155.194 39.756 155.05 39.54 154.93 39.252C154.81 38.94 154.75 38.64 154.75 38.352C154.75 38.208 154.774 38.064 154.822 37.92C154.678 37.632 154.606 37.284 154.606 36.876C154.606 36.516 154.666 36.264 154.786 36.12C154.666 35.952 154.57 35.724 154.498 35.436C154.426 35.124 154.39 34.812 154.39 34.5C154.39 34.116 154.45 33.804 154.57 33.564C154.402 33.3 154.318 32.988 154.318 32.628C154.318 32.388 154.366 32.16 154.462 31.944C154.558 31.704 154.666 31.548 154.786 31.476C154.714 31.26 154.678 31.044 154.678 30.828C154.678 30.276 154.918 29.832 155.398 29.496C155.398 28.896 155.542 28.536 155.83 28.416C155.734 28.248 155.794 27.984 156.01 27.624C156.226 27.24 156.442 27.048 156.658 27.048C156.754 26.664 156.922 26.316 157.162 26.004C157.426 25.692 157.714 25.524 158.026 25.5C158.146 24.996 158.494 24.516 159.07 24.06C159.67 23.604 160.234 23.388 160.762 23.412C160.858 23.076 161.11 22.812 161.518 22.62C161.926 22.428 162.358 22.332 162.814 22.332C163.342 22.332 163.726 22.452 163.966 22.692C164.086 22.548 164.278 22.428 164.542 22.332C164.83 22.212 165.13 22.152 165.442 22.152C165.922 22.152 166.33 22.284 166.666 22.548C166.882 22.452 167.11 22.404 167.35 22.404C167.662 22.404 167.914 22.476 168.106 22.62C168.298 22.764 168.406 22.956 168.43 23.196C168.718 23.1 169.03 23.184 169.366 23.448C169.726 23.688 169.942 24 170.014 24.384C170.278 24.312 170.542 24.372 170.806 24.564C171.094 24.732 171.31 24.96 171.454 25.248C171.598 25.536 171.622 25.788 171.526 26.004C171.742 26.148 171.922 26.34 172.066 26.58C172.234 26.796 172.318 27.048 172.318 27.336C172.318 27.552 172.258 27.804 172.138 28.092C172.474 28.236 172.726 28.476 172.894 28.812C173.086 29.148 173.182 29.508 173.182 29.892C173.182 30.06 173.17 30.192 173.146 30.288C173.338 30.552 173.494 30.888 173.614 31.296C173.734 31.68 173.794 32.076 173.794 32.484C173.794 32.964 173.71 33.36 173.542 33.672ZM167.602 43.608C167.65 43.344 167.818 43.08 168.106 42.816C168.394 42.528 168.67 42.396 168.934 42.42C168.958 42.204 169.09 41.796 169.33 41.196C169.594 40.596 169.81 40.26 169.978 40.188C169.954 40.116 169.942 39.984 169.942 39.792C169.942 39.336 170.014 38.856 170.158 38.352C170.326 37.824 170.518 37.536 170.734 37.488C170.59 37.224 170.518 36.948 170.518 36.66C170.518 36.252 170.686 35.688 171.022 34.968C170.902 34.752 170.782 34.464 170.662 34.104C170.542 33.72 170.482 33.384 170.482 33.096C170.482 32.856 170.53 32.688 170.626 32.592C170.482 32.352 170.41 32.004 170.41 31.548C170.194 31.068 170.074 30.708 170.05 30.468C169.714 30.324 169.438 30.024 169.222 29.568C169.006 29.088 168.934 28.668 169.006 28.308C168.79 28.116 168.646 27.9 168.574 27.66C168.334 27.564 168.142 27.432 167.998 27.264C167.878 27.096 167.758 26.856 167.638 26.544L167.242 26.58C166.834 26.58 166.45 26.52 166.09 26.4C165.73 26.256 165.466 26.052 165.298 25.788C164.842 25.956 164.398 26.04 163.966 26.04C163.558 26.04 163.102 25.956 162.598 25.788C162.478 26.196 162.25 26.508 161.914 26.724C161.602 26.916 161.254 27 160.87 26.976C160.75 27.216 160.534 27.492 160.222 27.804C159.934 28.092 159.658 28.284 159.394 28.38C159.394 28.596 159.286 28.824 159.07 29.064C158.878 29.304 158.758 29.46 158.71 29.532C158.734 29.604 158.746 29.712 158.746 29.856C158.746 30.288 158.566 30.612 158.206 30.828C158.206 31.164 158.098 31.488 157.882 31.8C157.906 31.848 157.918 31.92 157.918 32.016C157.918 32.256 157.822 32.52 157.63 32.808C157.798 33 157.882 33.252 157.882 33.564C157.882 33.924 157.786 34.212 157.594 34.428C157.906 34.788 158.062 35.184 158.062 35.616C158.062 35.856 158.002 36.12 157.882 36.408C158.17 36.696 158.314 37.104 158.314 37.632C158.314 37.944 158.242 38.208 158.098 38.424C158.362 38.688 158.494 39 158.494 39.36C158.494 39.552 158.458 39.72 158.386 39.864C158.626 39.984 158.818 40.164 158.962 40.404C159.106 40.62 159.178 40.848 159.178 41.088C159.178 41.16 159.154 41.292 159.106 41.484C159.49 41.676 159.838 41.952 160.15 42.312C160.462 42.672 160.63 43.056 160.654 43.464C160.942 43.368 161.362 43.5 161.914 43.86C162.49 44.22 162.85 44.544 162.994 44.832C163.234 44.64 163.714 44.544 164.434 44.544C165.01 44.544 165.442 44.604 165.73 44.724C165.898 44.484 166.186 44.244 166.594 44.004C167.002 43.764 167.338 43.632 167.602 43.608ZM197.329 44.004C197.473 44.148 197.545 44.328 197.545 44.544C197.545 44.712 197.485 44.856 197.365 44.976C197.485 45.192 197.545 45.408 197.545 45.624C197.545 45.816 197.497 46.008 197.401 46.2C197.449 46.488 197.473 46.668 197.473 46.74C197.473 47.076 197.281 47.388 196.897 47.676C196.609 47.892 196.285 48 195.925 48C195.469 48 195.061 47.844 194.701 47.532C194.365 47.484 194.077 47.304 193.837 46.992C193.621 46.656 193.549 46.284 193.621 45.876C193.501 45.78 193.357 45.684 193.189 45.588C193.021 45.468 192.877 45.348 192.757 45.228C192.661 45.084 192.589 44.916 192.541 44.724C192.253 44.628 192.025 44.46 191.857 44.22C191.689 43.956 191.605 43.668 191.605 43.356C191.605 43.236 191.617 43.14 191.641 43.068C191.329 43.02 191.065 42.876 190.849 42.636C190.657 42.372 190.549 42.084 190.525 41.772C190.045 41.532 189.697 41.328 189.481 41.16C189.265 40.992 189.133 40.728 189.085 40.368C188.845 40.248 188.605 40.008 188.365 39.648C188.125 39.288 187.981 38.964 187.933 38.676C187.501 38.46 187.249 38.1 187.177 37.596C186.961 37.5 186.721 37.272 186.457 36.912C186.193 36.528 186.049 36.192 186.025 35.904C185.689 35.784 185.365 35.508 185.053 35.076C184.741 34.62 184.561 34.164 184.513 33.708C184.321 33.612 184.093 33.372 183.829 32.988C183.565 32.58 183.397 32.244 183.325 31.98C183.133 31.788 182.917 31.476 182.677 31.044C182.437 30.588 182.281 30.192 182.209 29.856C182.017 29.712 181.813 29.448 181.597 29.064C181.381 28.68 181.237 28.344 181.165 28.056C181.213 28.2 181.237 28.404 181.237 28.668C181.237 28.98 181.201 29.172 181.129 29.244C181.273 29.82 181.345 30.3 181.345 30.684C181.345 30.828 181.321 30.996 181.273 31.188C181.369 31.404 181.417 31.728 181.417 32.16C181.417 32.544 181.381 32.844 181.309 33.06C181.453 33.228 181.525 33.516 181.525 33.924C181.525 34.284 181.465 34.584 181.345 34.824C181.489 35.064 181.561 35.304 181.561 35.544C181.561 35.808 181.489 36.084 181.345 36.372C181.225 36.66 181.153 36.84 181.129 36.912C181.345 37.224 181.453 37.752 181.453 38.496C181.453 38.928 181.393 39.3 181.273 39.612C181.465 39.924 181.561 40.236 181.561 40.548C181.561 40.884 181.429 41.364 181.165 41.988C181.405 42.228 181.525 42.564 181.525 42.996C181.525 43.476 181.393 43.956 181.129 44.436C181.153 44.652 181.189 44.952 181.237 45.336C181.309 45.72 181.345 46.032 181.345 46.272C181.345 47.304 180.865 47.82 179.905 47.82C179.521 47.82 179.197 47.688 178.933 47.424C178.693 47.16 178.549 46.836 178.501 46.452C178.357 46.116 178.285 45.756 178.285 45.372C178.285 44.988 178.345 44.64 178.465 44.328C178.345 43.896 178.285 43.488 178.285 43.104C178.285 42.792 178.321 42.528 178.393 42.312C178.321 42.048 178.285 41.82 178.285 41.628C178.285 41.268 178.357 40.908 178.501 40.548C178.309 40.236 178.213 39.84 178.213 39.36C178.213 38.832 178.333 38.424 178.573 38.136C178.381 37.68 178.285 37.248 178.285 36.84C178.285 36.36 178.393 35.928 178.609 35.544C178.513 35.304 178.465 35.112 178.465 34.968C178.465 34.896 178.489 34.764 178.537 34.572C178.225 34.26 178.069 33.756 178.069 33.06C178.069 32.7 178.105 32.352 178.177 32.016C178.273 31.68 178.381 31.44 178.501 31.296C178.237 30.816 178.105 30.204 178.105 29.46C178.105 28.98 178.177 28.596 178.321 28.308C178.177 28.044 178.105 27.708 178.105 27.3C178.105 26.796 178.201 26.388 178.393 26.076C178.321 25.884 178.285 25.608 178.285 25.248C178.285 24.912 178.321 24.684 178.393 24.564C178.393 23.964 178.585 23.496 178.969 23.16C179.353 22.824 179.809 22.656 180.337 22.656C180.865 22.656 181.309 22.836 181.669 23.196C182.053 23.556 182.221 24.036 182.173 24.636C182.725 24.708 183.241 25.044 183.721 25.644C184.201 26.244 184.429 26.892 184.405 27.588C184.717 27.804 185.017 28.128 185.305 28.56C185.617 28.992 185.785 29.388 185.809 29.748C186.121 29.988 186.457 30.42 186.817 31.044C187.177 31.668 187.369 32.22 187.393 32.7C187.681 32.724 187.981 33 188.293 33.528C188.629 34.056 188.821 34.5 188.869 34.86C189.109 34.956 189.349 35.196 189.589 35.58C189.829 35.964 189.949 36.3 189.949 36.588C190.141 36.636 190.309 36.828 190.453 37.164C190.621 37.5 190.681 37.764 190.633 37.956C191.233 38.196 191.593 38.616 191.713 39.216C191.977 39.192 192.265 39.348 192.577 39.684C192.889 40.02 193.081 40.356 193.153 40.692C193.393 40.788 193.645 41.004 193.909 41.34C194.197 41.652 194.377 41.952 194.449 42.24C194.377 41.88 194.341 41.616 194.341 41.448C194.341 41.28 194.401 41.136 194.521 41.016C194.281 40.752 194.161 40.368 194.161 39.864C194.161 39.6 194.197 39.384 194.269 39.216C194.101 38.928 194.017 38.664 194.017 38.424C194.017 38.208 194.077 37.98 194.197 37.74C193.957 37.524 193.837 37.152 193.837 36.624C193.837 36.384 193.873 36.192 193.945 36.048C193.753 35.664 193.657 35.232 193.657 34.752C193.657 34.608 193.681 34.392 193.729 34.104C193.465 33.792 193.333 33.288 193.333 32.592C193.333 32.016 193.429 31.596 193.621 31.332C193.501 31.164 193.393 30.936 193.297 30.648C193.225 30.336 193.189 30.048 193.189 29.784C193.189 29.328 193.285 28.98 193.477 28.74C193.261 28.524 193.153 28.224 193.153 27.84C193.153 27.576 193.213 27.24 193.333 26.832C193.093 26.472 192.973 26.04 192.973 25.536C192.973 25.152 193.045 24.852 193.189 24.636C193.069 24.324 193.009 24.048 193.009 23.808C193.009 23.328 193.249 22.992 193.729 22.8C193.993 22.704 194.233 22.656 194.449 22.656C194.857 22.656 195.145 22.812 195.313 23.124C195.505 23.436 195.601 23.808 195.601 24.24C195.601 24.48 195.589 24.648 195.565 24.744C195.757 24.888 195.913 25.152 196.033 25.536C196.153 25.92 196.213 26.316 196.213 26.724C196.213 27.084 196.165 27.348 196.069 27.516C196.237 27.9 196.321 28.404 196.321 29.028C196.321 29.556 196.261 29.928 196.141 30.144C196.285 30.432 196.357 30.852 196.357 31.404C196.357 31.836 196.309 32.148 196.213 32.34C196.333 32.532 196.429 32.796 196.501 33.132C196.597 33.444 196.645 33.744 196.645 34.032C196.645 34.44 196.561 34.728 196.393 34.896C196.561 35.04 196.693 35.28 196.789 35.616C196.885 35.952 196.933 36.3 196.933 36.66C196.933 36.972 196.897 37.236 196.825 37.452C197.017 37.764 197.113 38.136 197.113 38.568C197.113 38.928 197.053 39.18 196.933 39.324C197.005 39.468 197.065 39.708 197.113 40.044C197.161 40.38 197.161 40.62 197.113 40.764C197.353 40.932 197.473 41.28 197.473 41.808C197.473 42.216 197.389 42.54 197.221 42.78C197.341 43.092 197.401 43.344 197.401 43.536C197.401 43.608 197.377 43.764 197.329 44.004ZM206.322 27.516C206.394 27.588 206.43 27.708 206.43 27.876C206.43 28.092 206.346 28.332 206.178 28.596C206.034 28.86 205.842 29.064 205.602 29.208C205.65 29.256 205.674 29.4 205.674 29.64C205.674 29.88 205.65 30.108 205.602 30.324C205.578 30.516 205.554 30.648 205.53 30.72C205.602 30.792 205.674 30.948 205.746 31.188C205.818 31.428 205.866 31.62 205.89 31.764C206.106 31.764 206.31 31.836 206.502 31.98C206.694 32.124 206.838 32.328 206.934 32.592C206.958 32.568 207.018 32.556 207.114 32.556C207.258 32.556 207.426 32.58 207.618 32.628C207.81 32.676 207.966 32.724 208.086 32.772C208.158 32.7 208.314 32.664 208.554 32.664C208.962 32.664 209.226 32.76 209.346 32.952C209.466 32.88 209.622 32.844 209.814 32.844C210.198 32.844 210.486 32.94 210.678 33.132C210.798 33.036 211.05 32.988 211.434 32.988C211.698 32.988 211.962 33.024 212.226 33.096C212.49 33.168 212.658 33.264 212.73 33.384C212.802 33.36 212.91 33.348 213.054 33.348C213.462 33.348 213.846 33.456 214.206 33.672C214.59 33.864 214.782 34.08 214.782 34.32C215.094 34.272 215.382 34.344 215.646 34.536C215.91 34.728 216.126 34.968 216.294 35.256C216.726 35.328 217.134 35.724 217.518 36.444C217.902 37.164 218.094 37.836 218.094 38.46C218.094 38.748 218.034 38.988 217.914 39.18C218.274 39.42 218.454 39.864 218.454 40.512C218.454 40.968 218.358 41.388 218.166 41.772C218.214 41.964 218.238 42.108 218.238 42.204C218.238 42.612 218.118 43.02 217.878 43.428C217.662 43.812 217.398 44.052 217.086 44.148C217.014 44.556 216.798 44.94 216.438 45.3C216.078 45.636 215.706 45.888 215.322 46.056C215.274 46.368 215.046 46.68 214.638 46.992C214.23 47.28 213.834 47.376 213.45 47.28C213.282 47.496 212.97 47.676 212.514 47.82C212.082 47.94 211.614 48 211.11 48C210.63 48 210.186 47.94 209.778 47.82C209.394 47.7 209.13 47.52 208.986 47.28C208.77 47.376 208.53 47.424 208.266 47.424C207.93 47.424 207.606 47.34 207.294 47.172C207.006 47.004 206.802 46.776 206.682 46.488C206.394 46.56 206.082 46.5 205.746 46.308C205.434 46.092 205.206 45.768 205.062 45.336C204.678 45.336 204.282 45.204 203.874 44.94C203.49 44.676 203.274 44.412 203.226 44.148C202.842 44.076 202.542 43.908 202.326 43.644C202.134 43.38 202.038 43.08 202.038 42.744C202.038 42.36 202.158 42.012 202.398 41.7C202.662 41.388 202.998 41.232 203.406 41.232C203.622 41.232 203.79 41.256 203.91 41.304C204.102 41.256 204.234 41.232 204.306 41.232C204.666 41.232 204.99 41.352 205.278 41.592C205.59 41.832 205.758 42.132 205.782 42.492C205.926 42.444 206.046 42.42 206.142 42.42C206.478 42.42 206.778 42.576 207.042 42.888C207.33 43.176 207.498 43.512 207.546 43.896C207.69 43.824 207.846 43.788 208.014 43.788C208.278 43.788 208.53 43.86 208.77 44.004C209.01 44.148 209.142 44.316 209.166 44.508C209.382 44.436 209.598 44.4 209.814 44.4C210.198 44.4 210.51 44.556 210.75 44.868C210.966 44.724 211.194 44.652 211.434 44.652C211.554 44.652 211.758 44.7 212.046 44.796C212.358 44.34 212.67 44.16 212.982 44.256C213.174 43.992 213.39 43.764 213.63 43.572C213.87 43.356 214.11 43.236 214.35 43.212C214.446 42.948 214.554 42.756 214.674 42.636C214.794 42.492 214.986 42.348 215.25 42.204C215.202 42.108 215.178 41.988 215.178 41.844C215.178 41.604 215.226 41.352 215.322 41.088C215.418 40.824 215.526 40.656 215.646 40.584C215.454 40.368 215.358 40.116 215.358 39.828C215.358 39.588 215.442 39.312 215.61 39C215.178 38.736 214.962 38.352 214.962 37.848C214.602 37.728 214.338 37.56 214.17 37.344C213.762 37.368 213.426 37.308 213.162 37.164C212.898 36.996 212.73 36.756 212.658 36.444C212.466 36.492 212.334 36.516 212.262 36.516C212.022 36.516 211.794 36.468 211.578 36.372C211.362 36.252 211.182 36.096 211.038 35.904C210.894 36.024 210.702 36.084 210.462 36.084C210.15 36.084 209.814 35.964 209.454 35.724C209.214 35.844 208.986 35.904 208.77 35.904C208.458 35.904 208.206 35.844 208.014 35.724C207.87 35.772 207.75 35.796 207.654 35.796C207.438 35.796 207.234 35.76 207.042 35.688C206.874 35.592 206.778 35.484 206.754 35.364C205.89 35.364 205.422 35.208 205.35 34.896C205.062 34.848 204.786 34.752 204.522 34.608C204.258 34.44 204.114 34.248 204.09 34.032C203.85 33.984 203.646 33.852 203.478 33.636C203.31 33.396 203.226 33.108 203.226 32.772C203.01 32.604 202.83 32.304 202.686 31.872C202.542 31.44 202.47 30.984 202.47 30.504C202.47 29.736 202.626 29.208 202.938 28.92C202.89 28.776 202.866 28.632 202.866 28.488C202.866 28.152 202.926 27.804 203.046 27.444C203.19 27.084 203.334 26.868 203.478 26.796C203.478 26.484 203.562 26.124 203.73 25.716C203.946 25.428 204.198 25.188 204.486 24.996C204.774 24.78 205.086 24.672 205.422 24.672C205.47 24.408 205.614 24.18 205.854 23.988C206.118 23.796 206.418 23.7 206.754 23.7C206.85 23.412 207.054 23.184 207.366 23.016C207.678 22.848 208.026 22.764 208.41 22.764C208.698 22.764 208.95 22.8 209.166 22.872C209.238 22.752 209.37 22.656 209.562 22.584C209.754 22.512 209.958 22.476 210.174 22.476C210.294 22.476 210.426 22.5 210.57 22.548C210.786 22.332 211.17 22.224 211.722 22.224C212.322 22.224 212.778 22.332 213.09 22.548C213.186 22.524 213.318 22.512 213.486 22.512C214.206 22.512 214.818 22.932 215.322 23.772C215.586 23.724 215.874 23.796 216.186 23.988C216.522 24.18 216.786 24.444 216.978 24.78C217.194 25.092 217.29 25.392 217.266 25.68C217.674 25.968 217.962 26.268 218.13 26.58C218.298 26.892 218.43 27.36 218.526 27.984C218.55 28.416 218.418 28.764 218.13 29.028C217.842 29.292 217.506 29.424 217.122 29.424C216.762 29.424 216.45 29.292 216.186 29.028C215.898 28.98 215.646 28.836 215.43 28.596C215.214 28.356 215.118 28.116 215.142 27.876C214.47 27.42 214.17 26.916 214.242 26.364C213.954 26.412 213.594 26.34 213.162 26.148C212.754 25.932 212.442 25.656 212.226 25.32C212.058 25.56 211.722 25.68 211.218 25.68C210.858 25.68 210.558 25.62 210.318 25.5C210.15 25.716 209.85 25.824 209.418 25.824C209.202 25.824 208.998 25.788 208.806 25.716C208.71 25.98 208.542 26.208 208.302 26.4C208.086 26.568 207.834 26.676 207.546 26.724C207.402 26.94 207.222 27.132 207.006 27.3C206.79 27.444 206.562 27.516 206.322 27.516Z" fill="black"/>
</svg>
