<svg width="300" height="73" viewBox="0 0 300 73" fill="none" xmlns="http://www.w3.org/2000/svg">
<path d="M50.2477 44.652C50.3437 44.46 50.5477 44.304 50.8597 44.184C51.1957 44.064 51.5197 44.004 51.8317 44.004C52.2397 44.004 52.5277 44.088 52.6957 44.256C52.9837 44.208 53.1637 44.184 53.2357 44.184C53.6917 44.184 54.0397 44.304 54.2797 44.544C54.5197 44.784 54.6397 45.084 54.6397 45.444C54.6397 45.876 54.4837 46.272 54.1717 46.632C53.8597 46.968 53.4517 47.136 52.9477 47.136C52.6357 47.136 52.3117 47.052 51.9757 46.884C51.8077 47.1 51.5557 47.304 51.2197 47.496C50.8837 47.688 50.5357 47.784 50.1757 47.784C49.8637 47.784 49.5757 47.7 49.3117 47.532C49.1197 47.82 48.7597 47.964 48.2317 47.964C47.9677 47.964 47.7157 47.904 47.4757 47.784C47.1157 48 46.6837 48.108 46.1797 48.108C45.8197 48.108 45.5077 48.036 45.2437 47.892C44.9557 48.012 44.6797 48.072 44.4157 48.072C43.9837 48.072 43.5997 47.94 43.2637 47.676C42.9997 47.844 42.7237 47.928 42.4357 47.928C42.0757 47.928 41.7637 47.82 41.4997 47.604C41.2357 47.364 41.1037 47.1 41.1037 46.812C40.7677 46.644 40.4797 46.428 40.2397 46.164C40.0237 45.9 39.9157 45.588 39.9157 45.228C39.9157 44.988 39.9637 44.76 40.0597 44.544C39.7717 44.448 39.5437 44.28 39.3757 44.04C39.2077 43.776 39.1237 43.5 39.1237 43.212C39.1237 42.948 39.1717 42.72 39.2677 42.528C39.0277 42.216 38.9077 41.76 38.9077 41.16C38.9077 40.848 38.9437 40.56 39.0157 40.296C39.0877 40.032 39.1957 39.84 39.3397 39.72C39.0277 39.408 38.8717 38.952 38.8717 38.352C38.8717 37.824 38.9797 37.404 39.1957 37.092C39.0037 36.66 38.9077 36.18 38.9077 35.652C38.9077 34.98 39.0517 34.416 39.3397 33.96C39.0997 33.696 38.9797 33.336 38.9797 32.88C38.9797 32.52 39.0637 32.208 39.2317 31.944C38.9917 31.68 38.8717 31.26 38.8717 30.684C38.8717 30.228 38.9317 29.88 39.0517 29.64C38.8597 29.28 38.7637 28.764 38.7637 28.092C38.7637 27.372 38.8597 26.856 39.0517 26.544C38.9557 26.376 38.9077 26.112 38.9077 25.752C38.9077 25.248 39.0397 24.876 39.3037 24.636C39.1597 24.348 39.0877 24.072 39.0877 23.808C39.0877 23.4 39.2317 23.076 39.5197 22.836C39.8317 22.572 40.1797 22.44 40.5637 22.44C40.8277 22.44 41.0677 22.524 41.2837 22.692C41.5237 22.836 41.6917 23.064 41.7877 23.376C42.0997 23.64 42.2557 24.036 42.2557 24.564C42.2557 25.044 42.1237 25.5 41.8597 25.932C42.0037 26.148 42.0757 26.412 42.0757 26.724C42.0757 27.108 41.9557 27.42 41.7157 27.66C42.1237 28.02 42.3277 28.488 42.3277 29.064C42.3277 29.592 42.1597 30.036 41.8237 30.396C42.0157 30.708 42.1117 31.14 42.1117 31.692C42.1117 32.196 42.0517 32.544 41.9317 32.736C42.1237 33.048 42.2197 33.552 42.2197 34.248C42.2197 35.064 42.0997 35.64 41.8597 35.976C42.1957 36.336 42.3637 36.852 42.3637 37.524C42.3637 37.86 42.3157 38.184 42.2197 38.496C42.1237 38.784 42.0037 39.024 41.8597 39.216C42.1717 39.528 42.3277 39.984 42.3277 40.584C42.3277 40.968 42.2437 41.328 42.0757 41.664C42.1957 41.904 42.2557 42.204 42.2557 42.564C42.2557 42.732 42.2437 42.84 42.2197 42.888C42.9157 43.44 43.2037 44.004 43.0837 44.58C43.3957 44.556 43.6717 44.58 43.9117 44.652C44.1757 44.724 44.3557 44.856 44.4517 45.048C44.6917 44.88 44.9557 44.796 45.2437 44.796C45.6277 44.796 45.9757 44.928 46.2877 45.192C46.4557 44.88 46.7797 44.724 47.2597 44.724C47.4997 44.724 47.7637 44.796 48.0517 44.94C48.1957 44.772 48.3757 44.628 48.5917 44.508C48.8317 44.388 49.0717 44.328 49.3117 44.328C49.6477 44.328 49.9597 44.436 50.2477 44.652ZM70.496 22.728C70.736 22.56 71.048 22.476 71.432 22.476C71.984 22.476 72.536 22.656 73.088 23.016C73.352 23.016 73.568 23.124 73.736 23.34C73.904 23.556 73.988 23.82 73.988 24.132C73.988 24.54 73.868 24.9 73.628 25.212C73.388 25.524 73.052 25.68 72.62 25.68C72.308 25.68 71.972 25.584 71.612 25.392C71.42 25.584 71.168 25.68 70.856 25.68C70.52 25.68 70.172 25.56 69.812 25.32C69.572 25.44 69.212 25.5 68.732 25.5C68.036 25.5 67.496 25.392 67.112 25.176C66.752 25.344 66.38 25.428 65.996 25.428C65.684 25.428 65.384 25.38 65.096 25.284C64.784 25.404 64.484 25.464 64.196 25.464C63.812 25.464 63.428 25.356 63.044 25.14C62.612 25.38 62.228 25.524 61.892 25.572C62.06 25.98 62.144 26.424 62.144 26.904C62.144 27.504 62.012 27.984 61.748 28.344C62.036 28.8 62.18 29.304 62.18 29.856C62.18 30.288 62.072 30.72 61.856 31.152C62.072 31.392 62.18 31.692 62.18 32.052C62.18 32.292 62.096 32.58 61.928 32.916C62.144 32.796 62.408 32.736 62.72 32.736C62.96 32.736 63.128 32.76 63.224 32.808C63.488 32.616 63.776 32.52 64.088 32.52C64.4 32.52 64.712 32.652 65.024 32.916C65.312 32.844 65.552 32.808 65.744 32.808C65.864 32.808 66.068 32.832 66.356 32.88C66.644 32.832 66.848 32.808 66.968 32.808C67.376 32.808 67.676 32.904 67.868 33.096C68.06 32.976 68.276 32.916 68.516 32.916C68.804 32.916 68.984 32.976 69.056 33.096C69.272 33.024 69.44 32.988 69.56 32.988C69.728 32.988 69.956 33.036 70.244 33.132C70.556 32.964 70.856 32.88 71.144 32.88C71.552 32.88 71.9 33.036 72.188 33.348C72.476 33.636 72.62 33.96 72.62 34.32C72.62 34.632 72.512 34.896 72.296 35.112C72.08 35.328 71.744 35.448 71.288 35.472C71.072 35.76 70.712 35.904 70.208 35.904C69.752 35.904 69.344 35.784 68.984 35.544C68.744 35.784 68.396 35.904 67.94 35.904C67.532 35.904 67.196 35.808 66.932 35.616C66.74 35.76 66.536 35.832 66.32 35.832C66.176 35.832 66.056 35.784 65.96 35.688C65.696 35.928 65.336 36.048 64.88 36.048C64.544 36.048 64.232 35.976 63.944 35.832C63.704 35.952 63.5 36.012 63.332 36.012C63.092 36.012 62.852 35.928 62.612 35.76C62.444 35.856 62.312 35.916 62.216 35.94C62.12 35.964 61.988 35.964 61.82 35.94C62.036 36.372 62.144 36.708 62.144 36.948C62.144 37.164 62.072 37.416 61.928 37.704C62.096 37.896 62.18 38.136 62.18 38.424C62.18 38.64 62.12 38.868 62 39.108C62.168 39.3 62.252 39.552 62.252 39.864C62.252 40.152 62.168 40.392 62 40.584C62.144 40.872 62.216 41.1 62.216 41.268C62.216 41.412 62.12 41.652 61.928 41.988C62.024 42.084 62.072 42.216 62.072 42.384C62.072 42.6 62 42.744 61.856 42.816C62.096 43.032 62.216 43.308 62.216 43.644C62.216 43.764 62.192 43.968 62.144 44.256L62.36 44.22C62.624 44.22 62.9 44.34 63.188 44.58C63.548 44.316 64.016 44.184 64.592 44.184C64.808 44.184 65.036 44.208 65.276 44.256C65.42 44.088 65.624 43.956 65.888 43.86C66.152 43.764 66.44 43.716 66.752 43.716C67.256 43.716 67.64 43.824 67.904 44.04C68.048 43.8 68.3 43.608 68.66 43.464C69.02 43.32 69.38 43.248 69.74 43.248C70.004 43.248 70.22 43.284 70.388 43.356C70.652 43.212 70.892 43.14 71.108 43.14C71.492 43.14 71.828 43.296 72.116 43.608C72.404 43.92 72.548 44.28 72.548 44.688C72.548 45.192 72.32 45.588 71.864 45.876C71.768 46.068 71.576 46.236 71.288 46.38C71 46.5 70.688 46.56 70.352 46.56C70.016 46.56 69.752 46.5 69.56 46.38C69.368 46.572 69.116 46.74 68.804 46.884C68.492 47.004 68.18 47.064 67.868 47.064C67.388 47.064 67.016 46.932 66.752 46.668C66.344 47.1 65.816 47.316 65.168 47.316C65.048 47.316 64.844 47.292 64.556 47.244C64.076 47.532 63.608 47.676 63.152 47.676C62.792 47.676 62.48 47.58 62.216 47.388C61.952 47.796 61.568 48 61.064 48C60.632 48 60.248 47.832 59.912 47.496C59.6 47.16 59.492 46.764 59.588 46.308C59.444 46.164 59.336 45.948 59.264 45.66C59.192 45.372 59.156 45.084 59.156 44.796C59.156 44.58 59.168 44.424 59.192 44.328C58.88 44.016 58.724 43.488 58.724 42.744C58.724 42.432 58.76 42.144 58.832 41.88C58.904 41.592 58.988 41.388 59.084 41.268C58.964 41.028 58.904 40.776 58.904 40.512C58.904 40.392 58.928 40.236 58.976 40.044C58.76 39.828 58.652 39.54 58.652 39.18C58.652 38.844 58.736 38.58 58.904 38.388C58.784 38.148 58.724 37.932 58.724 37.74C58.724 37.476 58.808 37.224 58.976 36.984C58.784 36.552 58.688 36.132 58.688 35.724C58.688 35.22 58.844 34.74 59.156 34.284C59.012 33.972 58.88 33.588 58.76 33.132C58.664 32.676 58.616 32.244 58.616 31.836C58.616 31.068 58.796 30.54 59.156 30.252C59.036 29.724 58.976 29.448 58.976 29.424C58.832 28.848 58.76 28.44 58.76 28.2C58.76 27.84 58.844 27.408 59.012 26.904C58.892 26.736 58.796 26.46 58.724 26.076C58.652 25.692 58.628 25.416 58.652 25.248C58.364 24.96 58.22 24.612 58.22 24.204C58.22 23.892 58.316 23.604 58.508 23.34C58.724 23.052 59 22.86 59.336 22.764C59.504 22.596 59.732 22.464 60.02 22.368C60.308 22.248 60.608 22.188 60.92 22.188C61.328 22.188 61.676 22.296 61.964 22.512C62.372 22.392 62.78 22.332 63.188 22.332C63.764 22.332 64.232 22.464 64.592 22.728C64.808 22.632 65.06 22.584 65.348 22.584C65.612 22.584 65.816 22.644 65.96 22.764C66.104 22.644 66.452 22.584 67.004 22.584C67.724 22.584 68.288 22.704 68.696 22.944C68.96 22.68 69.284 22.548 69.668 22.548C69.908 22.548 70.184 22.608 70.496 22.728ZM93.1951 22.044C93.6031 22.14 93.9151 22.332 94.1311 22.62C94.3471 22.908 94.4551 23.244 94.4551 23.628C94.4551 24.228 94.2271 24.756 93.7711 25.212C93.9631 25.38 94.0591 25.668 94.0591 26.076C94.0591 26.484 93.9751 26.892 93.8071 27.3C93.6391 27.708 93.4591 27.96 93.2671 28.056C93.5071 28.368 93.6271 28.776 93.6271 29.28C93.6271 29.736 93.5311 30.168 93.3391 30.576C93.1711 30.96 92.9431 31.2 92.6551 31.296C92.7991 31.536 92.8711 31.848 92.8711 32.232C92.8711 32.544 92.8111 32.856 92.6911 33.168C92.5711 33.456 92.4031 33.672 92.1871 33.816C92.2831 33.936 92.3311 34.152 92.3311 34.464C92.3311 34.848 92.2471 35.232 92.0791 35.616C91.9111 35.976 91.6711 36.24 91.3591 36.408C91.5511 36.648 91.6471 36.924 91.6471 37.236C91.6471 37.572 91.5631 37.908 91.3951 38.244C91.2511 38.556 91.0591 38.784 90.8191 38.928C90.9871 39.264 91.0711 39.66 91.0711 40.116C91.0711 40.62 90.9991 41.1 90.8551 41.556C90.7111 42.012 90.5191 42.336 90.2791 42.528C90.3271 42.768 90.3511 42.948 90.3511 43.068C90.3511 43.548 90.1471 43.968 89.7391 44.328C89.7631 44.616 89.6911 44.976 89.5231 45.408C89.3791 45.816 89.2111 46.14 89.0191 46.38C89.0671 46.812 88.8871 47.184 88.4791 47.496C88.0951 47.808 87.6391 47.964 87.1111 47.964C86.6071 47.964 86.1751 47.808 85.8151 47.496C85.4551 47.16 85.2511 46.644 85.2031 45.948C84.9151 45.78 84.6871 45.564 84.5191 45.3C84.3511 45.012 84.2671 44.712 84.2671 44.4C84.2671 44.208 84.3031 44.028 84.3751 43.86C84.0871 43.74 83.8591 43.548 83.6911 43.284C83.5471 42.996 83.4991 42.696 83.5471 42.384C83.2111 42.024 83.0431 41.544 83.0431 40.944C83.0431 40.68 83.0551 40.488 83.0791 40.368C82.7191 40.152 82.4431 39.876 82.2511 39.54C82.0831 39.18 81.9991 38.808 81.9991 38.424C81.9991 38.208 82.0111 38.052 82.0351 37.956C81.5791 37.62 81.3511 37.128 81.3511 36.48C81.3511 36.264 81.3631 36.096 81.3871 35.976C81.1471 35.88 80.9431 35.664 80.7751 35.328C80.6311 34.968 80.5711 34.62 80.5951 34.284C80.4031 34.14 80.2231 33.864 80.0551 33.456C79.8871 33.024 79.8031 32.628 79.8031 32.268C79.2751 32.076 79.0111 31.632 79.0111 30.936C79.0111 30.768 79.0351 30.564 79.0831 30.324C78.5311 29.94 78.2551 29.52 78.2551 29.064C78.2551 28.92 78.2671 28.8 78.2911 28.704C78.1231 28.536 77.9791 28.32 77.8591 28.056C77.7391 27.768 77.6791 27.492 77.6791 27.228C77.6791 27.108 77.7031 26.976 77.7511 26.832C77.5351 26.712 77.3551 26.508 77.2111 26.22C77.0911 25.908 77.0311 25.596 77.0311 25.284C77.0311 24.9 77.1151 24.66 77.2831 24.564C76.9951 24.132 76.8511 23.748 76.8511 23.412C76.8511 23.028 76.9831 22.716 77.2471 22.476C77.5111 22.236 77.8351 22.116 78.2191 22.116C78.6511 22.116 79.0231 22.308 79.3351 22.692C79.6711 23.076 79.8511 23.64 79.8751 24.384C80.1631 24.576 80.3911 24.876 80.5591 25.284C80.7511 25.668 80.8471 26.052 80.8471 26.436C80.8471 26.604 80.8351 26.736 80.8111 26.832C81.0271 26.976 81.1951 27.168 81.3151 27.408C81.4351 27.624 81.4951 27.852 81.4951 28.092C81.4951 28.356 81.4351 28.584 81.3151 28.776C81.8911 29.16 82.1791 29.64 82.1791 30.216C82.1791 30.336 82.1551 30.516 82.1071 30.756C82.2991 30.852 82.4551 31.032 82.5751 31.296C82.7191 31.56 82.7911 31.848 82.7911 32.16C82.7911 32.328 82.7791 32.46 82.7551 32.556C83.2351 32.868 83.4751 33.42 83.4751 34.212C83.7391 34.284 84.0031 34.536 84.2671 34.968C84.5311 35.376 84.6631 35.808 84.6631 36.264L84.6271 36.588C84.8671 36.78 85.0591 37.092 85.2031 37.524C85.3471 37.932 85.3951 38.316 85.3471 38.676C85.5631 38.844 85.7071 39.084 85.7791 39.396C85.8751 39.684 85.9471 40.044 85.9951 40.476C86.2591 40.644 86.4511 40.872 86.5711 41.16C86.7151 41.424 86.7631 41.7 86.7151 41.988C86.9791 42.324 87.1111 42.684 87.1111 43.068C87.2311 42.996 87.3031 42.9 87.3271 42.78C87.2551 41.604 87.4351 40.884 87.8671 40.62C87.6991 40.38 87.6151 40.08 87.6151 39.72C87.6151 39.408 87.6751 39.12 87.7951 38.856C87.9391 38.568 88.0951 38.376 88.2631 38.28C88.2151 38.136 88.1911 37.992 88.1911 37.848C88.1911 37.56 88.2391 37.26 88.3351 36.948C88.4551 36.636 88.5991 36.432 88.7671 36.336C88.6951 36.144 88.6591 35.952 88.6591 35.76C88.6591 35.184 88.8511 34.752 89.2351 34.464C89.1151 34.32 89.0551 34.092 89.0551 33.78C89.0551 33.42 89.1271 33.048 89.2711 32.664C89.4391 32.256 89.6191 31.956 89.8111 31.764C89.6911 31.404 89.6311 31.068 89.6311 30.756C89.6311 30.084 89.8471 29.52 90.2791 29.064C90.2071 28.848 90.1711 28.596 90.1711 28.308C90.1711 27.828 90.2671 27.396 90.4591 27.012C90.6751 26.628 90.9511 26.436 91.2871 26.436C90.9271 25.956 90.7471 25.5 90.7471 25.068C90.7471 24.588 90.9511 24.18 91.3591 23.844C91.3351 23.724 91.3231 23.568 91.3231 23.376C91.3231 22.944 91.4311 22.608 91.6471 22.368C91.8871 22.104 92.2231 21.972 92.6551 21.972C92.7751 21.972 92.9551 21.996 93.1951 22.044ZM110.75 22.728C110.99 22.56 111.302 22.476 111.686 22.476C112.238 22.476 112.79 22.656 113.342 23.016C113.606 23.016 113.822 23.124 113.99 23.34C114.158 23.556 114.242 23.82 114.242 24.132C114.242 24.54 114.122 24.9 113.882 25.212C113.642 25.524 113.306 25.68 112.874 25.68C112.562 25.68 112.226 25.584 111.866 25.392C111.674 25.584 111.422 25.68 111.11 25.68C110.774 25.68 110.426 25.56 110.066 25.32C109.826 25.44 109.466 25.5 108.986 25.5C108.29 25.5 107.75 25.392 107.366 25.176C107.006 25.344 106.634 25.428 106.25 25.428C105.938 25.428 105.638 25.38 105.35 25.284C105.038 25.404 104.738 25.464 104.45 25.464C104.066 25.464 103.682 25.356 103.298 25.14C102.866 25.38 102.482 25.524 102.146 25.572C102.314 25.98 102.398 26.424 102.398 26.904C102.398 27.504 102.266 27.984 102.002 28.344C102.29 28.8 102.434 29.304 102.434 29.856C102.434 30.288 102.326 30.72 102.11 31.152C102.326 31.392 102.434 31.692 102.434 32.052C102.434 32.292 102.35 32.58 102.182 32.916C102.398 32.796 102.662 32.736 102.974 32.736C103.214 32.736 103.382 32.76 103.478 32.808C103.742 32.616 104.03 32.52 104.342 32.52C104.654 32.52 104.966 32.652 105.278 32.916C105.566 32.844 105.806 32.808 105.998 32.808C106.118 32.808 106.322 32.832 106.61 32.88C106.898 32.832 107.102 32.808 107.222 32.808C107.63 32.808 107.93 32.904 108.122 33.096C108.314 32.976 108.53 32.916 108.77 32.916C109.058 32.916 109.238 32.976 109.31 33.096C109.526 33.024 109.694 32.988 109.814 32.988C109.982 32.988 110.21 33.036 110.498 33.132C110.81 32.964 111.11 32.88 111.398 32.88C111.806 32.88 112.154 33.036 112.442 33.348C112.73 33.636 112.874 33.96 112.874 34.32C112.874 34.632 112.766 34.896 112.55 35.112C112.334 35.328 111.998 35.448 111.542 35.472C111.326 35.76 110.966 35.904 110.462 35.904C110.006 35.904 109.598 35.784 109.238 35.544C108.998 35.784 108.65 35.904 108.194 35.904C107.786 35.904 107.45 35.808 107.186 35.616C106.994 35.76 106.79 35.832 106.574 35.832C106.43 35.832 106.31 35.784 106.214 35.688C105.95 35.928 105.59 36.048 105.134 36.048C104.798 36.048 104.486 35.976 104.198 35.832C103.958 35.952 103.754 36.012 103.586 36.012C103.346 36.012 103.106 35.928 102.866 35.76C102.698 35.856 102.566 35.916 102.47 35.94C102.374 35.964 102.242 35.964 102.074 35.94C102.29 36.372 102.398 36.708 102.398 36.948C102.398 37.164 102.326 37.416 102.182 37.704C102.35 37.896 102.434 38.136 102.434 38.424C102.434 38.64 102.374 38.868 102.254 39.108C102.422 39.3 102.506 39.552 102.506 39.864C102.506 40.152 102.422 40.392 102.254 40.584C102.398 40.872 102.47 41.1 102.47 41.268C102.47 41.412 102.374 41.652 102.182 41.988C102.278 42.084 102.326 42.216 102.326 42.384C102.326 42.6 102.254 42.744 102.11 42.816C102.35 43.032 102.47 43.308 102.47 43.644C102.47 43.764 102.446 43.968 102.398 44.256L102.614 44.22C102.878 44.22 103.154 44.34 103.442 44.58C103.802 44.316 104.27 44.184 104.846 44.184C105.062 44.184 105.29 44.208 105.53 44.256C105.674 44.088 105.878 43.956 106.142 43.86C106.406 43.764 106.694 43.716 107.006 43.716C107.51 43.716 107.894 43.824 108.158 44.04C108.302 43.8 108.554 43.608 108.914 43.464C109.274 43.32 109.634 43.248 109.994 43.248C110.258 43.248 110.474 43.284 110.642 43.356C110.906 43.212 111.146 43.14 111.362 43.14C111.746 43.14 112.082 43.296 112.37 43.608C112.658 43.92 112.802 44.28 112.802 44.688C112.802 45.192 112.574 45.588 112.118 45.876C112.022 46.068 111.83 46.236 111.542 46.38C111.254 46.5 110.942 46.56 110.606 46.56C110.27 46.56 110.006 46.5 109.814 46.38C109.622 46.572 109.37 46.74 109.058 46.884C108.746 47.004 108.434 47.064 108.122 47.064C107.642 47.064 107.27 46.932 107.006 46.668C106.598 47.1 106.07 47.316 105.422 47.316C105.302 47.316 105.098 47.292 104.81 47.244C104.33 47.532 103.862 47.676 103.406 47.676C103.046 47.676 102.734 47.58 102.47 47.388C102.206 47.796 101.822 48 101.318 48C100.886 48 100.502 47.832 100.166 47.496C99.8539 47.16 99.7459 46.764 99.8419 46.308C99.6979 46.164 99.5899 45.948 99.5179 45.66C99.4459 45.372 99.4099 45.084 99.4099 44.796C99.4099 44.58 99.4219 44.424 99.4459 44.328C99.1339 44.016 98.9779 43.488 98.9779 42.744C98.9779 42.432 99.0139 42.144 99.0859 41.88C99.1579 41.592 99.2419 41.388 99.3379 41.268C99.2179 41.028 99.1579 40.776 99.1579 40.512C99.1579 40.392 99.1819 40.236 99.2299 40.044C99.0139 39.828 98.9059 39.54 98.9059 39.18C98.9059 38.844 98.9899 38.58 99.1579 38.388C99.0379 38.148 98.9779 37.932 98.9779 37.74C98.9779 37.476 99.0619 37.224 99.2299 36.984C99.0379 36.552 98.9419 36.132 98.9419 35.724C98.9419 35.22 99.0979 34.74 99.4099 34.284C99.2659 33.972 99.1339 33.588 99.0139 33.132C98.9179 32.676 98.8699 32.244 98.8699 31.836C98.8699 31.068 99.0499 30.54 99.4099 30.252C99.2899 29.724 99.2299 29.448 99.2299 29.424C99.0859 28.848 99.0139 28.44 99.0139 28.2C99.0139 27.84 99.0979 27.408 99.2659 26.904C99.1459 26.736 99.0499 26.46 98.9779 26.076C98.9059 25.692 98.8819 25.416 98.9059 25.248C98.6179 24.96 98.4739 24.612 98.4739 24.204C98.4739 23.892 98.5699 23.604 98.7619 23.34C98.9779 23.052 99.2539 22.86 99.5899 22.764C99.7579 22.596 99.9859 22.464 100.274 22.368C100.562 22.248 100.862 22.188 101.174 22.188C101.582 22.188 101.93 22.296 102.218 22.512C102.626 22.392 103.034 22.332 103.442 22.332C104.018 22.332 104.486 22.464 104.846 22.728C105.062 22.632 105.314 22.584 105.602 22.584C105.866 22.584 106.07 22.644 106.214 22.764C106.358 22.644 106.706 22.584 107.258 22.584C107.978 22.584 108.542 22.704 108.95 22.944C109.214 22.68 109.538 22.548 109.922 22.548C110.162 22.548 110.438 22.608 110.75 22.728ZM129.525 44.652C129.621 44.46 129.825 44.304 130.137 44.184C130.473 44.064 130.797 44.004 131.109 44.004C131.517 44.004 131.805 44.088 131.973 44.256C132.261 44.208 132.441 44.184 132.513 44.184C132.969 44.184 133.317 44.304 133.557 44.544C133.797 44.784 133.917 45.084 133.917 45.444C133.917 45.876 133.761 46.272 133.449 46.632C133.137 46.968 132.729 47.136 132.225 47.136C131.913 47.136 131.589 47.052 131.253 46.884C131.085 47.1 130.833 47.304 130.497 47.496C130.161 47.688 129.813 47.784 129.453 47.784C129.141 47.784 128.853 47.7 128.589 47.532C128.397 47.82 128.037 47.964 127.509 47.964C127.245 47.964 126.993 47.904 126.753 47.784C126.393 48 125.961 48.108 125.457 48.108C125.097 48.108 124.785 48.036 124.521 47.892C124.233 48.012 123.957 48.072 123.693 48.072C123.261 48.072 122.877 47.94 122.541 47.676C122.277 47.844 122.001 47.928 121.713 47.928C121.353 47.928 121.041 47.82 120.777 47.604C120.513 47.364 120.381 47.1 120.381 46.812C120.045 46.644 119.757 46.428 119.517 46.164C119.301 45.9 119.193 45.588 119.193 45.228C119.193 44.988 119.241 44.76 119.337 44.544C119.049 44.448 118.821 44.28 118.653 44.04C118.485 43.776 118.401 43.5 118.401 43.212C118.401 42.948 118.449 42.72 118.545 42.528C118.305 42.216 118.185 41.76 118.185 41.16C118.185 40.848 118.221 40.56 118.293 40.296C118.365 40.032 118.473 39.84 118.617 39.72C118.305 39.408 118.149 38.952 118.149 38.352C118.149 37.824 118.257 37.404 118.473 37.092C118.281 36.66 118.185 36.18 118.185 35.652C118.185 34.98 118.329 34.416 118.617 33.96C118.377 33.696 118.257 33.336 118.257 32.88C118.257 32.52 118.341 32.208 118.509 31.944C118.269 31.68 118.149 31.26 118.149 30.684C118.149 30.228 118.209 29.88 118.329 29.64C118.137 29.28 118.041 28.764 118.041 28.092C118.041 27.372 118.137 26.856 118.329 26.544C118.233 26.376 118.185 26.112 118.185 25.752C118.185 25.248 118.317 24.876 118.581 24.636C118.437 24.348 118.365 24.072 118.365 23.808C118.365 23.4 118.509 23.076 118.797 22.836C119.109 22.572 119.457 22.44 119.841 22.44C120.105 22.44 120.345 22.524 120.561 22.692C120.801 22.836 120.969 23.064 121.065 23.376C121.377 23.64 121.533 24.036 121.533 24.564C121.533 25.044 121.401 25.5 121.137 25.932C121.281 26.148 121.353 26.412 121.353 26.724C121.353 27.108 121.233 27.42 120.993 27.66C121.401 28.02 121.605 28.488 121.605 29.064C121.605 29.592 121.437 30.036 121.101 30.396C121.293 30.708 121.389 31.14 121.389 31.692C121.389 32.196 121.329 32.544 121.209 32.736C121.401 33.048 121.497 33.552 121.497 34.248C121.497 35.064 121.377 35.64 121.137 35.976C121.473 36.336 121.641 36.852 121.641 37.524C121.641 37.86 121.593 38.184 121.497 38.496C121.401 38.784 121.281 39.024 121.137 39.216C121.449 39.528 121.605 39.984 121.605 40.584C121.605 40.968 121.521 41.328 121.353 41.664C121.473 41.904 121.533 42.204 121.533 42.564C121.533 42.732 121.521 42.84 121.497 42.888C122.193 43.44 122.481 44.004 122.361 44.58C122.673 44.556 122.949 44.58 123.189 44.652C123.453 44.724 123.633 44.856 123.729 45.048C123.969 44.88 124.233 44.796 124.521 44.796C124.905 44.796 125.253 44.928 125.565 45.192C125.733 44.88 126.057 44.724 126.537 44.724C126.777 44.724 127.041 44.796 127.329 44.94C127.473 44.772 127.653 44.628 127.869 44.508C128.109 44.388 128.349 44.328 128.589 44.328C128.925 44.328 129.237 44.436 129.525 44.652ZM150.054 27.516C150.126 27.588 150.162 27.708 150.162 27.876C150.162 28.092 150.078 28.332 149.91 28.596C149.766 28.86 149.574 29.064 149.334 29.208C149.382 29.256 149.406 29.4 149.406 29.64C149.406 29.88 149.382 30.108 149.334 30.324C149.31 30.516 149.286 30.648 149.262 30.72C149.334 30.792 149.406 30.948 149.478 31.188C149.55 31.428 149.598 31.62 149.622 31.764C149.838 31.764 150.042 31.836 150.234 31.98C150.426 32.124 150.57 32.328 150.666 32.592C150.69 32.568 150.75 32.556 150.846 32.556C150.99 32.556 151.158 32.58 151.35 32.628C151.542 32.676 151.698 32.724 151.818 32.772C151.89 32.7 152.046 32.664 152.286 32.664C152.694 32.664 152.958 32.76 153.078 32.952C153.198 32.88 153.354 32.844 153.546 32.844C153.93 32.844 154.218 32.94 154.41 33.132C154.53 33.036 154.782 32.988 155.166 32.988C155.43 32.988 155.694 33.024 155.958 33.096C156.222 33.168 156.39 33.264 156.462 33.384C156.534 33.36 156.642 33.348 156.786 33.348C157.194 33.348 157.578 33.456 157.938 33.672C158.322 33.864 158.514 34.08 158.514 34.32C158.826 34.272 159.114 34.344 159.378 34.536C159.642 34.728 159.858 34.968 160.026 35.256C160.458 35.328 160.866 35.724 161.25 36.444C161.634 37.164 161.826 37.836 161.826 38.46C161.826 38.748 161.766 38.988 161.646 39.18C162.006 39.42 162.186 39.864 162.186 40.512C162.186 40.968 162.09 41.388 161.898 41.772C161.946 41.964 161.97 42.108 161.97 42.204C161.97 42.612 161.85 43.02 161.61 43.428C161.394 43.812 161.13 44.052 160.818 44.148C160.746 44.556 160.53 44.94 160.17 45.3C159.81 45.636 159.438 45.888 159.054 46.056C159.006 46.368 158.778 46.68 158.37 46.992C157.962 47.28 157.566 47.376 157.182 47.28C157.014 47.496 156.702 47.676 156.246 47.82C155.814 47.94 155.346 48 154.842 48C154.362 48 153.918 47.94 153.51 47.82C153.126 47.7 152.862 47.52 152.718 47.28C152.502 47.376 152.262 47.424 151.998 47.424C151.662 47.424 151.338 47.34 151.026 47.172C150.738 47.004 150.534 46.776 150.414 46.488C150.126 46.56 149.814 46.5 149.478 46.308C149.166 46.092 148.938 45.768 148.794 45.336C148.41 45.336 148.014 45.204 147.606 44.94C147.222 44.676 147.006 44.412 146.958 44.148C146.574 44.076 146.274 43.908 146.058 43.644C145.866 43.38 145.77 43.08 145.77 42.744C145.77 42.36 145.89 42.012 146.13 41.7C146.394 41.388 146.73 41.232 147.138 41.232C147.354 41.232 147.522 41.256 147.642 41.304C147.834 41.256 147.966 41.232 148.038 41.232C148.398 41.232 148.722 41.352 149.01 41.592C149.322 41.832 149.49 42.132 149.514 42.492C149.658 42.444 149.778 42.42 149.874 42.42C150.21 42.42 150.51 42.576 150.774 42.888C151.062 43.176 151.23 43.512 151.278 43.896C151.422 43.824 151.578 43.788 151.746 43.788C152.01 43.788 152.262 43.86 152.502 44.004C152.742 44.148 152.874 44.316 152.898 44.508C153.114 44.436 153.33 44.4 153.546 44.4C153.93 44.4 154.242 44.556 154.482 44.868C154.698 44.724 154.926 44.652 155.166 44.652C155.286 44.652 155.49 44.7 155.778 44.796C156.09 44.34 156.402 44.16 156.714 44.256C156.906 43.992 157.122 43.764 157.362 43.572C157.602 43.356 157.842 43.236 158.082 43.212C158.178 42.948 158.286 42.756 158.406 42.636C158.526 42.492 158.718 42.348 158.982 42.204C158.934 42.108 158.91 41.988 158.91 41.844C158.91 41.604 158.958 41.352 159.054 41.088C159.15 40.824 159.258 40.656 159.378 40.584C159.186 40.368 159.09 40.116 159.09 39.828C159.09 39.588 159.174 39.312 159.342 39C158.91 38.736 158.694 38.352 158.694 37.848C158.334 37.728 158.07 37.56 157.902 37.344C157.494 37.368 157.158 37.308 156.894 37.164C156.63 36.996 156.462 36.756 156.39 36.444C156.198 36.492 156.066 36.516 155.994 36.516C155.754 36.516 155.526 36.468 155.31 36.372C155.094 36.252 154.914 36.096 154.77 35.904C154.626 36.024 154.434 36.084 154.194 36.084C153.882 36.084 153.546 35.964 153.186 35.724C152.946 35.844 152.718 35.904 152.502 35.904C152.19 35.904 151.938 35.844 151.746 35.724C151.602 35.772 151.482 35.796 151.386 35.796C151.17 35.796 150.966 35.76 150.774 35.688C150.606 35.592 150.51 35.484 150.486 35.364C149.622 35.364 149.154 35.208 149.082 34.896C148.794 34.848 148.518 34.752 148.254 34.608C147.99 34.44 147.846 34.248 147.822 34.032C147.582 33.984 147.378 33.852 147.21 33.636C147.042 33.396 146.958 33.108 146.958 32.772C146.742 32.604 146.562 32.304 146.418 31.872C146.274 31.44 146.202 30.984 146.202 30.504C146.202 29.736 146.358 29.208 146.67 28.92C146.622 28.776 146.598 28.632 146.598 28.488C146.598 28.152 146.658 27.804 146.778 27.444C146.922 27.084 147.066 26.868 147.21 26.796C147.21 26.484 147.294 26.124 147.462 25.716C147.678 25.428 147.93 25.188 148.218 24.996C148.506 24.78 148.818 24.672 149.154 24.672C149.202 24.408 149.346 24.18 149.586 23.988C149.85 23.796 150.15 23.7 150.486 23.7C150.582 23.412 150.786 23.184 151.098 23.016C151.41 22.848 151.758 22.764 152.142 22.764C152.43 22.764 152.682 22.8 152.898 22.872C152.97 22.752 153.102 22.656 153.294 22.584C153.486 22.512 153.69 22.476 153.906 22.476C154.026 22.476 154.158 22.5 154.302 22.548C154.518 22.332 154.902 22.224 155.454 22.224C156.054 22.224 156.51 22.332 156.822 22.548C156.918 22.524 157.05 22.512 157.218 22.512C157.938 22.512 158.55 22.932 159.054 23.772C159.318 23.724 159.606 23.796 159.918 23.988C160.254 24.18 160.518 24.444 160.71 24.78C160.926 25.092 161.022 25.392 160.998 25.68C161.406 25.968 161.694 26.268 161.862 26.58C162.03 26.892 162.162 27.36 162.258 27.984C162.282 28.416 162.15 28.764 161.862 29.028C161.574 29.292 161.238 29.424 160.854 29.424C160.494 29.424 160.182 29.292 159.918 29.028C159.63 28.98 159.378 28.836 159.162 28.596C158.946 28.356 158.85 28.116 158.874 27.876C158.202 27.42 157.902 26.916 157.974 26.364C157.686 26.412 157.326 26.34 156.894 26.148C156.486 25.932 156.174 25.656 155.958 25.32C155.79 25.56 155.454 25.68 154.95 25.68C154.59 25.68 154.29 25.62 154.05 25.5C153.882 25.716 153.582 25.824 153.15 25.824C152.934 25.824 152.73 25.788 152.538 25.716C152.442 25.98 152.274 26.208 152.034 26.4C151.818 26.568 151.566 26.676 151.278 26.724C151.134 26.94 150.954 27.132 150.738 27.3C150.522 27.444 150.294 27.516 150.054 27.516ZM178.566 22.728C178.806 22.56 179.118 22.476 179.502 22.476C180.054 22.476 180.606 22.656 181.158 23.016C181.422 23.016 181.638 23.124 181.806 23.34C181.974 23.556 182.058 23.82 182.058 24.132C182.058 24.54 181.938 24.9 181.698 25.212C181.458 25.524 181.122 25.68 180.69 25.68C180.378 25.68 180.042 25.584 179.682 25.392C179.49 25.584 179.238 25.68 178.926 25.68C178.59 25.68 178.242 25.56 177.882 25.32C177.642 25.44 177.282 25.5 176.802 25.5C176.106 25.5 175.566 25.392 175.182 25.176C174.822 25.344 174.45 25.428 174.066 25.428C173.754 25.428 173.454 25.38 173.166 25.284C172.854 25.404 172.554 25.464 172.266 25.464C171.882 25.464 171.498 25.356 171.114 25.14C170.682 25.38 170.298 25.524 169.962 25.572C170.13 25.98 170.214 26.424 170.214 26.904C170.214 27.504 170.082 27.984 169.818 28.344C170.106 28.8 170.25 29.304 170.25 29.856C170.25 30.288 170.142 30.72 169.926 31.152C170.142 31.392 170.25 31.692 170.25 32.052C170.25 32.292 170.166 32.58 169.998 32.916C170.214 32.796 170.478 32.736 170.79 32.736C171.03 32.736 171.198 32.76 171.294 32.808C171.558 32.616 171.846 32.52 172.158 32.52C172.47 32.52 172.782 32.652 173.094 32.916C173.382 32.844 173.622 32.808 173.814 32.808C173.934 32.808 174.138 32.832 174.426 32.88C174.714 32.832 174.918 32.808 175.038 32.808C175.446 32.808 175.746 32.904 175.938 33.096C176.13 32.976 176.346 32.916 176.586 32.916C176.874 32.916 177.054 32.976 177.126 33.096C177.342 33.024 177.51 32.988 177.63 32.988C177.798 32.988 178.026 33.036 178.314 33.132C178.626 32.964 178.926 32.88 179.214 32.88C179.622 32.88 179.97 33.036 180.258 33.348C180.546 33.636 180.69 33.96 180.69 34.32C180.69 34.632 180.582 34.896 180.366 35.112C180.15 35.328 179.814 35.448 179.358 35.472C179.142 35.76 178.782 35.904 178.278 35.904C177.822 35.904 177.414 35.784 177.054 35.544C176.814 35.784 176.466 35.904 176.01 35.904C175.602 35.904 175.266 35.808 175.002 35.616C174.81 35.76 174.606 35.832 174.39 35.832C174.246 35.832 174.126 35.784 174.03 35.688C173.766 35.928 173.406 36.048 172.95 36.048C172.614 36.048 172.302 35.976 172.014 35.832C171.774 35.952 171.57 36.012 171.402 36.012C171.162 36.012 170.922 35.928 170.682 35.76C170.514 35.856 170.382 35.916 170.286 35.94C170.19 35.964 170.058 35.964 169.89 35.94C170.106 36.372 170.214 36.708 170.214 36.948C170.214 37.164 170.142 37.416 169.998 37.704C170.166 37.896 170.25 38.136 170.25 38.424C170.25 38.64 170.19 38.868 170.07 39.108C170.238 39.3 170.322 39.552 170.322 39.864C170.322 40.152 170.238 40.392 170.07 40.584C170.214 40.872 170.286 41.1 170.286 41.268C170.286 41.412 170.19 41.652 169.998 41.988C170.094 42.084 170.142 42.216 170.142 42.384C170.142 42.6 170.07 42.744 169.926 42.816C170.166 43.032 170.286 43.308 170.286 43.644C170.286 43.764 170.262 43.968 170.214 44.256L170.43 44.22C170.694 44.22 170.97 44.34 171.258 44.58C171.618 44.316 172.086 44.184 172.662 44.184C172.878 44.184 173.106 44.208 173.346 44.256C173.49 44.088 173.694 43.956 173.958 43.86C174.222 43.764 174.51 43.716 174.822 43.716C175.326 43.716 175.71 43.824 175.974 44.04C176.118 43.8 176.37 43.608 176.73 43.464C177.09 43.32 177.45 43.248 177.81 43.248C178.074 43.248 178.29 43.284 178.458 43.356C178.722 43.212 178.962 43.14 179.178 43.14C179.562 43.14 179.898 43.296 180.186 43.608C180.474 43.92 180.618 44.28 180.618 44.688C180.618 45.192 180.39 45.588 179.934 45.876C179.838 46.068 179.646 46.236 179.358 46.38C179.07 46.5 178.758 46.56 178.422 46.56C178.086 46.56 177.822 46.5 177.63 46.38C177.438 46.572 177.186 46.74 176.874 46.884C176.562 47.004 176.25 47.064 175.938 47.064C175.458 47.064 175.086 46.932 174.822 46.668C174.414 47.1 173.886 47.316 173.238 47.316C173.118 47.316 172.914 47.292 172.626 47.244C172.146 47.532 171.678 47.676 171.222 47.676C170.862 47.676 170.55 47.58 170.286 47.388C170.022 47.796 169.638 48 169.134 48C168.702 48 168.318 47.832 167.982 47.496C167.67 47.16 167.562 46.764 167.658 46.308C167.514 46.164 167.406 45.948 167.334 45.66C167.262 45.372 167.226 45.084 167.226 44.796C167.226 44.58 167.238 44.424 167.262 44.328C166.95 44.016 166.794 43.488 166.794 42.744C166.794 42.432 166.83 42.144 166.902 41.88C166.974 41.592 167.058 41.388 167.154 41.268C167.034 41.028 166.974 40.776 166.974 40.512C166.974 40.392 166.998 40.236 167.046 40.044C166.83 39.828 166.722 39.54 166.722 39.18C166.722 38.844 166.806 38.58 166.974 38.388C166.854 38.148 166.794 37.932 166.794 37.74C166.794 37.476 166.878 37.224 167.046 36.984C166.854 36.552 166.758 36.132 166.758 35.724C166.758 35.22 166.914 34.74 167.226 34.284C167.082 33.972 166.95 33.588 166.83 33.132C166.734 32.676 166.686 32.244 166.686 31.836C166.686 31.068 166.866 30.54 167.226 30.252C167.106 29.724 167.046 29.448 167.046 29.424C166.902 28.848 166.83 28.44 166.83 28.2C166.83 27.84 166.914 27.408 167.082 26.904C166.962 26.736 166.866 26.46 166.794 26.076C166.722 25.692 166.698 25.416 166.722 25.248C166.434 24.96 166.29 24.612 166.29 24.204C166.29 23.892 166.386 23.604 166.578 23.34C166.794 23.052 167.07 22.86 167.406 22.764C167.574 22.596 167.802 22.464 168.09 22.368C168.378 22.248 168.678 22.188 168.99 22.188C169.398 22.188 169.746 22.296 170.034 22.512C170.442 22.392 170.85 22.332 171.258 22.332C171.834 22.332 172.302 22.464 172.662 22.728C172.878 22.632 173.13 22.584 173.418 22.584C173.682 22.584 173.886 22.644 174.03 22.764C174.174 22.644 174.522 22.584 175.074 22.584C175.794 22.584 176.358 22.704 176.766 22.944C177.03 22.68 177.354 22.548 177.738 22.548C177.978 22.548 178.254 22.608 178.566 22.728ZM197.341 44.652C197.437 44.46 197.641 44.304 197.953 44.184C198.289 44.064 198.613 44.004 198.925 44.004C199.333 44.004 199.621 44.088 199.789 44.256C200.077 44.208 200.257 44.184 200.329 44.184C200.785 44.184 201.133 44.304 201.373 44.544C201.613 44.784 201.733 45.084 201.733 45.444C201.733 45.876 201.577 46.272 201.265 46.632C200.953 46.968 200.545 47.136 200.041 47.136C199.729 47.136 199.405 47.052 199.069 46.884C198.901 47.1 198.649 47.304 198.313 47.496C197.977 47.688 197.629 47.784 197.269 47.784C196.957 47.784 196.669 47.7 196.405 47.532C196.213 47.82 195.853 47.964 195.325 47.964C195.061 47.964 194.809 47.904 194.569 47.784C194.209 48 193.777 48.108 193.273 48.108C192.913 48.108 192.601 48.036 192.337 47.892C192.049 48.012 191.773 48.072 191.509 48.072C191.077 48.072 190.693 47.94 190.357 47.676C190.093 47.844 189.817 47.928 189.529 47.928C189.169 47.928 188.857 47.82 188.593 47.604C188.329 47.364 188.197 47.1 188.197 46.812C187.861 46.644 187.573 46.428 187.333 46.164C187.117 45.9 187.009 45.588 187.009 45.228C187.009 44.988 187.057 44.76 187.153 44.544C186.865 44.448 186.637 44.28 186.469 44.04C186.301 43.776 186.217 43.5 186.217 43.212C186.217 42.948 186.265 42.72 186.361 42.528C186.121 42.216 186.001 41.76 186.001 41.16C186.001 40.848 186.037 40.56 186.109 40.296C186.181 40.032 186.289 39.84 186.433 39.72C186.121 39.408 185.965 38.952 185.965 38.352C185.965 37.824 186.073 37.404 186.289 37.092C186.097 36.66 186.001 36.18 186.001 35.652C186.001 34.98 186.145 34.416 186.433 33.96C186.193 33.696 186.073 33.336 186.073 32.88C186.073 32.52 186.157 32.208 186.325 31.944C186.085 31.68 185.965 31.26 185.965 30.684C185.965 30.228 186.025 29.88 186.145 29.64C185.953 29.28 185.857 28.764 185.857 28.092C185.857 27.372 185.953 26.856 186.145 26.544C186.049 26.376 186.001 26.112 186.001 25.752C186.001 25.248 186.133 24.876 186.397 24.636C186.253 24.348 186.181 24.072 186.181 23.808C186.181 23.4 186.325 23.076 186.613 22.836C186.925 22.572 187.273 22.44 187.657 22.44C187.921 22.44 188.161 22.524 188.377 22.692C188.617 22.836 188.785 23.064 188.881 23.376C189.193 23.64 189.349 24.036 189.349 24.564C189.349 25.044 189.217 25.5 188.953 25.932C189.097 26.148 189.169 26.412 189.169 26.724C189.169 27.108 189.049 27.42 188.809 27.66C189.217 28.02 189.421 28.488 189.421 29.064C189.421 29.592 189.253 30.036 188.917 30.396C189.109 30.708 189.205 31.14 189.205 31.692C189.205 32.196 189.145 32.544 189.025 32.736C189.217 33.048 189.313 33.552 189.313 34.248C189.313 35.064 189.193 35.64 188.953 35.976C189.289 36.336 189.457 36.852 189.457 37.524C189.457 37.86 189.409 38.184 189.313 38.496C189.217 38.784 189.097 39.024 188.953 39.216C189.265 39.528 189.421 39.984 189.421 40.584C189.421 40.968 189.337 41.328 189.169 41.664C189.289 41.904 189.349 42.204 189.349 42.564C189.349 42.732 189.337 42.84 189.313 42.888C190.009 43.44 190.297 44.004 190.177 44.58C190.489 44.556 190.765 44.58 191.005 44.652C191.269 44.724 191.449 44.856 191.545 45.048C191.785 44.88 192.049 44.796 192.337 44.796C192.721 44.796 193.069 44.928 193.381 45.192C193.549 44.88 193.873 44.724 194.353 44.724C194.593 44.724 194.857 44.796 195.145 44.94C195.289 44.772 195.469 44.628 195.685 44.508C195.925 44.388 196.165 44.328 196.405 44.328C196.741 44.328 197.053 44.436 197.341 44.652ZM217.59 22.728C217.83 22.56 218.142 22.476 218.526 22.476C219.078 22.476 219.63 22.656 220.182 23.016C220.446 23.016 220.662 23.124 220.83 23.34C220.998 23.556 221.082 23.82 221.082 24.132C221.082 24.54 220.962 24.9 220.722 25.212C220.482 25.524 220.146 25.68 219.714 25.68C219.402 25.68 219.066 25.584 218.706 25.392C218.514 25.584 218.262 25.68 217.95 25.68C217.614 25.68 217.266 25.56 216.906 25.32C216.666 25.44 216.306 25.5 215.826 25.5C215.13 25.5 214.59 25.392 214.206 25.176C213.846 25.344 213.474 25.428 213.09 25.428C212.778 25.428 212.478 25.38 212.19 25.284C211.878 25.404 211.578 25.464 211.29 25.464C210.906 25.464 210.522 25.356 210.138 25.14C209.706 25.38 209.322 25.524 208.986 25.572C209.154 25.98 209.238 26.424 209.238 26.904C209.238 27.504 209.106 27.984 208.842 28.344C209.13 28.8 209.274 29.304 209.274 29.856C209.274 30.288 209.166 30.72 208.95 31.152C209.166 31.392 209.274 31.692 209.274 32.052C209.274 32.292 209.19 32.58 209.022 32.916C209.238 32.796 209.502 32.736 209.814 32.736C210.054 32.736 210.222 32.76 210.318 32.808C210.582 32.616 210.87 32.52 211.182 32.52C211.494 32.52 211.806 32.652 212.118 32.916C212.406 32.844 212.646 32.808 212.838 32.808C212.958 32.808 213.162 32.832 213.45 32.88C213.738 32.832 213.942 32.808 214.062 32.808C214.47 32.808 214.77 32.904 214.962 33.096C215.154 32.976 215.37 32.916 215.61 32.916C215.898 32.916 216.078 32.976 216.15 33.096C216.366 33.024 216.534 32.988 216.654 32.988C216.822 32.988 217.05 33.036 217.338 33.132C217.65 32.964 217.95 32.88 218.238 32.88C218.646 32.88 218.994 33.036 219.282 33.348C219.57 33.636 219.714 33.96 219.714 34.32C219.714 34.632 219.606 34.896 219.39 35.112C219.174 35.328 218.838 35.448 218.382 35.472C218.166 35.76 217.806 35.904 217.302 35.904C216.846 35.904 216.438 35.784 216.078 35.544C215.838 35.784 215.49 35.904 215.034 35.904C214.626 35.904 214.29 35.808 214.026 35.616C213.834 35.76 213.63 35.832 213.414 35.832C213.27 35.832 213.15 35.784 213.054 35.688C212.79 35.928 212.43 36.048 211.974 36.048C211.638 36.048 211.326 35.976 211.038 35.832C210.798 35.952 210.594 36.012 210.426 36.012C210.186 36.012 209.946 35.928 209.706 35.76C209.538 35.856 209.406 35.916 209.31 35.94C209.214 35.964 209.082 35.964 208.914 35.94C209.13 36.372 209.238 36.708 209.238 36.948C209.238 37.164 209.166 37.416 209.022 37.704C209.19 37.896 209.274 38.136 209.274 38.424C209.274 38.64 209.214 38.868 209.094 39.108C209.262 39.3 209.346 39.552 209.346 39.864C209.346 40.152 209.262 40.392 209.094 40.584C209.238 40.872 209.31 41.1 209.31 41.268C209.31 41.412 209.214 41.652 209.022 41.988C209.118 42.084 209.166 42.216 209.166 42.384C209.166 42.6 209.094 42.744 208.95 42.816C209.19 43.032 209.31 43.308 209.31 43.644C209.31 43.764 209.286 43.968 209.238 44.256L209.454 44.22C209.718 44.22 209.994 44.34 210.282 44.58C210.642 44.316 211.11 44.184 211.686 44.184C211.902 44.184 212.13 44.208 212.37 44.256C212.514 44.088 212.718 43.956 212.982 43.86C213.246 43.764 213.534 43.716 213.846 43.716C214.35 43.716 214.734 43.824 214.998 44.04C215.142 43.8 215.394 43.608 215.754 43.464C216.114 43.32 216.474 43.248 216.834 43.248C217.098 43.248 217.314 43.284 217.482 43.356C217.746 43.212 217.986 43.14 218.202 43.14C218.586 43.14 218.922 43.296 219.21 43.608C219.498 43.92 219.642 44.28 219.642 44.688C219.642 45.192 219.414 45.588 218.958 45.876C218.862 46.068 218.67 46.236 218.382 46.38C218.094 46.5 217.782 46.56 217.446 46.56C217.11 46.56 216.846 46.5 216.654 46.38C216.462 46.572 216.21 46.74 215.898 46.884C215.586 47.004 215.274 47.064 214.962 47.064C214.482 47.064 214.11 46.932 213.846 46.668C213.438 47.1 212.91 47.316 212.262 47.316C212.142 47.316 211.938 47.292 211.65 47.244C211.17 47.532 210.702 47.676 210.246 47.676C209.886 47.676 209.574 47.58 209.31 47.388C209.046 47.796 208.662 48 208.158 48C207.726 48 207.342 47.832 207.006 47.496C206.694 47.16 206.586 46.764 206.682 46.308C206.538 46.164 206.43 45.948 206.358 45.66C206.286 45.372 206.25 45.084 206.25 44.796C206.25 44.58 206.262 44.424 206.286 44.328C205.974 44.016 205.818 43.488 205.818 42.744C205.818 42.432 205.854 42.144 205.926 41.88C205.998 41.592 206.082 41.388 206.178 41.268C206.058 41.028 205.998 40.776 205.998 40.512C205.998 40.392 206.022 40.236 206.07 40.044C205.854 39.828 205.746 39.54 205.746 39.18C205.746 38.844 205.83 38.58 205.998 38.388C205.878 38.148 205.818 37.932 205.818 37.74C205.818 37.476 205.902 37.224 206.07 36.984C205.878 36.552 205.782 36.132 205.782 35.724C205.782 35.22 205.938 34.74 206.25 34.284C206.106 33.972 205.974 33.588 205.854 33.132C205.758 32.676 205.71 32.244 205.71 31.836C205.71 31.068 205.89 30.54 206.25 30.252C206.13 29.724 206.07 29.448 206.07 29.424C205.926 28.848 205.854 28.44 205.854 28.2C205.854 27.84 205.938 27.408 206.106 26.904C205.986 26.736 205.89 26.46 205.818 26.076C205.746 25.692 205.722 25.416 205.746 25.248C205.458 24.96 205.314 24.612 205.314 24.204C205.314 23.892 205.41 23.604 205.602 23.34C205.818 23.052 206.094 22.86 206.43 22.764C206.598 22.596 206.826 22.464 207.114 22.368C207.402 22.248 207.702 22.188 208.014 22.188C208.422 22.188 208.77 22.296 209.058 22.512C209.466 22.392 209.874 22.332 210.282 22.332C210.858 22.332 211.326 22.464 211.686 22.728C211.902 22.632 212.154 22.584 212.442 22.584C212.706 22.584 212.91 22.644 213.054 22.764C213.198 22.644 213.546 22.584 214.098 22.584C214.818 22.584 215.382 22.704 215.79 22.944C216.054 22.68 216.378 22.548 216.762 22.548C217.002 22.548 217.278 22.608 217.59 22.728ZM239.785 38.604C239.881 38.34 240.073 38.124 240.361 37.956C240.649 37.764 240.949 37.668 241.261 37.668C241.357 37.668 241.501 37.692 241.693 37.74C242.389 37.932 242.737 38.34 242.737 38.964C242.737 39.516 242.497 40.08 242.017 40.656C242.065 40.848 242.089 41.016 242.089 41.16C242.089 41.472 242.017 41.784 241.873 42.096C241.753 42.408 241.573 42.696 241.333 42.96C241.261 43.344 241.153 43.68 241.009 43.968C240.889 44.232 240.697 44.544 240.433 44.904C240.145 45.288 239.857 45.564 239.569 45.732C239.305 45.876 238.933 46.02 238.453 46.164C238.333 46.5 238.141 46.812 237.877 47.1C237.613 47.364 237.289 47.496 236.905 47.496C236.713 47.496 236.509 47.46 236.293 47.388C236.125 47.58 235.885 47.736 235.573 47.856C235.285 47.952 234.985 48 234.673 48C234.265 48 233.941 47.916 233.701 47.748C233.413 47.868 233.041 47.928 232.585 47.928C231.985 47.928 231.409 47.832 230.857 47.64C230.305 47.448 229.873 47.148 229.561 46.74C228.985 46.788 228.505 46.656 228.121 46.344C227.785 46.152 227.569 45.936 227.473 45.696C226.585 45.264 226.153 44.472 226.177 43.32C225.745 43.032 225.421 42.708 225.205 42.348C224.989 41.964 224.821 41.484 224.701 40.908C224.509 40.716 224.413 40.464 224.413 40.152C224.413 40.008 224.425 39.888 224.449 39.792C224.233 39.576 224.125 39.288 224.125 38.928C224.125 38.76 224.161 38.592 224.233 38.424C223.897 38.064 223.729 37.548 223.729 36.876C223.729 36.276 223.861 35.808 224.125 35.472C223.957 35.232 223.873 34.968 223.873 34.68C223.873 34.464 223.933 34.236 224.053 33.996C223.933 33.852 223.873 33.564 223.873 33.132C223.873 32.652 223.945 32.172 224.089 31.692C224.233 31.188 224.413 30.852 224.629 30.684C224.557 30.54 224.521 30.336 224.521 30.072C224.521 29.688 224.581 29.328 224.701 28.992C224.845 28.656 225.037 28.476 225.277 28.452C225.277 27.948 225.481 27.552 225.889 27.264C225.865 26.928 225.985 26.556 226.249 26.148C226.537 25.74 226.861 25.464 227.221 25.32C227.293 24.792 227.509 24.348 227.869 23.988C228.229 23.628 228.625 23.424 229.057 23.376C229.177 23.16 229.393 22.98 229.705 22.836C230.041 22.668 230.365 22.584 230.677 22.584C230.917 22.584 231.121 22.632 231.289 22.728C231.649 22.392 232.057 22.224 232.513 22.224C232.897 22.224 233.149 22.32 233.269 22.512C233.461 22.464 233.629 22.44 233.773 22.44C234.205 22.44 234.529 22.596 234.745 22.908C234.841 22.836 234.985 22.8 235.177 22.8C235.513 22.8 235.885 22.896 236.293 23.088C236.725 23.256 236.977 23.424 237.049 23.592C237.553 23.688 238.009 23.94 238.417 24.348C238.825 24.732 238.993 25.128 238.921 25.536C239.257 25.704 239.497 25.944 239.641 26.256C239.785 26.544 239.833 26.82 239.785 27.084C240.001 27.252 240.145 27.468 240.217 27.732C240.289 27.972 240.337 28.116 240.361 28.164C240.841 28.572 241.081 29.088 241.081 29.712C241.081 29.832 241.057 29.988 241.009 30.18C241.033 30.276 241.045 30.396 241.045 30.54C241.045 30.948 240.889 31.296 240.577 31.584C240.289 31.848 239.953 31.98 239.569 31.98C239.185 31.98 238.849 31.836 238.561 31.548C237.889 30.828 237.517 30.108 237.445 29.388C237.157 29.292 236.929 29.112 236.761 28.848C236.593 28.56 236.521 28.248 236.545 27.912C236.329 27.768 236.161 27.588 236.041 27.372C235.945 27.132 235.909 26.892 235.933 26.652C235.501 26.652 235.165 26.52 234.925 26.256C234.853 26.28 234.721 26.292 234.529 26.292C234.265 26.292 233.977 26.256 233.665 26.184C233.353 26.088 233.113 25.98 232.945 25.86C232.849 25.884 232.705 25.896 232.513 25.896C232.249 25.896 232.069 25.872 231.973 25.824C231.661 26.016 231.361 26.112 231.073 26.112C230.977 26.112 230.809 26.088 230.569 26.04C230.305 26.256 230.053 26.376 229.813 26.4C229.765 26.784 229.657 27.132 229.489 27.444C229.345 27.756 229.153 27.936 228.913 27.984C228.961 28.272 228.913 28.56 228.769 28.848C228.625 29.112 228.421 29.328 228.157 29.496C228.133 29.688 228.073 29.88 227.977 30.072C227.881 30.24 227.761 30.372 227.617 30.468C227.641 30.588 227.665 30.732 227.689 30.9C227.713 31.044 227.725 31.224 227.725 31.44C227.725 31.944 227.509 32.34 227.077 32.628C227.077 32.94 227.017 33.192 226.897 33.384C227.017 33.624 227.077 33.864 227.077 34.104C227.077 34.344 227.029 34.56 226.933 34.752C227.077 34.992 227.149 35.22 227.149 35.436C227.149 35.652 227.089 35.904 226.969 36.192C226.849 36.504 226.777 36.792 226.753 37.056C226.969 37.176 227.137 37.344 227.257 37.56C227.377 37.776 227.437 38.004 227.437 38.244C227.437 38.508 227.365 38.748 227.221 38.964C227.413 39.06 227.557 39.228 227.653 39.468C227.749 39.708 227.797 39.96 227.797 40.224C227.797 40.488 227.749 40.704 227.653 40.872C228.181 41.16 228.541 41.46 228.733 41.772C228.949 42.06 229.105 42.528 229.201 43.176C229.369 43.248 229.561 43.368 229.777 43.536C230.017 43.704 230.173 43.848 230.245 43.968C230.653 43.944 231.073 44.04 231.505 44.256C231.961 44.448 232.273 44.712 232.441 45.048C232.585 44.928 232.813 44.832 233.125 44.76C233.461 44.664 233.785 44.616 234.097 44.616C234.433 44.616 234.661 44.664 234.781 44.76C235.117 44.352 235.525 44.148 236.005 44.148C236.149 44.148 236.257 44.16 236.329 44.184C236.713 43.872 237.013 43.656 237.229 43.536C237.445 43.392 237.697 43.284 237.985 43.212C238.009 42.852 238.153 42.504 238.417 42.168C238.441 41.976 238.513 41.748 238.633 41.484C238.753 41.196 238.873 40.98 238.993 40.836C238.969 40.764 238.957 40.644 238.957 40.476C238.957 40.164 239.041 39.828 239.209 39.468C239.377 39.084 239.569 38.796 239.785 38.604ZM259.412 22.872C259.748 22.656 260.132 22.548 260.564 22.548C260.9 22.548 261.176 22.62 261.392 22.764C261.872 22.668 262.268 22.788 262.58 23.124C262.916 23.436 263.084 23.808 263.084 24.24C263.084 24.6 262.952 24.9 262.688 25.14C262.448 25.38 262.088 25.5 261.608 25.5C261.296 25.5 261.056 25.476 260.888 25.428C260.624 25.644 260.252 25.752 259.772 25.752C259.244 25.752 258.764 25.644 258.332 25.428C258.188 25.524 257.924 25.608 257.54 25.68C257.156 25.752 256.784 25.788 256.424 25.788C256.184 25.788 255.968 25.764 255.776 25.716C255.968 26.028 256.064 26.424 256.064 26.904C256.064 27.408 255.956 27.756 255.74 27.948C256.1 28.38 256.28 28.944 256.28 29.64C256.28 30.096 256.184 30.516 255.992 30.9C256.232 31.548 256.352 32.184 256.352 32.808C256.352 33.216 256.304 33.576 256.208 33.888C256.328 34.032 256.424 34.26 256.496 34.572C256.592 34.884 256.64 35.196 256.64 35.508C256.64 35.868 256.568 36.18 256.424 36.444C256.784 36.78 256.964 37.308 256.964 38.028C256.964 38.508 256.904 38.892 256.784 39.18C257 39.516 257.108 39.948 257.108 40.476C257.108 40.788 257.048 41.064 256.928 41.304C257.048 41.52 257.108 41.82 257.108 42.204C257.108 42.564 257.06 42.84 256.964 43.032C257.204 43.272 257.324 43.656 257.324 44.184C257.324 44.4 257.288 44.604 257.216 44.796C257.528 45.156 257.66 45.516 257.612 45.876C257.732 46.164 257.792 46.404 257.792 46.596C257.792 47.004 257.636 47.34 257.324 47.604C257.012 47.868 256.652 48 256.244 48C255.932 48 255.656 47.916 255.416 47.748C255.2 47.556 255.056 47.268 254.984 46.884C254.816 46.716 254.684 46.476 254.588 46.164C254.492 45.852 254.444 45.552 254.444 45.264C254.444 45.096 254.468 44.916 254.516 44.724C254.252 44.46 254.12 43.992 254.12 43.32C254.12 43.008 254.144 42.792 254.192 42.672C253.976 42.336 253.868 42.048 253.868 41.808C253.868 41.472 254 41.172 254.264 40.908C253.928 40.668 253.76 40.296 253.76 39.792C253.76 39.384 253.856 39.072 254.048 38.856C253.712 38.664 253.544 38.16 253.544 37.344C253.544 36.888 253.592 36.528 253.688 36.264C253.568 36.12 253.46 35.904 253.364 35.616C253.292 35.304 253.256 34.992 253.256 34.68C253.256 34.344 253.304 34.092 253.4 33.924C253.184 33.492 253.076 32.976 253.076 32.376C253.076 32.016 253.124 31.5 253.22 30.828C253.052 30.372 252.968 29.88 252.968 29.352C252.968 28.872 253.04 28.476 253.184 28.164C252.896 27.876 252.752 27.348 252.752 26.58C252.752 26.22 252.788 25.896 252.86 25.608C252.596 25.752 252.332 25.824 252.068 25.824C251.804 25.824 251.552 25.764 251.312 25.644C251.144 25.74 250.916 25.788 250.628 25.788C250.148 25.788 249.812 25.68 249.62 25.464C249.5 25.584 249.32 25.68 249.08 25.752C248.84 25.824 248.588 25.86 248.324 25.86C247.724 25.86 247.316 25.716 247.1 25.428C246.956 25.452 246.764 25.464 246.524 25.464C245.924 25.464 245.48 25.356 245.192 25.14C244.904 24.924 244.76 24.636 244.76 24.276C244.76 23.868 244.952 23.484 245.336 23.124C245.72 22.74 246.176 22.548 246.704 22.548C246.944 22.548 247.22 22.608 247.532 22.728C247.724 22.512 248.096 22.404 248.648 22.404C249.104 22.404 249.452 22.488 249.692 22.656C249.884 22.488 250.22 22.404 250.7 22.404C251.012 22.404 251.312 22.44 251.6 22.512C251.912 22.584 252.14 22.68 252.284 22.8C252.452 22.56 252.896 22.44 253.616 22.44C254.264 22.44 254.672 22.548 254.84 22.764C255.032 22.572 255.368 22.476 255.848 22.476C256.304 22.476 256.592 22.584 256.712 22.8C257 22.584 257.42 22.476 257.972 22.476C258.596 22.476 259.076 22.608 259.412 22.872Z" fill="black"/>
</svg>
