<svg width="300" height="73" viewBox="0 0 300 73" fill="none" xmlns="http://www.w3.org/2000/svg">
<path d="M55.49 40.08C55.634 40.248 55.706 40.572 55.706 41.052C55.706 41.796 55.55 42.336 55.238 42.672C55.262 42.744 55.274 42.828 55.274 42.924C55.274 43.236 55.082 43.44 54.698 43.536C54.746 43.68 54.77 43.788 54.77 43.86C54.77 44.22 54.566 44.604 54.158 45.012C53.774 45.396 53.426 45.576 53.114 45.552C52.946 45.96 52.742 46.26 52.502 46.452C52.262 46.62 51.95 46.704 51.566 46.704C51.398 46.704 51.254 46.692 51.134 46.668C51.086 46.908 50.822 47.148 50.342 47.388C49.862 47.604 49.37 47.712 48.866 47.712C48.578 47.712 48.362 47.688 48.218 47.64C48.05 47.76 47.822 47.82 47.534 47.82C47.294 47.82 47.078 47.772 46.886 47.676C46.622 47.844 46.286 47.928 45.878 47.928C45.446 47.928 45.122 47.82 44.906 47.604C44.618 47.82 44.258 47.928 43.826 47.928C43.274 47.928 42.794 47.76 42.386 47.424C41.978 47.088 41.81 46.668 41.882 46.164C41.066 45.9 40.658 45.144 40.658 43.896C40.658 43.536 40.67 43.272 40.694 43.104C40.502 42.576 40.406 41.988 40.406 41.34C40.406 40.74 40.502 40.272 40.694 39.936C40.574 39.672 40.466 39.288 40.37 38.784C40.274 38.28 40.226 37.788 40.226 37.308C40.226 36.516 40.37 35.988 40.658 35.724C40.394 35.46 40.262 35.112 40.262 34.68C40.262 34.488 40.298 34.308 40.37 34.14C40.178 33.9 40.082 33.636 40.082 33.348C40.082 32.988 40.19 32.7 40.406 32.484C40.334 32.292 40.298 32.1 40.298 31.908C40.298 31.74 40.334 31.572 40.406 31.404C40.19 31.188 40.082 30.792 40.082 30.216C40.082 29.784 40.142 29.304 40.262 28.776C39.902 28.488 39.722 27.96 39.722 27.192C39.722 26.832 39.758 26.484 39.83 26.148C39.926 25.788 40.046 25.488 40.19 25.248C39.998 25.056 39.842 24.804 39.722 24.492C39.602 24.156 39.542 23.82 39.542 23.484C39.542 23.124 39.614 22.824 39.758 22.584C40.07 22.2 40.466 22.008 40.946 22.008C41.258 22.008 41.534 22.092 41.774 22.26C42.038 22.428 42.218 22.656 42.314 22.944C42.842 22.704 43.298 22.584 43.682 22.584C44.042 22.584 44.39 22.68 44.726 22.872C44.87 22.776 45.098 22.68 45.41 22.584C45.722 22.488 46.022 22.44 46.31 22.44C46.646 22.44 46.91 22.524 47.102 22.692C47.318 22.572 47.558 22.512 47.822 22.512C48.182 22.512 48.59 22.68 49.046 23.016C49.502 22.968 49.958 23.04 50.414 23.232C50.87 23.4 51.23 23.676 51.494 24.06C51.758 23.868 52.046 23.772 52.358 23.772C52.622 23.772 52.874 23.844 53.114 23.988C53.354 24.108 53.546 24.3 53.69 24.564C53.93 24.684 54.146 24.936 54.338 25.32C54.53 25.68 54.626 26.004 54.626 26.292C54.818 26.268 54.986 26.424 55.13 26.76C55.274 27.072 55.346 27.408 55.346 27.768C55.346 28.152 55.262 28.428 55.094 28.596C55.166 28.764 55.202 28.92 55.202 29.064C55.202 29.232 55.142 29.364 55.022 29.46C55.19 29.7 55.274 29.976 55.274 30.288C55.274 30.528 55.226 30.768 55.13 31.008C55.034 31.224 54.914 31.404 54.77 31.548C54.794 31.596 54.806 31.668 54.806 31.764C54.806 32.004 54.674 32.28 54.41 32.592C54.266 32.928 54.11 33.192 53.942 33.384C53.774 33.576 53.534 33.72 53.222 33.816C53.03 34.008 52.622 34.092 51.998 34.068C52.31 34.092 52.526 34.152 52.646 34.248C52.79 34.344 52.874 34.44 52.898 34.536C52.946 34.608 52.982 34.656 53.006 34.68C53.414 34.68 53.75 34.8 54.014 35.04C54.302 35.256 54.482 35.58 54.554 36.012C54.842 36.18 55.07 36.408 55.238 36.696C55.406 36.96 55.454 37.224 55.382 37.488C55.694 37.776 55.85 38.232 55.85 38.856C55.85 39.384 55.73 39.792 55.49 40.08ZM43.286 31.872C43.406 32.04 43.466 32.28 43.466 32.592C43.466 32.88 43.406 33.12 43.286 33.312C43.406 33.528 43.466 33.78 43.466 34.068C43.802 33.66 44.174 33.456 44.582 33.456C44.798 33.456 45.014 33.528 45.23 33.672C45.398 33.432 45.686 33.312 46.094 33.312C46.502 33.312 46.934 33.408 47.39 33.6C47.678 33.36 48.098 33.18 48.65 33.06C49.226 32.916 49.658 32.868 49.946 32.916C50.186 32.604 50.546 32.292 51.026 31.98C51.506 31.668 51.866 31.488 52.106 31.44C51.914 31.128 51.818 30.768 51.818 30.36C51.818 29.784 51.926 29.34 52.142 29.028C51.926 28.74 51.746 28.356 51.602 27.876C51.482 27.372 51.446 26.964 51.494 26.652C51.35 26.7 51.218 26.724 51.098 26.724C50.858 26.724 50.618 26.664 50.378 26.544C50.162 26.424 49.994 26.256 49.874 26.04C49.73 26.088 49.49 26.112 49.154 26.112C48.578 26.112 48.17 26.016 47.93 25.824C47.69 26.16 47.222 26.328 46.526 26.328C45.806 26.328 45.17 26.16 44.618 25.824C44.378 26.064 44.006 26.184 43.502 26.184C43.238 26.184 42.938 26.136 42.602 26.04C42.794 26.184 42.938 26.484 43.034 26.94C43.154 27.396 43.214 27.864 43.214 28.344C43.214 28.824 43.178 29.172 43.106 29.388C43.346 29.652 43.466 30.144 43.466 30.864C43.466 31.248 43.406 31.584 43.286 31.872ZM51.854 42.636C51.926 42.132 52.178 41.784 52.61 41.592C52.442 41.4 52.358 41.184 52.358 40.944C52.358 40.824 52.37 40.68 52.394 40.512C52.442 40.344 52.478 40.188 52.502 40.044C52.358 39.972 52.202 39.708 52.034 39.252C51.89 38.772 51.818 38.34 51.818 37.956C51.818 37.764 51.83 37.632 51.854 37.56C51.566 37.56 51.29 37.452 51.026 37.236C50.786 36.996 50.594 36.732 50.45 36.444C49.802 36.684 49.298 36.804 48.938 36.804C48.674 36.804 48.338 36.744 47.93 36.624C47.546 36.888 47.15 37.02 46.742 37.02C46.478 37.02 46.214 36.972 45.95 36.876C45.326 37.188 44.738 37.344 44.186 37.344C43.922 37.344 43.646 37.308 43.358 37.236C43.55 37.5 43.646 38.04 43.646 38.856C43.646 39.768 43.55 40.536 43.358 41.16C43.598 41.424 43.718 41.832 43.718 42.384C43.718 42.696 43.67 43.068 43.574 43.5C43.838 43.524 44.066 43.644 44.258 43.86C44.474 44.076 44.606 44.316 44.654 44.58C44.798 44.532 44.918 44.508 45.014 44.508C45.206 44.508 45.374 44.544 45.518 44.616C45.686 44.688 45.794 44.772 45.842 44.868C46.082 44.628 46.394 44.508 46.778 44.508C46.97 44.508 47.186 44.568 47.426 44.688C47.666 44.52 47.918 44.436 48.182 44.436C48.398 44.436 48.59 44.472 48.758 44.544C48.878 44.328 49.07 44.16 49.334 44.04C49.598 43.92 49.874 43.86 50.162 43.86C50.378 43.86 50.558 43.896 50.702 43.968C50.774 43.296 51.158 42.852 51.854 42.636ZM78.9406 29.784C79.0606 29.88 79.1566 30.036 79.2286 30.252C79.3006 30.444 79.3366 30.648 79.3366 30.864C79.3366 31.248 79.2526 31.5 79.0846 31.62C79.3006 31.86 79.4086 32.136 79.4086 32.448C79.4086 32.784 79.2646 33.06 78.9766 33.276C79.1206 33.372 79.1926 33.528 79.1926 33.744C79.1926 33.912 79.1446 34.092 79.0486 34.284C78.9526 34.452 78.8326 34.596 78.6886 34.716C78.7606 35.004 78.7966 35.232 78.7966 35.4C78.7966 35.664 78.7486 35.916 78.6526 36.156C78.5806 36.396 78.4726 36.564 78.3286 36.66C78.5446 36.828 78.6526 37.092 78.6526 37.452C78.6526 37.716 78.5806 37.992 78.4366 38.28C78.3166 38.544 78.1486 38.748 77.9326 38.892C77.9566 39.636 77.7166 40.32 77.2126 40.944C77.1646 41.304 77.0326 41.64 76.8166 41.952C76.6006 42.264 76.3486 42.456 76.0606 42.528C76.0846 42.624 76.0966 42.768 76.0966 42.96C76.0966 43.776 75.5446 44.376 74.4406 44.76L74.4766 44.904C74.4766 45.096 74.4046 45.276 74.2606 45.444C74.1166 45.612 73.9606 45.708 73.7926 45.732C73.5766 46.284 73.0006 46.668 72.0646 46.884C71.9446 47.148 71.7526 47.364 71.4886 47.532C71.2246 47.676 70.9246 47.736 70.5886 47.712C70.2286 47.904 69.8446 48 69.4366 48C68.9326 48 68.4646 47.832 68.0326 47.496C67.7926 47.64 67.4446 47.712 66.9886 47.712C66.4366 47.712 65.8966 47.592 65.3686 47.352C64.8646 47.112 64.5406 46.8 64.3966 46.416C63.7246 46.272 63.3646 45.864 63.3166 45.192C62.6926 44.688 62.3686 44.196 62.3446 43.716C62.0086 43.692 61.7086 43.464 61.4446 43.032C61.1806 42.576 61.0486 42.12 61.0486 41.664C61.0486 41.424 61.0846 41.232 61.1566 41.088C60.9886 40.968 60.8446 40.776 60.7246 40.512C60.6286 40.248 60.5806 39.96 60.5806 39.648C60.5806 39.336 60.6286 39.048 60.7246 38.784C60.4846 38.496 60.3646 38.196 60.3646 37.884C60.3646 37.812 60.3886 37.68 60.4366 37.488C60.1966 37.248 60.0766 36.852 60.0766 36.3C60.0766 35.916 60.1366 35.604 60.2566 35.364C60.0646 35.1 59.9686 34.764 59.9686 34.356C59.9686 33.972 60.0646 33.648 60.2566 33.384C60.0406 33.12 59.9326 32.772 59.9326 32.34C59.9326 31.932 60.0166 31.632 60.1846 31.44C59.9926 31.176 59.8966 30.828 59.8966 30.396C59.8966 29.892 60.0286 29.508 60.2926 29.244C60.0526 28.98 59.9326 28.5 59.9326 27.804C59.9326 27.252 60.0166 26.856 60.1846 26.616C59.9446 26.256 59.8246 25.92 59.8246 25.608C59.8246 25.272 59.9446 24.924 60.1846 24.564C60.0646 24.276 60.0046 24.036 60.0046 23.844C60.0046 23.34 60.2686 22.932 60.7966 22.62C61.0366 22.5 61.2646 22.44 61.4806 22.44C61.8886 22.44 62.2366 22.596 62.5246 22.908C62.8366 23.22 62.9926 23.592 62.9926 24.024C62.9926 24.168 62.9806 24.276 62.9566 24.348C63.2206 24.612 63.3526 24.936 63.3526 25.32C63.3526 25.68 63.2206 26.016 62.9566 26.328C62.9806 26.424 63.0286 26.592 63.1006 26.832C63.1726 27.072 63.2086 27.288 63.2086 27.48C63.2086 27.744 63.1366 27.972 62.9926 28.164C63.1366 28.452 63.2086 28.884 63.2086 29.46C63.2086 29.988 63.1366 30.36 62.9926 30.576C63.1366 30.816 63.2086 31.26 63.2086 31.908C63.2086 32.508 63.1366 32.916 62.9926 33.132C63.1606 33.636 63.2446 34.032 63.2446 34.32C63.2446 34.656 63.1606 34.944 62.9926 35.184C63.1126 35.4 63.1486 35.652 63.1006 35.94C63.2686 36.084 63.4006 36.276 63.4966 36.516C63.6166 36.732 63.6766 36.972 63.6766 37.236C63.6766 37.356 63.6286 37.56 63.5326 37.848C63.7246 38.328 63.8206 38.712 63.8206 39C63.8206 39.216 63.7726 39.408 63.6766 39.576C63.7966 39.648 63.8926 39.78 63.9646 39.972C64.0606 40.14 64.1086 40.32 64.1086 40.512C64.1086 40.68 64.0726 40.836 64.0006 40.98C64.2886 41.004 64.5286 41.184 64.7206 41.52C64.9366 41.832 65.0206 42.144 64.9726 42.456C65.4526 42.576 65.7886 43.08 65.9806 43.968C66.1966 44.016 66.4966 44.16 66.8806 44.4C67.2646 44.616 67.5166 44.808 67.6366 44.976C67.9006 44.712 68.2366 44.58 68.6446 44.58C68.9566 44.58 69.2566 44.652 69.5446 44.796C69.6406 44.508 69.9406 44.256 70.4446 44.04C70.9726 43.8 71.3806 43.704 71.6686 43.752C71.7406 43.44 71.9086 43.14 72.1726 42.852C72.4366 42.564 72.7486 42.336 73.1086 42.168C73.1326 41.688 73.2886 41.22 73.5766 40.764C73.8886 40.308 74.2246 39.984 74.5846 39.792C74.5606 39.72 74.5486 39.588 74.5486 39.396C74.5486 39.036 74.6326 38.652 74.8006 38.244C74.9686 37.812 75.1726 37.524 75.4126 37.38C75.2446 37.14 75.1606 36.84 75.1606 36.48C75.1606 36.144 75.2206 35.808 75.3406 35.472C75.4606 35.136 75.5926 34.896 75.7366 34.752C75.6406 34.56 75.5926 34.32 75.5926 34.032C75.5926 33.456 75.7606 33.036 76.0966 32.772C75.9526 32.508 75.8806 32.208 75.8806 31.872C75.8806 31.32 76.0006 30.888 76.2406 30.576C76.0966 30.288 76.0246 29.928 76.0246 29.496C76.0246 29.208 76.0726 29.016 76.1686 28.92C76.0006 28.656 75.9166 28.308 75.9166 27.876C75.9166 27.636 75.9526 27.444 76.0246 27.3C75.9046 27.204 75.7966 27.06 75.7006 26.868C75.6286 26.676 75.5926 26.472 75.5926 26.256C75.5926 25.92 75.6886 25.68 75.8806 25.536C75.5206 25.344 75.3406 24.984 75.3406 24.456C75.3406 24.12 75.4246 23.832 75.5926 23.592C75.5446 23.304 75.5206 23.124 75.5206 23.052C75.5206 22.668 75.6406 22.38 75.8806 22.188C76.1206 21.972 76.4086 21.864 76.7446 21.864C77.1046 21.864 77.4286 21.996 77.7166 22.26C78.0286 22.5 78.1846 22.836 78.1846 23.268C78.1846 23.508 78.1366 23.76 78.0406 24.024C78.4006 24.216 78.5806 24.6 78.5806 25.176C78.5806 25.464 78.5566 25.68 78.5086 25.824C78.7486 26.088 78.8686 26.484 78.8686 27.012C78.8686 27.372 78.8086 27.648 78.6886 27.84C78.9526 28.176 79.0846 28.584 79.0846 29.064C79.0846 29.352 79.0366 29.592 78.9406 29.784ZM87.9086 27.84C88.0286 28.32 88.0886 28.716 88.0886 29.028C88.0886 29.148 88.0646 29.448 88.0166 29.928C88.1366 30.168 88.1966 30.54 88.1966 31.044C88.1966 31.476 88.1366 31.812 88.0166 32.052C88.1366 32.292 88.1966 32.52 88.1966 32.736C88.1966 33.048 88.0886 33.348 87.8726 33.636C88.0406 34.044 88.1246 34.464 88.1246 34.896C88.1246 35.232 88.0646 35.604 87.9446 36.012C88.0886 36.252 88.1606 36.552 88.1606 36.912C88.1606 37.272 88.0766 37.668 87.9086 38.1C88.1006 38.364 88.1966 38.64 88.1966 38.928C88.1966 39.216 88.1006 39.492 87.9086 39.756C88.0046 39.924 88.0526 40.116 88.0526 40.332C88.0526 40.548 87.9926 40.776 87.8726 41.016C88.0646 41.352 88.1606 41.604 88.1606 41.772C88.1606 41.916 88.0766 42.12 87.9086 42.384C88.0046 42.72 88.0526 42.972 88.0526 43.14C88.0526 43.5 87.9206 43.812 87.6566 44.076C87.9446 44.58 88.0886 45.192 88.0886 45.912C88.0886 46.8 87.8366 47.412 87.3326 47.748C87.0926 47.916 86.8406 48 86.5766 48C86.1206 48 85.7366 47.796 85.4246 47.388C85.1366 46.956 84.9926 46.488 84.9926 45.984C84.9926 45.744 85.0286 45.516 85.1006 45.3C84.8846 45.012 84.7766 44.604 84.7766 44.076C84.7766 43.548 84.8846 43.164 85.1006 42.924C85.0526 42.804 85.0286 42.636 85.0286 42.42C85.0286 42.252 85.0406 42.12 85.0646 42.024C84.9446 41.832 84.8846 41.58 84.8846 41.268C84.8846 40.884 84.9806 40.56 85.1726 40.296C84.9806 40.104 84.8846 39.852 84.8846 39.54C84.8846 39.324 84.9446 39.096 85.0646 38.856C84.9686 38.664 84.9206 38.352 84.9206 37.92C84.9206 37.392 85.0406 37.056 85.2806 36.912C85.0406 36.48 84.9206 36.06 84.9206 35.652C84.9206 35.436 84.9806 35.232 85.1006 35.04C84.9326 34.704 84.8486 34.32 84.8486 33.888C84.8486 33.384 84.9686 32.964 85.2086 32.628C85.1126 32.412 85.0646 32.208 85.0646 32.016C85.0646 31.848 85.1366 31.656 85.2806 31.44C85.0886 31.176 84.9926 30.888 84.9926 30.576C84.9926 30.312 85.0646 30.132 85.2086 30.036C85.0406 29.844 84.9566 29.556 84.9566 29.172C84.9566 28.884 85.0286 28.668 85.1726 28.524C84.9566 28.188 84.8486 27.708 84.8486 27.084C84.8486 26.532 84.9326 26.148 85.1006 25.932C84.8846 25.548 84.7766 25.116 84.7766 24.636C84.7766 24.204 84.8726 23.892 85.0646 23.7C85.0886 23.292 85.2446 22.968 85.5326 22.728C85.8206 22.464 86.1566 22.332 86.5406 22.332C86.8046 22.332 87.0446 22.404 87.2606 22.548C87.7166 22.812 87.9446 23.22 87.9446 23.772C87.9446 24.228 87.8246 24.672 87.5846 25.104C87.8966 25.656 88.0526 26.268 88.0526 26.94C88.0526 27.276 88.0046 27.576 87.9086 27.84ZM105.953 44.652C106.049 44.46 106.253 44.304 106.565 44.184C106.901 44.064 107.225 44.004 107.537 44.004C107.945 44.004 108.233 44.088 108.401 44.256C108.689 44.208 108.869 44.184 108.941 44.184C109.397 44.184 109.745 44.304 109.985 44.544C110.225 44.784 110.345 45.084 110.345 45.444C110.345 45.876 110.189 46.272 109.877 46.632C109.565 46.968 109.157 47.136 108.653 47.136C108.341 47.136 108.017 47.052 107.681 46.884C107.513 47.1 107.261 47.304 106.925 47.496C106.589 47.688 106.241 47.784 105.881 47.784C105.569 47.784 105.281 47.7 105.017 47.532C104.825 47.82 104.465 47.964 103.937 47.964C103.673 47.964 103.421 47.904 103.181 47.784C102.821 48 102.389 48.108 101.885 48.108C101.525 48.108 101.213 48.036 100.949 47.892C100.661 48.012 100.385 48.072 100.121 48.072C99.6887 48.072 99.3047 47.94 98.9687 47.676C98.7047 47.844 98.4287 47.928 98.1407 47.928C97.7807 47.928 97.4687 47.82 97.2047 47.604C96.9407 47.364 96.8087 47.1 96.8087 46.812C96.4727 46.644 96.1847 46.428 95.9447 46.164C95.7287 45.9 95.6207 45.588 95.6207 45.228C95.6207 44.988 95.6687 44.76 95.7647 44.544C95.4767 44.448 95.2487 44.28 95.0807 44.04C94.9127 43.776 94.8287 43.5 94.8287 43.212C94.8287 42.948 94.8767 42.72 94.9727 42.528C94.7327 42.216 94.6127 41.76 94.6127 41.16C94.6127 40.848 94.6487 40.56 94.7207 40.296C94.7927 40.032 94.9007 39.84 95.0447 39.72C94.7327 39.408 94.5767 38.952 94.5767 38.352C94.5767 37.824 94.6847 37.404 94.9007 37.092C94.7087 36.66 94.6127 36.18 94.6127 35.652C94.6127 34.98 94.7567 34.416 95.0447 33.96C94.8047 33.696 94.6847 33.336 94.6847 32.88C94.6847 32.52 94.7687 32.208 94.9367 31.944C94.6967 31.68 94.5767 31.26 94.5767 30.684C94.5767 30.228 94.6367 29.88 94.7567 29.64C94.5647 29.28 94.4687 28.764 94.4687 28.092C94.4687 27.372 94.5647 26.856 94.7567 26.544C94.6607 26.376 94.6127 26.112 94.6127 25.752C94.6127 25.248 94.7447 24.876 95.0087 24.636C94.8647 24.348 94.7927 24.072 94.7927 23.808C94.7927 23.4 94.9367 23.076 95.2247 22.836C95.5367 22.572 95.8847 22.44 96.2687 22.44C96.5327 22.44 96.7727 22.524 96.9887 22.692C97.2287 22.836 97.3967 23.064 97.4927 23.376C97.8047 23.64 97.9607 24.036 97.9607 24.564C97.9607 25.044 97.8287 25.5 97.5647 25.932C97.7087 26.148 97.7807 26.412 97.7807 26.724C97.7807 27.108 97.6607 27.42 97.4207 27.66C97.8287 28.02 98.0327 28.488 98.0327 29.064C98.0327 29.592 97.8647 30.036 97.5287 30.396C97.7207 30.708 97.8167 31.14 97.8167 31.692C97.8167 32.196 97.7567 32.544 97.6367 32.736C97.8287 33.048 97.9247 33.552 97.9247 34.248C97.9247 35.064 97.8047 35.64 97.5647 35.976C97.9007 36.336 98.0687 36.852 98.0687 37.524C98.0687 37.86 98.0207 38.184 97.9247 38.496C97.8287 38.784 97.7087 39.024 97.5647 39.216C97.8767 39.528 98.0327 39.984 98.0327 40.584C98.0327 40.968 97.9487 41.328 97.7807 41.664C97.9007 41.904 97.9607 42.204 97.9607 42.564C97.9607 42.732 97.9487 42.84 97.9247 42.888C98.6207 43.44 98.9087 44.004 98.7887 44.58C99.1007 44.556 99.3767 44.58 99.6167 44.652C99.8807 44.724 100.061 44.856 100.157 45.048C100.397 44.88 100.661 44.796 100.949 44.796C101.333 44.796 101.681 44.928 101.993 45.192C102.161 44.88 102.485 44.724 102.965 44.724C103.205 44.724 103.469 44.796 103.757 44.94C103.901 44.772 104.081 44.628 104.297 44.508C104.537 44.388 104.777 44.328 105.017 44.328C105.353 44.328 105.665 44.436 105.953 44.652ZM130.017 26.22C130.497 26.34 130.953 26.616 131.385 27.048C131.841 27.48 132.057 27.9 132.033 28.308C132.321 28.476 132.573 28.776 132.789 29.208C133.005 29.616 133.113 30.012 133.113 30.396C133.113 30.684 133.041 30.924 132.897 31.116C132.993 31.404 133.041 31.74 133.041 32.124C133.041 32.508 132.981 32.88 132.861 33.24C133.029 33.576 133.113 33.984 133.113 34.464C133.113 34.92 133.017 35.34 132.825 35.724C132.657 36.108 132.405 36.372 132.069 36.516C132.045 36.756 131.949 37.032 131.781 37.344C131.613 37.656 131.457 37.884 131.313 38.028L131.349 38.352C131.349 38.784 131.217 39.12 130.953 39.36C130.737 39.576 130.557 39.708 130.413 39.756C130.437 39.996 130.353 40.212 130.161 40.404C129.969 40.572 129.717 40.704 129.405 40.8C129.357 41.088 129.261 41.304 129.117 41.448C128.973 41.592 128.745 41.712 128.433 41.808C128.361 42.048 128.217 42.264 128.001 42.456C127.809 42.624 127.581 42.732 127.317 42.78C127.173 43.164 126.993 43.428 126.777 43.572C126.585 43.692 126.285 43.752 125.877 43.752C125.805 44.544 125.301 45.108 124.365 45.444C124.221 45.684 124.041 45.852 123.825 45.948C123.633 46.044 123.417 46.116 123.177 46.164C122.961 46.212 122.805 46.248 122.709 46.272C122.397 46.536 121.989 46.788 121.485 47.028C120.981 47.244 120.489 47.352 120.009 47.352C119.769 47.352 119.541 47.316 119.325 47.244C119.181 47.46 118.953 47.64 118.641 47.784C118.353 47.928 118.053 48 117.741 48C117.429 48 117.153 47.916 116.913 47.748C116.025 47.748 115.581 47.232 115.581 46.2C115.581 46.032 115.605 45.78 115.653 45.444C115.269 45.108 115.077 44.712 115.077 44.256C115.077 43.944 115.161 43.668 115.329 43.428C115.209 43.14 115.149 42.924 115.149 42.78C115.149 42.612 115.233 42.384 115.401 42.096C115.089 41.544 114.933 40.92 114.933 40.224C114.933 39.624 115.065 39.132 115.329 38.748C115.089 38.244 114.969 37.68 114.969 37.056C114.969 36.312 115.137 35.604 115.473 34.932C115.329 34.692 115.197 34.38 115.077 33.996C114.981 33.588 114.933 33.192 114.933 32.808C114.933 32.208 115.065 31.74 115.329 31.404C115.161 31.188 115.017 30.9 114.897 30.54C114.801 30.18 114.753 29.82 114.753 29.46C114.753 28.98 114.849 28.608 115.041 28.344C115.017 28.272 115.005 28.164 115.005 28.02C115.005 27.732 115.065 27.492 115.185 27.3C115.017 26.94 114.957 26.436 115.005 25.788C114.549 25.5 114.321 25.092 114.321 24.564C114.321 24.3 114.393 24.048 114.537 23.808C114.681 23.568 114.885 23.388 115.149 23.268C115.245 23.028 115.413 22.836 115.653 22.692C115.893 22.548 116.145 22.476 116.409 22.476C116.745 22.476 117.045 22.572 117.309 22.764C117.477 22.524 117.849 22.404 118.425 22.404C118.737 22.404 118.989 22.44 119.181 22.512C119.397 22.584 119.517 22.68 119.541 22.8C120.021 22.68 120.489 22.62 120.945 22.62C121.569 22.62 122.073 22.716 122.457 22.908C122.673 22.764 122.925 22.692 123.213 22.692C123.669 22.692 124.017 22.836 124.257 23.124C124.449 23.076 124.605 23.052 124.725 23.052C125.109 23.052 125.469 23.172 125.805 23.412C126.165 23.652 126.393 23.952 126.489 24.312C126.729 24.192 126.957 24.132 127.173 24.132C127.485 24.132 127.773 24.216 128.037 24.384C128.325 24.552 128.541 24.744 128.685 24.96C128.997 24.96 129.273 25.08 129.513 25.32C129.777 25.536 129.945 25.836 130.017 26.22ZM120.189 44.184C120.333 43.968 120.597 43.8 120.981 43.68C121.389 43.56 121.773 43.5 122.133 43.5C122.445 43.044 122.805 42.816 123.213 42.816C123.213 42.48 123.345 42.216 123.609 42.024C123.897 41.808 124.281 41.604 124.761 41.412C124.809 41.028 124.977 40.68 125.265 40.368C125.577 40.056 125.901 39.912 126.237 39.936C126.429 39.672 126.681 39.48 126.993 39.36C127.161 38.928 127.425 38.628 127.785 38.46C127.857 38.004 128.085 37.668 128.469 37.452C128.517 37.14 128.613 36.84 128.757 36.552C128.901 36.24 129.057 36.036 129.225 35.94C129.273 35.508 129.369 35.088 129.513 34.68C129.657 34.248 129.849 33.996 130.089 33.924C130.017 33.732 129.981 33.54 129.981 33.348C129.981 33.228 130.005 33.048 130.053 32.808C129.885 32.568 129.801 32.04 129.801 31.224C129.801 30.792 129.837 30.468 129.909 30.252C129.885 30.204 129.801 30.108 129.657 29.964C129.537 29.82 129.477 29.664 129.477 29.496C129.309 29.448 129.177 29.352 129.081 29.208C128.985 29.064 128.913 28.968 128.865 28.92C128.505 28.92 128.193 28.788 127.929 28.524C127.665 28.26 127.509 27.936 127.461 27.552C127.269 27.576 127.029 27.54 126.741 27.444C126.477 27.324 126.273 27.168 126.129 26.976C125.841 27.048 125.469 27 125.013 26.832C124.581 26.64 124.317 26.352 124.221 25.968C124.149 25.992 124.017 26.004 123.825 26.004C123.489 26.004 123.201 25.92 122.961 25.752C122.745 25.848 122.493 25.896 122.205 25.896C121.725 25.896 121.269 25.764 120.837 25.5C120.429 25.668 120.009 25.752 119.577 25.752C119.097 25.752 118.689 25.632 118.353 25.392C118.209 25.464 118.041 25.5 117.849 25.5C117.825 25.5 117.813 25.512 117.813 25.536C117.909 25.632 117.981 25.836 118.029 26.148C118.101 26.436 118.137 26.772 118.137 27.156C118.137 28.116 118.017 28.728 117.777 28.992C117.897 29.184 118.005 29.544 118.101 30.072C118.197 30.576 118.245 31.092 118.245 31.62C118.245 32.34 118.161 32.868 117.993 33.204C118.161 33.516 118.245 33.948 118.245 34.5C118.245 35.196 118.101 35.748 117.813 36.156C117.981 36.636 118.089 37.296 118.137 38.136L118.209 38.964C118.233 39.18 118.221 39.444 118.173 39.756C118.125 40.068 118.101 40.344 118.101 40.584C118.101 40.824 118.137 41.076 118.209 41.34C118.257 41.676 118.281 41.928 118.281 42.096C118.281 42.312 118.245 42.516 118.173 42.708C118.269 42.828 118.365 43.032 118.461 43.32C118.557 43.608 118.569 43.848 118.497 44.04C118.761 43.896 119.025 43.824 119.289 43.824C119.697 43.824 119.997 43.944 120.189 44.184ZM156.648 44.652C156.744 44.46 156.948 44.304 157.26 44.184C157.596 44.064 157.92 44.004 158.232 44.004C158.64 44.004 158.928 44.088 159.096 44.256C159.384 44.208 159.564 44.184 159.636 44.184C160.092 44.184 160.44 44.304 160.68 44.544C160.92 44.784 161.04 45.084 161.04 45.444C161.04 45.876 160.884 46.272 160.572 46.632C160.26 46.968 159.852 47.136 159.348 47.136C159.036 47.136 158.712 47.052 158.376 46.884C158.208 47.1 157.956 47.304 157.62 47.496C157.284 47.688 156.936 47.784 156.576 47.784C156.264 47.784 155.976 47.7 155.712 47.532C155.52 47.82 155.16 47.964 154.632 47.964C154.368 47.964 154.116 47.904 153.876 47.784C153.516 48 153.084 48.108 152.58 48.108C152.22 48.108 151.908 48.036 151.644 47.892C151.356 48.012 151.08 48.072 150.816 48.072C150.384 48.072 150 47.94 149.664 47.676C149.4 47.844 149.124 47.928 148.836 47.928C148.476 47.928 148.164 47.82 147.9 47.604C147.636 47.364 147.504 47.1 147.504 46.812C147.168 46.644 146.88 46.428 146.64 46.164C146.424 45.9 146.316 45.588 146.316 45.228C146.316 44.988 146.364 44.76 146.46 44.544C146.172 44.448 145.944 44.28 145.776 44.04C145.608 43.776 145.524 43.5 145.524 43.212C145.524 42.948 145.572 42.72 145.668 42.528C145.428 42.216 145.308 41.76 145.308 41.16C145.308 40.848 145.344 40.56 145.416 40.296C145.488 40.032 145.596 39.84 145.74 39.72C145.428 39.408 145.272 38.952 145.272 38.352C145.272 37.824 145.38 37.404 145.596 37.092C145.404 36.66 145.308 36.18 145.308 35.652C145.308 34.98 145.452 34.416 145.74 33.96C145.5 33.696 145.38 33.336 145.38 32.88C145.38 32.52 145.464 32.208 145.632 31.944C145.392 31.68 145.272 31.26 145.272 30.684C145.272 30.228 145.332 29.88 145.452 29.64C145.26 29.28 145.164 28.764 145.164 28.092C145.164 27.372 145.26 26.856 145.452 26.544C145.356 26.376 145.308 26.112 145.308 25.752C145.308 25.248 145.44 24.876 145.704 24.636C145.56 24.348 145.488 24.072 145.488 23.808C145.488 23.4 145.632 23.076 145.92 22.836C146.232 22.572 146.58 22.44 146.964 22.44C147.228 22.44 147.468 22.524 147.684 22.692C147.924 22.836 148.092 23.064 148.188 23.376C148.5 23.64 148.656 24.036 148.656 24.564C148.656 25.044 148.524 25.5 148.26 25.932C148.404 26.148 148.476 26.412 148.476 26.724C148.476 27.108 148.356 27.42 148.116 27.66C148.524 28.02 148.728 28.488 148.728 29.064C148.728 29.592 148.56 30.036 148.224 30.396C148.416 30.708 148.512 31.14 148.512 31.692C148.512 32.196 148.452 32.544 148.332 32.736C148.524 33.048 148.62 33.552 148.62 34.248C148.62 35.064 148.5 35.64 148.26 35.976C148.596 36.336 148.764 36.852 148.764 37.524C148.764 37.86 148.716 38.184 148.62 38.496C148.524 38.784 148.404 39.024 148.26 39.216C148.572 39.528 148.728 39.984 148.728 40.584C148.728 40.968 148.644 41.328 148.476 41.664C148.596 41.904 148.656 42.204 148.656 42.564C148.656 42.732 148.644 42.84 148.62 42.888C149.316 43.44 149.604 44.004 149.484 44.58C149.796 44.556 150.072 44.58 150.312 44.652C150.576 44.724 150.756 44.856 150.852 45.048C151.092 44.88 151.356 44.796 151.644 44.796C152.028 44.796 152.376 44.928 152.688 45.192C152.856 44.88 153.18 44.724 153.66 44.724C153.9 44.724 154.164 44.796 154.452 44.94C154.596 44.772 154.776 44.628 154.992 44.508C155.232 44.388 155.472 44.328 155.712 44.328C156.048 44.328 156.36 44.436 156.648 44.652ZM176.896 22.728C177.136 22.56 177.448 22.476 177.832 22.476C178.384 22.476 178.936 22.656 179.488 23.016C179.752 23.016 179.968 23.124 180.136 23.34C180.304 23.556 180.388 23.82 180.388 24.132C180.388 24.54 180.268 24.9 180.028 25.212C179.788 25.524 179.452 25.68 179.02 25.68C178.708 25.68 178.372 25.584 178.012 25.392C177.82 25.584 177.568 25.68 177.256 25.68C176.92 25.68 176.572 25.56 176.212 25.32C175.972 25.44 175.612 25.5 175.132 25.5C174.436 25.5 173.896 25.392 173.512 25.176C173.152 25.344 172.78 25.428 172.396 25.428C172.084 25.428 171.784 25.38 171.496 25.284C171.184 25.404 170.884 25.464 170.596 25.464C170.212 25.464 169.828 25.356 169.444 25.14C169.012 25.38 168.628 25.524 168.292 25.572C168.46 25.98 168.544 26.424 168.544 26.904C168.544 27.504 168.412 27.984 168.148 28.344C168.436 28.8 168.58 29.304 168.58 29.856C168.58 30.288 168.472 30.72 168.256 31.152C168.472 31.392 168.58 31.692 168.58 32.052C168.58 32.292 168.496 32.58 168.328 32.916C168.544 32.796 168.808 32.736 169.12 32.736C169.36 32.736 169.528 32.76 169.624 32.808C169.888 32.616 170.176 32.52 170.488 32.52C170.8 32.52 171.112 32.652 171.424 32.916C171.712 32.844 171.952 32.808 172.144 32.808C172.264 32.808 172.468 32.832 172.756 32.88C173.044 32.832 173.248 32.808 173.368 32.808C173.776 32.808 174.076 32.904 174.268 33.096C174.46 32.976 174.676 32.916 174.916 32.916C175.204 32.916 175.384 32.976 175.456 33.096C175.672 33.024 175.84 32.988 175.96 32.988C176.128 32.988 176.356 33.036 176.644 33.132C176.956 32.964 177.256 32.88 177.544 32.88C177.952 32.88 178.3 33.036 178.588 33.348C178.876 33.636 179.02 33.96 179.02 34.32C179.02 34.632 178.912 34.896 178.696 35.112C178.48 35.328 178.144 35.448 177.688 35.472C177.472 35.76 177.112 35.904 176.608 35.904C176.152 35.904 175.744 35.784 175.384 35.544C175.144 35.784 174.796 35.904 174.34 35.904C173.932 35.904 173.596 35.808 173.332 35.616C173.14 35.76 172.936 35.832 172.72 35.832C172.576 35.832 172.456 35.784 172.36 35.688C172.096 35.928 171.736 36.048 171.28 36.048C170.944 36.048 170.632 35.976 170.344 35.832C170.104 35.952 169.9 36.012 169.732 36.012C169.492 36.012 169.252 35.928 169.012 35.76C168.844 35.856 168.712 35.916 168.616 35.94C168.52 35.964 168.388 35.964 168.22 35.94C168.436 36.372 168.544 36.708 168.544 36.948C168.544 37.164 168.472 37.416 168.328 37.704C168.496 37.896 168.58 38.136 168.58 38.424C168.58 38.64 168.52 38.868 168.4 39.108C168.568 39.3 168.652 39.552 168.652 39.864C168.652 40.152 168.568 40.392 168.4 40.584C168.544 40.872 168.616 41.1 168.616 41.268C168.616 41.412 168.52 41.652 168.328 41.988C168.424 42.084 168.472 42.216 168.472 42.384C168.472 42.6 168.4 42.744 168.256 42.816C168.496 43.032 168.616 43.308 168.616 43.644C168.616 43.764 168.592 43.968 168.544 44.256L168.76 44.22C169.024 44.22 169.3 44.34 169.588 44.58C169.948 44.316 170.416 44.184 170.992 44.184C171.208 44.184 171.436 44.208 171.676 44.256C171.82 44.088 172.024 43.956 172.288 43.86C172.552 43.764 172.84 43.716 173.152 43.716C173.656 43.716 174.04 43.824 174.304 44.04C174.448 43.8 174.7 43.608 175.06 43.464C175.42 43.32 175.78 43.248 176.14 43.248C176.404 43.248 176.62 43.284 176.788 43.356C177.052 43.212 177.292 43.14 177.508 43.14C177.892 43.14 178.228 43.296 178.516 43.608C178.804 43.92 178.948 44.28 178.948 44.688C178.948 45.192 178.72 45.588 178.264 45.876C178.168 46.068 177.976 46.236 177.688 46.38C177.4 46.5 177.088 46.56 176.752 46.56C176.416 46.56 176.152 46.5 175.96 46.38C175.768 46.572 175.516 46.74 175.204 46.884C174.892 47.004 174.58 47.064 174.268 47.064C173.788 47.064 173.416 46.932 173.152 46.668C172.744 47.1 172.216 47.316 171.568 47.316C171.448 47.316 171.244 47.292 170.956 47.244C170.476 47.532 170.008 47.676 169.552 47.676C169.192 47.676 168.88 47.58 168.616 47.388C168.352 47.796 167.968 48 167.464 48C167.032 48 166.648 47.832 166.312 47.496C166 47.16 165.892 46.764 165.988 46.308C165.844 46.164 165.736 45.948 165.664 45.66C165.592 45.372 165.556 45.084 165.556 44.796C165.556 44.58 165.568 44.424 165.592 44.328C165.28 44.016 165.124 43.488 165.124 42.744C165.124 42.432 165.16 42.144 165.232 41.88C165.304 41.592 165.388 41.388 165.484 41.268C165.364 41.028 165.304 40.776 165.304 40.512C165.304 40.392 165.328 40.236 165.376 40.044C165.16 39.828 165.052 39.54 165.052 39.18C165.052 38.844 165.136 38.58 165.304 38.388C165.184 38.148 165.124 37.932 165.124 37.74C165.124 37.476 165.208 37.224 165.376 36.984C165.184 36.552 165.088 36.132 165.088 35.724C165.088 35.22 165.244 34.74 165.556 34.284C165.412 33.972 165.28 33.588 165.16 33.132C165.064 32.676 165.016 32.244 165.016 31.836C165.016 31.068 165.196 30.54 165.556 30.252C165.436 29.724 165.376 29.448 165.376 29.424C165.232 28.848 165.16 28.44 165.16 28.2C165.16 27.84 165.244 27.408 165.412 26.904C165.292 26.736 165.196 26.46 165.124 26.076C165.052 25.692 165.028 25.416 165.052 25.248C164.764 24.96 164.62 24.612 164.62 24.204C164.62 23.892 164.716 23.604 164.908 23.34C165.124 23.052 165.4 22.86 165.736 22.764C165.904 22.596 166.132 22.464 166.42 22.368C166.708 22.248 167.008 22.188 167.32 22.188C167.728 22.188 168.076 22.296 168.364 22.512C168.772 22.392 169.18 22.332 169.588 22.332C170.164 22.332 170.632 22.464 170.992 22.728C171.208 22.632 171.46 22.584 171.748 22.584C172.012 22.584 172.216 22.644 172.36 22.764C172.504 22.644 172.852 22.584 173.404 22.584C174.124 22.584 174.688 22.704 175.096 22.944C175.36 22.68 175.684 22.548 176.068 22.548C176.308 22.548 176.584 22.608 176.896 22.728ZM199.595 22.044C200.003 22.14 200.315 22.332 200.531 22.62C200.747 22.908 200.855 23.244 200.855 23.628C200.855 24.228 200.627 24.756 200.171 25.212C200.363 25.38 200.459 25.668 200.459 26.076C200.459 26.484 200.375 26.892 200.207 27.3C200.039 27.708 199.859 27.96 199.667 28.056C199.907 28.368 200.027 28.776 200.027 29.28C200.027 29.736 199.931 30.168 199.739 30.576C199.571 30.96 199.343 31.2 199.055 31.296C199.199 31.536 199.271 31.848 199.271 32.232C199.271 32.544 199.211 32.856 199.091 33.168C198.971 33.456 198.803 33.672 198.587 33.816C198.683 33.936 198.731 34.152 198.731 34.464C198.731 34.848 198.647 35.232 198.479 35.616C198.311 35.976 198.071 36.24 197.759 36.408C197.951 36.648 198.047 36.924 198.047 37.236C198.047 37.572 197.963 37.908 197.795 38.244C197.651 38.556 197.459 38.784 197.219 38.928C197.387 39.264 197.471 39.66 197.471 40.116C197.471 40.62 197.399 41.1 197.255 41.556C197.111 42.012 196.919 42.336 196.679 42.528C196.727 42.768 196.751 42.948 196.751 43.068C196.751 43.548 196.547 43.968 196.139 44.328C196.163 44.616 196.091 44.976 195.923 45.408C195.779 45.816 195.611 46.14 195.419 46.38C195.467 46.812 195.287 47.184 194.879 47.496C194.495 47.808 194.039 47.964 193.511 47.964C193.007 47.964 192.575 47.808 192.215 47.496C191.855 47.16 191.651 46.644 191.603 45.948C191.315 45.78 191.087 45.564 190.919 45.3C190.751 45.012 190.667 44.712 190.667 44.4C190.667 44.208 190.703 44.028 190.775 43.86C190.487 43.74 190.259 43.548 190.091 43.284C189.947 42.996 189.899 42.696 189.947 42.384C189.611 42.024 189.443 41.544 189.443 40.944C189.443 40.68 189.455 40.488 189.479 40.368C189.119 40.152 188.843 39.876 188.651 39.54C188.483 39.18 188.399 38.808 188.399 38.424C188.399 38.208 188.411 38.052 188.435 37.956C187.979 37.62 187.751 37.128 187.751 36.48C187.751 36.264 187.763 36.096 187.787 35.976C187.547 35.88 187.343 35.664 187.175 35.328C187.031 34.968 186.971 34.62 186.995 34.284C186.803 34.14 186.623 33.864 186.455 33.456C186.287 33.024 186.203 32.628 186.203 32.268C185.675 32.076 185.411 31.632 185.411 30.936C185.411 30.768 185.435 30.564 185.483 30.324C184.931 29.94 184.655 29.52 184.655 29.064C184.655 28.92 184.667 28.8 184.691 28.704C184.523 28.536 184.379 28.32 184.259 28.056C184.139 27.768 184.079 27.492 184.079 27.228C184.079 27.108 184.103 26.976 184.151 26.832C183.935 26.712 183.755 26.508 183.611 26.22C183.491 25.908 183.431 25.596 183.431 25.284C183.431 24.9 183.515 24.66 183.683 24.564C183.395 24.132 183.251 23.748 183.251 23.412C183.251 23.028 183.383 22.716 183.647 22.476C183.911 22.236 184.235 22.116 184.619 22.116C185.051 22.116 185.423 22.308 185.735 22.692C186.071 23.076 186.251 23.64 186.275 24.384C186.563 24.576 186.791 24.876 186.959 25.284C187.151 25.668 187.247 26.052 187.247 26.436C187.247 26.604 187.235 26.736 187.211 26.832C187.427 26.976 187.595 27.168 187.715 27.408C187.835 27.624 187.895 27.852 187.895 28.092C187.895 28.356 187.835 28.584 187.715 28.776C188.291 29.16 188.579 29.64 188.579 30.216C188.579 30.336 188.555 30.516 188.507 30.756C188.699 30.852 188.855 31.032 188.975 31.296C189.119 31.56 189.191 31.848 189.191 32.16C189.191 32.328 189.179 32.46 189.155 32.556C189.635 32.868 189.875 33.42 189.875 34.212C190.139 34.284 190.403 34.536 190.667 34.968C190.931 35.376 191.063 35.808 191.063 36.264L191.027 36.588C191.267 36.78 191.459 37.092 191.603 37.524C191.747 37.932 191.795 38.316 191.747 38.676C191.963 38.844 192.107 39.084 192.179 39.396C192.275 39.684 192.347 40.044 192.395 40.476C192.659 40.644 192.851 40.872 192.971 41.16C193.115 41.424 193.163 41.7 193.115 41.988C193.379 42.324 193.511 42.684 193.511 43.068C193.631 42.996 193.703 42.9 193.727 42.78C193.655 41.604 193.835 40.884 194.267 40.62C194.099 40.38 194.015 40.08 194.015 39.72C194.015 39.408 194.075 39.12 194.195 38.856C194.339 38.568 194.495 38.376 194.663 38.28C194.615 38.136 194.591 37.992 194.591 37.848C194.591 37.56 194.639 37.26 194.735 36.948C194.855 36.636 194.999 36.432 195.167 36.336C195.095 36.144 195.059 35.952 195.059 35.76C195.059 35.184 195.251 34.752 195.635 34.464C195.515 34.32 195.455 34.092 195.455 33.78C195.455 33.42 195.527 33.048 195.671 32.664C195.839 32.256 196.019 31.956 196.211 31.764C196.091 31.404 196.031 31.068 196.031 30.756C196.031 30.084 196.247 29.52 196.679 29.064C196.607 28.848 196.571 28.596 196.571 28.308C196.571 27.828 196.667 27.396 196.859 27.012C197.075 26.628 197.351 26.436 197.687 26.436C197.327 25.956 197.147 25.5 197.147 25.068C197.147 24.588 197.351 24.18 197.759 23.844C197.735 23.724 197.723 23.568 197.723 23.376C197.723 22.944 197.831 22.608 198.047 22.368C198.287 22.104 198.623 21.972 199.055 21.972C199.175 21.972 199.355 21.996 199.595 22.044ZM217.15 22.728C217.39 22.56 217.702 22.476 218.086 22.476C218.638 22.476 219.19 22.656 219.742 23.016C220.006 23.016 220.222 23.124 220.39 23.34C220.558 23.556 220.642 23.82 220.642 24.132C220.642 24.54 220.522 24.9 220.282 25.212C220.042 25.524 219.706 25.68 219.274 25.68C218.962 25.68 218.626 25.584 218.266 25.392C218.074 25.584 217.822 25.68 217.51 25.68C217.174 25.68 216.826 25.56 216.466 25.32C216.226 25.44 215.866 25.5 215.386 25.5C214.69 25.5 214.15 25.392 213.766 25.176C213.406 25.344 213.034 25.428 212.65 25.428C212.338 25.428 212.038 25.38 211.75 25.284C211.438 25.404 211.138 25.464 210.85 25.464C210.466 25.464 210.082 25.356 209.698 25.14C209.266 25.38 208.882 25.524 208.546 25.572C208.714 25.98 208.798 26.424 208.798 26.904C208.798 27.504 208.666 27.984 208.402 28.344C208.69 28.8 208.834 29.304 208.834 29.856C208.834 30.288 208.726 30.72 208.51 31.152C208.726 31.392 208.834 31.692 208.834 32.052C208.834 32.292 208.75 32.58 208.582 32.916C208.798 32.796 209.062 32.736 209.374 32.736C209.614 32.736 209.782 32.76 209.878 32.808C210.142 32.616 210.43 32.52 210.742 32.52C211.054 32.52 211.366 32.652 211.678 32.916C211.966 32.844 212.206 32.808 212.398 32.808C212.518 32.808 212.722 32.832 213.01 32.88C213.298 32.832 213.502 32.808 213.622 32.808C214.03 32.808 214.33 32.904 214.522 33.096C214.714 32.976 214.93 32.916 215.17 32.916C215.458 32.916 215.638 32.976 215.71 33.096C215.926 33.024 216.094 32.988 216.214 32.988C216.382 32.988 216.61 33.036 216.898 33.132C217.21 32.964 217.51 32.88 217.798 32.88C218.206 32.88 218.554 33.036 218.842 33.348C219.13 33.636 219.274 33.96 219.274 34.32C219.274 34.632 219.166 34.896 218.95 35.112C218.734 35.328 218.398 35.448 217.942 35.472C217.726 35.76 217.366 35.904 216.862 35.904C216.406 35.904 215.998 35.784 215.638 35.544C215.398 35.784 215.05 35.904 214.594 35.904C214.186 35.904 213.85 35.808 213.586 35.616C213.394 35.76 213.19 35.832 212.974 35.832C212.83 35.832 212.71 35.784 212.614 35.688C212.35 35.928 211.99 36.048 211.534 36.048C211.198 36.048 210.886 35.976 210.598 35.832C210.358 35.952 210.154 36.012 209.986 36.012C209.746 36.012 209.506 35.928 209.266 35.76C209.098 35.856 208.966 35.916 208.87 35.94C208.774 35.964 208.642 35.964 208.474 35.94C208.69 36.372 208.798 36.708 208.798 36.948C208.798 37.164 208.726 37.416 208.582 37.704C208.75 37.896 208.834 38.136 208.834 38.424C208.834 38.64 208.774 38.868 208.654 39.108C208.822 39.3 208.906 39.552 208.906 39.864C208.906 40.152 208.822 40.392 208.654 40.584C208.798 40.872 208.87 41.1 208.87 41.268C208.87 41.412 208.774 41.652 208.582 41.988C208.678 42.084 208.726 42.216 208.726 42.384C208.726 42.6 208.654 42.744 208.51 42.816C208.75 43.032 208.87 43.308 208.87 43.644C208.87 43.764 208.846 43.968 208.798 44.256L209.014 44.22C209.278 44.22 209.554 44.34 209.842 44.58C210.202 44.316 210.67 44.184 211.246 44.184C211.462 44.184 211.69 44.208 211.93 44.256C212.074 44.088 212.278 43.956 212.542 43.86C212.806 43.764 213.094 43.716 213.406 43.716C213.91 43.716 214.294 43.824 214.558 44.04C214.702 43.8 214.954 43.608 215.314 43.464C215.674 43.32 216.034 43.248 216.394 43.248C216.658 43.248 216.874 43.284 217.042 43.356C217.306 43.212 217.546 43.14 217.762 43.14C218.146 43.14 218.482 43.296 218.77 43.608C219.058 43.92 219.202 44.28 219.202 44.688C219.202 45.192 218.974 45.588 218.518 45.876C218.422 46.068 218.23 46.236 217.942 46.38C217.654 46.5 217.342 46.56 217.006 46.56C216.67 46.56 216.406 46.5 216.214 46.38C216.022 46.572 215.77 46.74 215.458 46.884C215.146 47.004 214.834 47.064 214.522 47.064C214.042 47.064 213.67 46.932 213.406 46.668C212.998 47.1 212.47 47.316 211.822 47.316C211.702 47.316 211.498 47.292 211.21 47.244C210.73 47.532 210.262 47.676 209.806 47.676C209.446 47.676 209.134 47.58 208.87 47.388C208.606 47.796 208.222 48 207.718 48C207.286 48 206.902 47.832 206.566 47.496C206.254 47.16 206.146 46.764 206.242 46.308C206.098 46.164 205.99 45.948 205.918 45.66C205.846 45.372 205.81 45.084 205.81 44.796C205.81 44.58 205.822 44.424 205.846 44.328C205.534 44.016 205.378 43.488 205.378 42.744C205.378 42.432 205.414 42.144 205.486 41.88C205.558 41.592 205.642 41.388 205.738 41.268C205.618 41.028 205.558 40.776 205.558 40.512C205.558 40.392 205.582 40.236 205.63 40.044C205.414 39.828 205.306 39.54 205.306 39.18C205.306 38.844 205.39 38.58 205.558 38.388C205.438 38.148 205.378 37.932 205.378 37.74C205.378 37.476 205.462 37.224 205.63 36.984C205.438 36.552 205.342 36.132 205.342 35.724C205.342 35.22 205.498 34.74 205.81 34.284C205.666 33.972 205.534 33.588 205.414 33.132C205.318 32.676 205.27 32.244 205.27 31.836C205.27 31.068 205.45 30.54 205.81 30.252C205.69 29.724 205.63 29.448 205.63 29.424C205.486 28.848 205.414 28.44 205.414 28.2C205.414 27.84 205.498 27.408 205.666 26.904C205.546 26.736 205.45 26.46 205.378 26.076C205.306 25.692 205.282 25.416 205.306 25.248C205.018 24.96 204.874 24.612 204.874 24.204C204.874 23.892 204.97 23.604 205.162 23.34C205.378 23.052 205.654 22.86 205.99 22.764C206.158 22.596 206.386 22.464 206.674 22.368C206.962 22.248 207.262 22.188 207.574 22.188C207.982 22.188 208.33 22.296 208.618 22.512C209.026 22.392 209.434 22.332 209.842 22.332C210.418 22.332 210.886 22.464 211.246 22.728C211.462 22.632 211.714 22.584 212.002 22.584C212.266 22.584 212.47 22.644 212.614 22.764C212.758 22.644 213.106 22.584 213.658 22.584C214.378 22.584 214.942 22.704 215.35 22.944C215.614 22.68 215.938 22.548 216.322 22.548C216.562 22.548 216.838 22.608 217.15 22.728ZM235.925 44.652C236.021 44.46 236.225 44.304 236.537 44.184C236.873 44.064 237.197 44.004 237.509 44.004C237.917 44.004 238.205 44.088 238.373 44.256C238.661 44.208 238.841 44.184 238.913 44.184C239.369 44.184 239.717 44.304 239.957 44.544C240.197 44.784 240.317 45.084 240.317 45.444C240.317 45.876 240.161 46.272 239.849 46.632C239.537 46.968 239.129 47.136 238.625 47.136C238.313 47.136 237.989 47.052 237.653 46.884C237.485 47.1 237.233 47.304 236.897 47.496C236.561 47.688 236.213 47.784 235.853 47.784C235.541 47.784 235.253 47.7 234.989 47.532C234.797 47.82 234.437 47.964 233.909 47.964C233.645 47.964 233.393 47.904 233.153 47.784C232.793 48 232.361 48.108 231.857 48.108C231.497 48.108 231.185 48.036 230.921 47.892C230.633 48.012 230.357 48.072 230.093 48.072C229.661 48.072 229.277 47.94 228.941 47.676C228.677 47.844 228.401 47.928 228.113 47.928C227.753 47.928 227.441 47.82 227.177 47.604C226.913 47.364 226.781 47.1 226.781 46.812C226.445 46.644 226.157 46.428 225.917 46.164C225.701 45.9 225.593 45.588 225.593 45.228C225.593 44.988 225.641 44.76 225.737 44.544C225.449 44.448 225.221 44.28 225.053 44.04C224.885 43.776 224.801 43.5 224.801 43.212C224.801 42.948 224.849 42.72 224.945 42.528C224.705 42.216 224.585 41.76 224.585 41.16C224.585 40.848 224.621 40.56 224.693 40.296C224.765 40.032 224.873 39.84 225.017 39.72C224.705 39.408 224.549 38.952 224.549 38.352C224.549 37.824 224.657 37.404 224.873 37.092C224.681 36.66 224.585 36.18 224.585 35.652C224.585 34.98 224.729 34.416 225.017 33.96C224.777 33.696 224.657 33.336 224.657 32.88C224.657 32.52 224.741 32.208 224.909 31.944C224.669 31.68 224.549 31.26 224.549 30.684C224.549 30.228 224.609 29.88 224.729 29.64C224.537 29.28 224.441 28.764 224.441 28.092C224.441 27.372 224.537 26.856 224.729 26.544C224.633 26.376 224.585 26.112 224.585 25.752C224.585 25.248 224.717 24.876 224.981 24.636C224.837 24.348 224.765 24.072 224.765 23.808C224.765 23.4 224.909 23.076 225.197 22.836C225.509 22.572 225.857 22.44 226.241 22.44C226.505 22.44 226.745 22.524 226.961 22.692C227.201 22.836 227.369 23.064 227.465 23.376C227.777 23.64 227.933 24.036 227.933 24.564C227.933 25.044 227.801 25.5 227.537 25.932C227.681 26.148 227.753 26.412 227.753 26.724C227.753 27.108 227.633 27.42 227.393 27.66C227.801 28.02 228.005 28.488 228.005 29.064C228.005 29.592 227.837 30.036 227.501 30.396C227.693 30.708 227.789 31.14 227.789 31.692C227.789 32.196 227.729 32.544 227.609 32.736C227.801 33.048 227.897 33.552 227.897 34.248C227.897 35.064 227.777 35.64 227.537 35.976C227.873 36.336 228.041 36.852 228.041 37.524C228.041 37.86 227.993 38.184 227.897 38.496C227.801 38.784 227.681 39.024 227.537 39.216C227.849 39.528 228.005 39.984 228.005 40.584C228.005 40.968 227.921 41.328 227.753 41.664C227.873 41.904 227.933 42.204 227.933 42.564C227.933 42.732 227.921 42.84 227.897 42.888C228.593 43.44 228.881 44.004 228.761 44.58C229.073 44.556 229.349 44.58 229.589 44.652C229.853 44.724 230.033 44.856 230.129 45.048C230.369 44.88 230.633 44.796 230.921 44.796C231.305 44.796 231.653 44.928 231.965 45.192C232.133 44.88 232.457 44.724 232.937 44.724C233.177 44.724 233.441 44.796 233.729 44.94C233.873 44.772 234.053 44.628 234.269 44.508C234.509 44.388 234.749 44.328 234.989 44.328C235.325 44.328 235.637 44.436 235.925 44.652ZM248.65 27.516C248.722 27.588 248.758 27.708 248.758 27.876C248.758 28.092 248.674 28.332 248.506 28.596C248.362 28.86 248.17 29.064 247.93 29.208C247.978 29.256 248.002 29.4 248.002 29.64C248.002 29.88 247.978 30.108 247.93 30.324C247.906 30.516 247.882 30.648 247.858 30.72C247.93 30.792 248.002 30.948 248.074 31.188C248.146 31.428 248.194 31.62 248.218 31.764C248.434 31.764 248.638 31.836 248.83 31.98C249.022 32.124 249.166 32.328 249.262 32.592C249.286 32.568 249.346 32.556 249.442 32.556C249.586 32.556 249.754 32.58 249.946 32.628C250.138 32.676 250.294 32.724 250.414 32.772C250.486 32.7 250.642 32.664 250.882 32.664C251.29 32.664 251.554 32.76 251.674 32.952C251.794 32.88 251.95 32.844 252.142 32.844C252.526 32.844 252.814 32.94 253.006 33.132C253.126 33.036 253.378 32.988 253.762 32.988C254.026 32.988 254.29 33.024 254.554 33.096C254.818 33.168 254.986 33.264 255.058 33.384C255.13 33.36 255.238 33.348 255.382 33.348C255.79 33.348 256.174 33.456 256.534 33.672C256.918 33.864 257.11 34.08 257.11 34.32C257.422 34.272 257.71 34.344 257.974 34.536C258.238 34.728 258.454 34.968 258.622 35.256C259.054 35.328 259.462 35.724 259.846 36.444C260.23 37.164 260.422 37.836 260.422 38.46C260.422 38.748 260.362 38.988 260.242 39.18C260.602 39.42 260.782 39.864 260.782 40.512C260.782 40.968 260.686 41.388 260.494 41.772C260.542 41.964 260.566 42.108 260.566 42.204C260.566 42.612 260.446 43.02 260.206 43.428C259.99 43.812 259.726 44.052 259.414 44.148C259.342 44.556 259.126 44.94 258.766 45.3C258.406 45.636 258.034 45.888 257.65 46.056C257.602 46.368 257.374 46.68 256.966 46.992C256.558 47.28 256.162 47.376 255.778 47.28C255.61 47.496 255.298 47.676 254.842 47.82C254.41 47.94 253.942 48 253.438 48C252.958 48 252.514 47.94 252.106 47.82C251.722 47.7 251.458 47.52 251.314 47.28C251.098 47.376 250.858 47.424 250.594 47.424C250.258 47.424 249.934 47.34 249.622 47.172C249.334 47.004 249.13 46.776 249.01 46.488C248.722 46.56 248.41 46.5 248.074 46.308C247.762 46.092 247.534 45.768 247.39 45.336C247.006 45.336 246.61 45.204 246.202 44.94C245.818 44.676 245.602 44.412 245.554 44.148C245.17 44.076 244.87 43.908 244.654 43.644C244.462 43.38 244.366 43.08 244.366 42.744C244.366 42.36 244.486 42.012 244.726 41.7C244.99 41.388 245.326 41.232 245.734 41.232C245.95 41.232 246.118 41.256 246.238 41.304C246.43 41.256 246.562 41.232 246.634 41.232C246.994 41.232 247.318 41.352 247.606 41.592C247.918 41.832 248.086 42.132 248.11 42.492C248.254 42.444 248.374 42.42 248.47 42.42C248.806 42.42 249.106 42.576 249.37 42.888C249.658 43.176 249.826 43.512 249.874 43.896C250.018 43.824 250.174 43.788 250.342 43.788C250.606 43.788 250.858 43.86 251.098 44.004C251.338 44.148 251.47 44.316 251.494 44.508C251.71 44.436 251.926 44.4 252.142 44.4C252.526 44.4 252.838 44.556 253.078 44.868C253.294 44.724 253.522 44.652 253.762 44.652C253.882 44.652 254.086 44.7 254.374 44.796C254.686 44.34 254.998 44.16 255.31 44.256C255.502 43.992 255.718 43.764 255.958 43.572C256.198 43.356 256.438 43.236 256.678 43.212C256.774 42.948 256.882 42.756 257.002 42.636C257.122 42.492 257.314 42.348 257.578 42.204C257.53 42.108 257.506 41.988 257.506 41.844C257.506 41.604 257.554 41.352 257.65 41.088C257.746 40.824 257.854 40.656 257.974 40.584C257.782 40.368 257.686 40.116 257.686 39.828C257.686 39.588 257.77 39.312 257.938 39C257.506 38.736 257.29 38.352 257.29 37.848C256.93 37.728 256.666 37.56 256.498 37.344C256.09 37.368 255.754 37.308 255.49 37.164C255.226 36.996 255.058 36.756 254.986 36.444C254.794 36.492 254.662 36.516 254.59 36.516C254.35 36.516 254.122 36.468 253.906 36.372C253.69 36.252 253.51 36.096 253.366 35.904C253.222 36.024 253.03 36.084 252.79 36.084C252.478 36.084 252.142 35.964 251.782 35.724C251.542 35.844 251.314 35.904 251.098 35.904C250.786 35.904 250.534 35.844 250.342 35.724C250.198 35.772 250.078 35.796 249.982 35.796C249.766 35.796 249.562 35.76 249.37 35.688C249.202 35.592 249.106 35.484 249.082 35.364C248.218 35.364 247.75 35.208 247.678 34.896C247.39 34.848 247.114 34.752 246.85 34.608C246.586 34.44 246.442 34.248 246.418 34.032C246.178 33.984 245.974 33.852 245.806 33.636C245.638 33.396 245.554 33.108 245.554 32.772C245.338 32.604 245.158 32.304 245.014 31.872C244.87 31.44 244.798 30.984 244.798 30.504C244.798 29.736 244.954 29.208 245.266 28.92C245.218 28.776 245.194 28.632 245.194 28.488C245.194 28.152 245.254 27.804 245.374 27.444C245.518 27.084 245.662 26.868 245.806 26.796C245.806 26.484 245.89 26.124 246.058 25.716C246.274 25.428 246.526 25.188 246.814 24.996C247.102 24.78 247.414 24.672 247.75 24.672C247.798 24.408 247.942 24.18 248.182 23.988C248.446 23.796 248.746 23.7 249.082 23.7C249.178 23.412 249.382 23.184 249.694 23.016C250.006 22.848 250.354 22.764 250.738 22.764C251.026 22.764 251.278 22.8 251.494 22.872C251.566 22.752 251.698 22.656 251.89 22.584C252.082 22.512 252.286 22.476 252.502 22.476C252.622 22.476 252.754 22.5 252.898 22.548C253.114 22.332 253.498 22.224 254.05 22.224C254.65 22.224 255.106 22.332 255.418 22.548C255.514 22.524 255.646 22.512 255.814 22.512C256.534 22.512 257.146 22.932 257.65 23.772C257.914 23.724 258.202 23.796 258.514 23.988C258.85 24.18 259.114 24.444 259.306 24.78C259.522 25.092 259.618 25.392 259.594 25.68C260.002 25.968 260.29 26.268 260.458 26.58C260.626 26.892 260.758 27.36 260.854 27.984C260.878 28.416 260.746 28.764 260.458 29.028C260.17 29.292 259.834 29.424 259.45 29.424C259.09 29.424 258.778 29.292 258.514 29.028C258.226 28.98 257.974 28.836 257.758 28.596C257.542 28.356 257.446 28.116 257.47 27.876C256.798 27.42 256.498 26.916 256.57 26.364C256.282 26.412 255.922 26.34 255.49 26.148C255.082 25.932 254.77 25.656 254.554 25.32C254.386 25.56 254.05 25.68 253.546 25.68C253.186 25.68 252.886 25.62 252.646 25.5C252.478 25.716 252.178 25.824 251.746 25.824C251.53 25.824 251.326 25.788 251.134 25.716C251.038 25.98 250.87 26.208 250.63 26.4C250.414 26.568 250.162 26.676 249.874 26.724C249.73 26.94 249.55 27.132 249.334 27.3C249.118 27.444 248.89 27.516 248.65 27.516Z" fill="black"/>
</svg>
