<svg width="300" height="73" viewBox="0 0 300 73" fill="none" xmlns="http://www.w3.org/2000/svg">
<path d="M63.3787 24.924C63.4987 25.092 63.5587 25.356 63.5587 25.716C63.5587 25.98 63.5107 26.244 63.4147 26.508C63.3427 26.772 63.2347 26.976 63.0907 27.12C63.0907 27.528 63.0547 27.864 62.9827 28.128C62.9107 28.392 62.7907 28.632 62.6227 28.848C62.6707 29.04 62.6947 29.196 62.6947 29.316C62.6947 29.628 62.6347 29.94 62.5147 30.252C62.4187 30.54 62.2867 30.756 62.1187 30.9C62.2387 31.14 62.2987 31.392 62.2987 31.656C62.2987 31.896 62.2507 32.148 62.1547 32.412C62.0587 32.652 61.9387 32.856 61.7947 33.024C61.8907 33.216 61.9387 33.456 61.9387 33.744C61.9387 34.008 61.8907 34.284 61.7947 34.572C61.6987 34.836 61.5667 35.052 61.3987 35.22C61.4227 35.34 61.4347 35.532 61.4347 35.796C61.4347 36.324 61.2907 36.78 61.0027 37.164C61.1227 37.452 61.1827 37.704 61.1827 37.92C61.1827 38.352 61.0027 38.772 60.6427 39.18C60.7627 39.54 60.8227 39.828 60.8227 40.044C60.8227 40.5 60.6187 40.86 60.2107 41.124C60.2587 41.196 60.2827 41.316 60.2827 41.484C60.2827 41.748 60.2107 42.024 60.0667 42.312C59.9227 42.6 59.7667 42.792 59.5987 42.888C59.6947 43.08 59.7427 43.236 59.7427 43.356C59.7427 43.596 59.6707 43.836 59.5267 44.076C59.4067 44.316 59.2387 44.448 59.0227 44.472C59.1187 44.64 59.1667 44.844 59.1667 45.084C59.1667 45.42 59.0707 45.732 58.8787 46.02C58.7107 46.308 58.4947 46.488 58.2307 46.56C58.2307 47.016 58.1107 47.376 57.8707 47.64C57.6307 47.88 57.3427 48 57.0067 48C56.6947 48 56.4067 47.892 56.1427 47.676C55.8787 47.436 55.7347 47.124 55.7107 46.74C55.5187 46.62 55.3267 46.368 55.1347 45.984C54.9427 45.6 54.8467 45.228 54.8467 44.868C54.8467 44.652 54.8827 44.472 54.9547 44.328C54.6427 44.208 54.3787 44.004 54.1627 43.716C53.9707 43.404 53.8747 43.068 53.8747 42.708C53.8747 42.612 53.8987 42.468 53.9467 42.276C53.5867 42.084 53.2987 41.82 53.0827 41.484C52.8667 41.148 52.7587 40.788 52.7587 40.404C52.7587 40.212 52.7947 40.008 52.8667 39.792C52.1227 39.384 51.7507 38.712 51.7507 37.776C51.7507 37.176 51.8467 36.684 52.0387 36.3C51.4627 36.108 51.1747 35.676 51.1747 35.004C51.1747 34.836 51.1867 34.716 51.2107 34.644C50.9947 34.548 50.7907 34.296 50.5987 33.888C50.4307 33.456 50.3467 33.072 50.3467 32.736C50.3467 32.472 50.4067 32.28 50.5267 32.16C50.3347 32.112 50.1667 31.956 50.0227 31.692C49.9027 31.428 49.8427 31.14 49.8427 30.828C49.8427 30.636 49.8787 30.456 49.9507 30.288C49.8547 30.192 49.7827 30.06 49.7347 29.892C49.7587 30.348 49.6747 30.792 49.4827 31.224C49.3147 31.632 49.0747 31.932 48.7627 32.124C48.8827 32.268 48.9427 32.472 48.9427 32.736C48.9427 33.024 48.8707 33.336 48.7267 33.672C48.5827 33.984 48.4387 34.236 48.2947 34.428C48.3667 34.596 48.4027 34.8 48.4027 35.04C48.4027 35.352 48.3427 35.652 48.2227 35.94C48.1267 36.204 47.9827 36.42 47.7907 36.588C47.8387 36.708 47.8627 36.912 47.8627 37.2C47.8627 37.56 47.7907 37.932 47.6467 38.316C47.5267 38.676 47.3467 38.964 47.1067 39.18C47.1787 39.42 47.2147 39.66 47.2147 39.9C47.2147 40.212 47.1547 40.5 47.0347 40.764C46.9147 41.028 46.7467 41.232 46.5307 41.376C46.5787 41.832 46.5067 42.312 46.3147 42.816C46.1467 43.32 45.8827 43.656 45.5227 43.824C45.6667 44.064 45.7387 44.34 45.7387 44.652C45.7387 45.012 45.6427 45.372 45.4507 45.732C45.2587 46.068 45.0187 46.308 44.7307 46.452C44.7067 46.836 44.5507 47.184 44.2627 47.496C43.9987 47.808 43.6627 47.964 43.2547 47.964C42.7027 47.964 42.2347 47.736 41.8507 47.28C41.4907 46.824 41.3107 46.296 41.3107 45.696C41.3107 45.36 41.3827 45.048 41.5267 44.76C41.2627 44.64 41.0467 44.424 40.8787 44.112C40.7347 43.8 40.6627 43.476 40.6627 43.14C40.6627 42.9 40.6987 42.696 40.7707 42.528C40.6027 42.36 40.4707 42.132 40.3747 41.844C40.2787 41.556 40.2307 41.256 40.2307 40.944C40.2307 40.656 40.2667 40.428 40.3387 40.26C40.0747 40.116 39.8707 39.9 39.7267 39.612C39.6067 39.3 39.5467 38.976 39.5467 38.64C39.5467 38.28 39.6067 38.028 39.7267 37.884C39.2947 37.716 39.0787 37.428 39.0787 37.02C39.0787 36.924 39.1267 36.732 39.2227 36.444C38.9587 36.252 38.8267 35.964 38.8267 35.58C38.8267 35.364 38.8747 35.172 38.9707 35.004C38.4907 34.74 38.2747 34.26 38.3227 33.564C38.0827 33.396 37.9147 33.18 37.8187 32.916C37.7227 32.652 37.6987 32.388 37.7467 32.124C37.4107 31.788 37.2427 31.404 37.2427 30.972C37.2427 30.756 37.2787 30.564 37.3507 30.396C37.2307 30.276 37.1347 30.12 37.0627 29.928C36.9907 29.736 36.9547 29.556 36.9547 29.388C36.9547 29.196 36.9787 29.064 37.0267 28.992C36.6907 28.752 36.5227 28.404 36.5227 27.948C36.5227 27.612 36.5947 27.324 36.7387 27.084C36.5467 27.012 36.3667 26.796 36.1987 26.436C36.0547 26.076 35.9827 25.716 35.9827 25.356C35.9827 25.164 36.0307 24.948 36.1267 24.708C35.9587 24.372 35.8747 24.036 35.8747 23.7C35.8747 23.268 35.9947 22.92 36.2347 22.656C36.4987 22.392 36.8587 22.26 37.3147 22.26C37.7947 22.26 38.1667 22.512 38.4307 23.016C38.7187 23.496 38.8627 24.024 38.8627 24.6L38.8267 24.96C39.0907 25.2 39.3067 25.536 39.4747 25.968C39.6427 26.4 39.7267 26.832 39.7267 27.264C39.7267 27.504 39.7147 27.672 39.6907 27.768C39.9787 28.056 40.1227 28.368 40.1227 28.704C40.1227 28.872 40.1107 29.016 40.0867 29.136C40.2067 29.208 40.3027 29.34 40.3747 29.532C40.4707 29.7 40.5187 29.892 40.5187 30.108C40.5187 30.348 40.4707 30.564 40.3747 30.756C40.5907 31.068 40.6987 31.332 40.6987 31.548C40.9147 31.668 41.0827 31.872 41.2027 32.16C41.3227 32.448 41.3827 32.748 41.3827 33.06C41.3827 33.252 41.3707 33.384 41.3467 33.456C41.8027 33.96 42.0307 34.488 42.0307 35.04C42.0307 35.184 42.0187 35.292 41.9947 35.364C42.1147 35.46 42.2227 35.628 42.3187 35.868C42.4147 36.108 42.4627 36.348 42.4627 36.588C42.4627 36.732 42.4507 36.828 42.4267 36.876C42.6907 37.164 42.7987 37.644 42.7507 38.316C43.0147 38.58 43.1467 38.892 43.1467 39.252C43.1467 39.492 43.0747 39.72 42.9307 39.936C43.0507 39.984 43.1587 40.224 43.2547 40.656C43.3747 41.064 43.4347 41.448 43.4347 41.808C43.4347 41.424 43.4587 41.088 43.5067 40.8C43.5787 40.488 43.6747 40.32 43.7947 40.296C43.7707 39.864 43.8187 39.504 43.9387 39.216C44.0827 38.904 44.2507 38.724 44.4427 38.676C44.3947 38.436 44.4307 38.1 44.5507 37.668C44.6947 37.212 44.8627 36.888 45.0547 36.696C45.0547 36.216 45.1027 35.808 45.1987 35.472C45.3187 35.112 45.4627 34.836 45.6307 34.644C45.5827 34.5 45.5587 34.356 45.5587 34.212C45.5587 33.9 45.6187 33.576 45.7387 33.24C45.8827 32.904 46.0267 32.712 46.1707 32.664C46.1467 32.568 46.1347 32.376 46.1347 32.088C46.1347 31.416 46.2907 31.008 46.6027 30.864C46.5547 30.672 46.5307 30.492 46.5307 30.324C46.5307 29.94 46.5907 29.556 46.7107 29.172C46.8547 28.788 47.0107 28.548 47.1787 28.452C47.1307 28.212 47.1067 28.032 47.1067 27.912C47.1067 27.624 47.1547 27.348 47.2507 27.084C47.3707 26.796 47.5147 26.592 47.6827 26.472C47.6587 26.328 47.6467 26.124 47.6467 25.86C47.6467 25.284 47.8267 24.78 48.1867 24.348C48.2827 24.012 48.4507 23.76 48.6907 23.592C48.9547 23.424 49.2307 23.34 49.5187 23.34C49.9267 23.34 50.2987 23.484 50.6347 23.772C50.9707 24.036 51.1387 24.384 51.1387 24.816C51.1387 25.032 51.1147 25.2 51.0667 25.32C51.2107 25.392 51.3427 25.548 51.4627 25.788C51.5827 26.028 51.6427 26.256 51.6427 26.472C51.6427 26.544 51.6187 26.652 51.5707 26.796C51.8587 26.82 52.0867 27.036 52.2547 27.444C52.4467 27.852 52.5067 28.188 52.4347 28.452C52.8427 28.812 53.0467 29.28 53.0467 29.856C53.0467 30 53.0227 30.192 52.9747 30.432C53.1427 30.624 53.2747 30.888 53.3707 31.224C53.4907 31.536 53.5507 31.848 53.5507 32.16C53.5507 32.328 53.5267 32.508 53.4787 32.7C53.6947 32.796 53.8747 33.036 54.0187 33.42C54.1867 33.804 54.2707 34.236 54.2707 34.716C54.2707 34.932 54.2587 35.1 54.2347 35.22C54.4987 35.364 54.7027 35.616 54.8467 35.976C55.0147 36.336 55.0987 36.696 55.0987 37.056C55.0987 37.2 55.0747 37.344 55.0267 37.488C55.2667 37.68 55.4707 38.136 55.6387 38.856C55.8067 39.552 55.8547 40.008 55.7827 40.224C55.9987 40.344 56.1907 40.608 56.3587 41.016C56.5507 41.4 56.6707 41.856 56.7187 42.384C56.7187 41.856 56.7547 41.46 56.8267 41.196C56.8987 40.908 57.0547 40.572 57.2947 40.188C57.1987 39.996 57.1507 39.756 57.1507 39.468C57.1507 39.156 57.2107 38.856 57.3307 38.568C57.4747 38.28 57.6547 38.064 57.8707 37.92C57.7747 37.752 57.7267 37.548 57.7267 37.308C57.7267 36.996 57.7867 36.672 57.9067 36.336C58.0267 35.976 58.1707 35.7 58.3387 35.508C58.2667 35.316 58.2307 35.136 58.2307 34.968C58.2307 34.704 58.3267 34.44 58.5187 34.176C58.4467 33.984 58.4107 33.804 58.4107 33.636C58.4107 33.396 58.4827 33.156 58.6267 32.916C58.7947 32.652 58.9147 32.448 58.9867 32.304C58.8427 32.04 58.7707 31.728 58.7707 31.368C58.7707 31.008 58.8307 30.672 58.9507 30.36C59.0947 30.024 59.2747 29.772 59.4907 29.604C59.4427 29.22 59.4787 28.8 59.5987 28.344C59.7427 27.888 59.9107 27.528 60.1027 27.264C60.0067 26.736 59.9587 26.388 59.9587 26.22C59.9587 25.812 60.0787 25.416 60.3187 25.032C60.2947 24.96 60.2827 24.852 60.2827 24.708C60.2827 24.156 60.4507 23.616 60.7867 23.088C61.1467 22.536 61.5907 22.26 62.1187 22.26C63.0787 22.26 63.5587 22.728 63.5587 23.664C63.5587 23.832 63.4987 24.252 63.3787 24.924ZM85.2132 31.908C85.2852 32.052 85.3212 32.172 85.3212 32.268C85.3212 32.388 85.2972 32.496 85.2492 32.592C85.2252 32.664 85.2012 32.712 85.1772 32.736C85.6572 32.736 86.0052 32.856 86.2212 33.096C86.4372 33.336 86.5452 33.648 86.5452 34.032C86.5452 34.416 86.4372 34.776 86.2212 35.112C86.0052 35.424 85.7532 35.568 85.4652 35.544C85.5372 35.712 85.5732 35.988 85.5732 36.372C85.5732 36.972 85.4772 37.332 85.2852 37.452C85.5012 37.692 85.6092 38.124 85.6092 38.748C85.6092 39.108 85.5612 39.456 85.4652 39.792C85.3932 40.104 85.2852 40.32 85.1412 40.44C85.3572 40.68 85.4652 41.1 85.4652 41.7C85.4652 42.084 85.4052 42.336 85.2852 42.456C85.4052 42.696 85.4652 42.972 85.4652 43.284C85.4652 43.836 85.3572 44.28 85.1412 44.616C85.3332 44.928 85.4292 45.252 85.4292 45.588C85.4292 45.9 85.3692 46.128 85.2492 46.272C85.2252 46.728 85.0932 47.136 84.8532 47.496C84.6132 47.832 84.2892 48 83.8812 48C83.7132 48 83.4852 47.94 83.1972 47.82C82.6932 47.58 82.4412 47.04 82.4412 46.2C82.4412 45.768 82.4772 45.396 82.5492 45.084C82.3812 44.652 82.2972 44.16 82.2972 43.608C82.2972 42.96 82.4172 42.384 82.6572 41.88C82.3692 41.448 82.2252 40.92 82.2252 40.296C82.2252 39.792 82.3332 39.42 82.5492 39.18C82.4532 39.084 82.4052 38.82 82.4052 38.388C82.4052 37.98 82.4532 37.716 82.5492 37.596C82.4292 37.188 82.3692 36.636 82.3692 35.94C82.3692 35.724 82.3812 35.592 82.4052 35.544C82.2132 35.64 82.0572 35.688 81.9372 35.688C81.6972 35.688 81.5172 35.604 81.3972 35.436C81.1812 35.58 80.9772 35.652 80.7852 35.652C80.5692 35.652 80.3652 35.568 80.1732 35.4C79.8852 35.544 79.5852 35.616 79.2732 35.616C78.9852 35.616 78.7452 35.544 78.5532 35.4C78.3132 35.496 77.9892 35.544 77.5812 35.544C77.1252 35.544 76.8012 35.484 76.6092 35.364C76.1772 35.508 75.7812 35.58 75.4212 35.58C75.0852 35.58 74.8092 35.508 74.5932 35.364C74.1852 35.532 73.7772 35.616 73.3692 35.616C72.9132 35.616 72.4572 35.496 72.0012 35.256C72.1932 35.544 72.2892 35.916 72.2892 36.372C72.2892 36.732 72.2412 37.068 72.1452 37.38C72.4092 37.764 72.5412 38.148 72.5412 38.532C72.5412 38.82 72.4692 39.132 72.3252 39.468C72.5172 39.78 72.6132 40.176 72.6132 40.656C72.6132 41.112 72.5292 41.46 72.3612 41.7C72.6492 42.276 72.7932 42.744 72.7932 43.104C72.7932 43.44 72.6732 43.812 72.4332 44.22C72.6012 44.508 72.6852 44.94 72.6852 45.516C72.6852 45.9 72.6252 46.2 72.5052 46.416C72.5052 46.848 72.3732 47.184 72.1092 47.424C71.8452 47.664 71.5212 47.784 71.1372 47.784C70.7292 47.784 70.3812 47.676 70.0932 47.46C69.8052 47.22 69.6612 46.908 69.6612 46.524C69.6612 46.356 69.6972 46.164 69.7692 45.948C69.4812 45.588 69.3372 45.18 69.3372 44.724C69.3372 44.484 69.3852 44.268 69.4812 44.076C69.5772 43.86 69.7092 43.704 69.8772 43.608C69.7812 43.44 69.6852 43.164 69.5892 42.78C69.5172 42.372 69.4812 42 69.4812 41.664C69.4812 41.208 69.5412 40.92 69.6612 40.8C69.5172 40.704 69.3972 40.548 69.3012 40.332C69.2292 40.116 69.1932 39.888 69.1932 39.648C69.1932 39.288 69.2772 39 69.4452 38.784C69.2772 38.424 69.1932 38.052 69.1932 37.668C69.1932 37.476 69.2052 37.332 69.2292 37.236C69.1572 36.972 69.1212 36.708 69.1212 36.444C69.1212 36.132 69.1572 35.82 69.2292 35.508C69.0372 35.004 68.9412 34.416 68.9412 33.744C68.9412 33.072 69.0492 32.628 69.2652 32.412C69.0972 32.076 69.0132 31.668 69.0132 31.188C69.0132 30.78 69.0612 30.468 69.1572 30.252C68.9652 29.988 68.8692 29.64 68.8692 29.208C68.8692 28.848 68.9172 28.56 69.0132 28.344C68.9412 28.2 68.8692 27.996 68.7972 27.732C68.7492 27.468 68.7252 27.204 68.7252 26.94C68.7252 26.364 68.8452 25.944 69.0852 25.68C68.9892 25.488 68.9412 25.344 68.9412 25.248C68.9412 25.104 68.9892 24.984 69.0852 24.888C68.8212 24.6 68.6892 24.288 68.6892 23.952C68.6892 23.568 68.8572 23.232 69.1932 22.944C69.5292 22.656 69.9012 22.512 70.3092 22.512C70.5732 22.512 70.8132 22.596 71.0292 22.764C71.2692 22.932 71.4372 23.196 71.5332 23.556C71.8932 23.868 72.0732 24.228 72.0732 24.636C72.0732 24.828 72.0132 25.044 71.8932 25.284C72.0132 25.428 72.0732 25.632 72.0732 25.896C72.0732 26.112 72.0252 26.316 71.9292 26.508C71.8332 26.7 71.7252 26.832 71.6052 26.904C71.9412 27.192 72.1092 27.564 72.1092 28.02C72.1092 28.404 71.9772 28.728 71.7132 28.992C72.0252 29.28 72.1812 29.604 72.1812 29.964C72.1812 30.228 72.0972 30.528 71.9292 30.864C72.1692 31.176 72.2892 31.536 72.2892 31.944C72.2892 32.232 72.2412 32.436 72.1452 32.556C72.5052 32.364 72.9372 32.268 73.4412 32.268C73.9932 32.268 74.3772 32.388 74.5932 32.628C75.1932 32.412 75.6972 32.304 76.1052 32.304C76.5612 32.304 76.9452 32.412 77.2572 32.628C77.4492 32.532 77.7012 32.448 78.0132 32.376C78.3252 32.304 78.6252 32.268 78.9132 32.268C79.3452 32.268 79.6572 32.364 79.8492 32.556C80.1612 32.34 80.5572 32.232 81.0372 32.232C81.6852 32.232 82.2012 32.412 82.5852 32.772C82.5132 32.58 82.4772 32.316 82.4772 31.98C82.4772 31.5 82.5372 31.236 82.6572 31.188C82.5132 30.9 82.4412 30.6 82.4412 30.288C82.4412 29.976 82.5132 29.748 82.6572 29.604C82.6092 29.412 82.5852 29.256 82.5852 29.136C82.5852 28.872 82.6212 28.656 82.6932 28.488C82.5012 28.224 82.4052 27.936 82.4052 27.624C82.4052 27.408 82.4652 27.18 82.5852 26.94C82.4652 26.7 82.4052 26.484 82.4052 26.292C82.4052 25.956 82.5252 25.728 82.7652 25.608C82.6932 25.344 82.6572 25.14 82.6572 24.996C82.6572 24.78 82.7052 24.54 82.8012 24.276C82.6332 23.964 82.5492 23.676 82.5492 23.412C82.5492 23.052 82.6932 22.752 82.9812 22.512C83.2692 22.248 83.6052 22.116 83.9892 22.116C84.2772 22.116 84.5412 22.212 84.7812 22.404C85.0212 22.572 85.1892 22.824 85.2852 23.16C85.5972 23.376 85.7532 23.76 85.7532 24.312C85.7532 24.768 85.6572 25.212 85.4652 25.644C85.6092 25.86 85.6812 26.256 85.6812 26.832C85.6812 27.264 85.6332 27.564 85.5372 27.732C85.6332 27.9 85.6812 28.128 85.6812 28.416C85.6812 28.8 85.6212 29.112 85.5012 29.352C85.6212 29.472 85.6812 29.628 85.6812 29.82C85.6812 30.084 85.6092 30.288 85.4652 30.432C85.5372 30.648 85.5732 30.84 85.5732 31.008C85.5732 31.344 85.4532 31.644 85.2132 31.908ZM109.218 44.112C109.218 44.112 109.422 44.196 109.83 44.364C110.262 44.532 110.43 45.096 110.334 46.056C110.43 46.248 110.478 46.464 110.478 46.704C110.478 47.088 110.322 47.4 110.01 47.64C109.698 47.88 109.338 48 108.93 48C108.57 48 108.258 47.892 107.994 47.676C107.754 47.436 107.634 47.1 107.634 46.668C107.37 46.62 107.094 46.416 106.806 46.056C106.542 45.672 106.41 45.288 106.41 44.904C106.41 44.808 106.434 44.664 106.482 44.472C106.242 44.352 106.026 44.112 105.834 43.752C105.666 43.368 105.546 42.972 105.474 42.564C105.402 42.156 105.378 41.868 105.402 41.7C105.09 41.556 104.838 41.208 104.646 40.656C104.478 40.08 104.418 39.588 104.466 39.18C104.298 39.252 104.094 39.288 103.854 39.288C103.374 39.288 102.93 39.144 102.522 38.856C102.21 39.168 101.742 39.324 101.118 39.324C100.542 39.324 100.134 39.18 99.8945 38.892C99.5825 39.156 99.2465 39.288 98.8865 39.288C98.5985 39.288 98.3705 39.228 98.2025 39.108C98.0345 39.228 97.7825 39.288 97.4465 39.288C97.1585 39.288 96.8705 39.24 96.5825 39.144C96.2945 39.048 96.0665 38.916 95.8985 38.748C95.8745 38.748 95.8145 38.772 95.7185 38.82C95.8625 39.276 95.9345 39.684 95.9345 40.044C95.9345 40.596 95.6585 41.076 95.1065 41.484C95.2025 41.676 95.2505 41.904 95.2505 42.168C95.2505 42.696 95.0705 43.2 94.7105 43.68C94.3505 44.16 94.0025 44.424 93.6665 44.472C93.7625 44.688 93.8105 44.94 93.8105 45.228C93.8105 45.876 93.5945 46.476 93.1625 47.028C92.7305 47.556 92.2025 47.82 91.5785 47.82C91.4105 47.82 91.2785 47.808 91.1825 47.784C90.8705 47.784 90.6305 47.688 90.4625 47.496C90.2945 47.304 90.2105 47.052 90.2105 46.74C90.2105 46.524 90.2705 46.272 90.3905 45.984C90.3665 45.888 90.3545 45.744 90.3545 45.552C90.3545 45.072 90.5945 44.652 91.0745 44.292C91.0505 44.22 91.0385 44.112 91.0385 43.968C91.0385 43.608 91.1225 43.248 91.2905 42.888C91.4825 42.504 91.7225 42.252 92.0105 42.132C91.9865 42.084 91.9745 41.976 91.9745 41.808C91.9745 41.4 92.0705 40.932 92.2625 40.404C92.4545 39.852 92.6705 39.54 92.9105 39.468C92.8625 38.412 93.2105 37.344 93.9545 36.264C93.9545 35.712 94.0385 35.196 94.2065 34.716C94.3745 34.212 94.6745 33.852 95.1065 33.636C95.1305 33.18 95.2385 32.724 95.4305 32.268C95.6225 31.812 95.8385 31.428 96.0785 31.116C96.0065 30.852 95.9705 30.612 95.9705 30.396C95.9705 30.06 96.0305 29.796 96.1505 29.604C96.2945 29.388 96.4505 29.256 96.6185 29.208C96.5945 29.112 96.5825 28.968 96.5825 28.776C96.5825 28.248 96.7745 27.828 97.1585 27.516L97.1225 27.3C97.1225 26.94 97.2665 26.616 97.5545 26.328C97.5305 26.232 97.5185 26.1 97.5185 25.932C97.5185 25.5 97.6265 25.068 97.8425 24.636C98.0585 24.204 98.2985 23.916 98.5625 23.772C98.9945 23.172 99.4505 22.872 99.9305 22.872C100.146 22.872 100.422 22.944 100.758 23.088C101.454 23.112 101.958 23.652 102.27 24.708C102.486 24.972 102.642 25.284 102.738 25.644C102.834 25.98 102.87 26.292 102.846 26.58C103.062 26.724 103.218 26.916 103.314 27.156C103.434 27.396 103.482 27.648 103.458 27.912C103.698 28.128 103.902 28.464 104.07 28.92C104.262 29.376 104.358 29.808 104.358 30.216C104.358 30.408 104.346 30.54 104.322 30.612C104.49 30.78 104.634 31.02 104.754 31.332C104.898 31.644 104.97 31.932 104.97 32.196C104.97 32.34 104.958 32.448 104.934 32.52C105.246 32.736 105.498 33.072 105.69 33.528C105.906 33.984 106.05 34.44 106.122 34.896C106.218 35.328 106.242 35.628 106.194 35.796C106.242 35.868 106.374 36.048 106.59 36.336C106.806 36.6 106.974 36.876 107.094 37.164C107.214 37.428 107.274 37.68 107.274 37.92C107.274 38.136 107.25 38.292 107.202 38.388C107.298 38.508 107.406 38.652 107.526 38.82C107.646 38.964 107.742 39.096 107.814 39.216C107.886 39.336 107.922 39.48 107.922 39.648C107.922 39.816 107.91 39.936 107.886 40.008C108.078 40.2 108.246 40.452 108.39 40.764C108.534 41.076 108.606 41.376 108.606 41.664C108.606 41.904 108.558 42.084 108.462 42.204C108.726 42.396 108.93 42.672 109.074 43.032C109.218 43.392 109.266 43.752 109.218 44.112ZM102.594 36.3C102.642 36.156 102.75 36.072 102.918 36.048C103.086 36 103.23 36.012 103.35 36.084C103.302 35.94 103.278 35.832 103.278 35.76C103.278 35.568 103.326 35.424 103.422 35.328C103.206 35.16 103.026 34.944 102.882 34.68C102.762 34.416 102.714 34.152 102.738 33.888C102.57 33.84 102.414 33.72 102.27 33.528C102.15 33.312 102.09 33.084 102.09 32.844C102.09 32.772 102.114 32.64 102.162 32.448C101.658 32.136 101.406 31.668 101.406 31.044C101.406 30.804 101.442 30.528 101.514 30.216C101.49 30.192 101.43 30.144 101.334 30.072C101.238 29.976 101.202 29.832 101.226 29.64C100.746 29.496 100.518 29.112 100.542 28.488C100.35 28.392 100.194 28.212 100.074 27.948C100.122 28.5 99.9065 28.932 99.4265 29.244C99.4505 29.508 99.4025 29.808 99.2825 30.144C99.1625 30.48 99.0185 30.732 98.8505 30.9C98.8745 30.996 98.8865 31.152 98.8865 31.368C98.8865 31.92 98.6585 32.652 98.2025 33.564C98.0825 33.828 97.9865 34.068 97.9145 34.284C97.8185 34.524 97.7105 34.764 97.5905 35.004C97.4945 35.244 97.3625 35.424 97.1945 35.544C97.1945 35.784 97.1465 36 97.0505 36.192L97.3385 36.156C97.5785 36.156 97.7585 36.216 97.8785 36.336C97.9505 36.216 98.0945 36.156 98.3105 36.156C98.4545 36.156 98.5625 36.192 98.6345 36.264C98.9225 36.048 99.2825 35.94 99.7145 35.94C100.026 35.94 100.314 35.988 100.578 36.084C100.842 36.18 101.058 36.312 101.226 36.48C101.466 36.216 101.718 36.084 101.982 36.084C102.15 36.084 102.354 36.156 102.594 36.3ZM123.955 22.872C124.291 22.656 124.675 22.548 125.107 22.548C125.443 22.548 125.719 22.62 125.935 22.764C126.415 22.668 126.811 22.788 127.123 23.124C127.459 23.436 127.627 23.808 127.627 24.24C127.627 24.6 127.495 24.9 127.231 25.14C126.991 25.38 126.631 25.5 126.151 25.5C125.839 25.5 125.599 25.476 125.431 25.428C125.167 25.644 124.795 25.752 124.315 25.752C123.787 25.752 123.307 25.644 122.875 25.428C122.731 25.524 122.467 25.608 122.083 25.68C121.699 25.752 121.327 25.788 120.967 25.788C120.727 25.788 120.511 25.764 120.319 25.716C120.511 26.028 120.607 26.424 120.607 26.904C120.607 27.408 120.499 27.756 120.283 27.948C120.643 28.38 120.823 28.944 120.823 29.64C120.823 30.096 120.727 30.516 120.535 30.9C120.775 31.548 120.895 32.184 120.895 32.808C120.895 33.216 120.847 33.576 120.751 33.888C120.871 34.032 120.967 34.26 121.039 34.572C121.135 34.884 121.183 35.196 121.183 35.508C121.183 35.868 121.111 36.18 120.967 36.444C121.327 36.78 121.507 37.308 121.507 38.028C121.507 38.508 121.447 38.892 121.327 39.18C121.543 39.516 121.651 39.948 121.651 40.476C121.651 40.788 121.591 41.064 121.471 41.304C121.591 41.52 121.651 41.82 121.651 42.204C121.651 42.564 121.603 42.84 121.507 43.032C121.747 43.272 121.867 43.656 121.867 44.184C121.867 44.4 121.831 44.604 121.759 44.796C122.071 45.156 122.203 45.516 122.155 45.876C122.275 46.164 122.335 46.404 122.335 46.596C122.335 47.004 122.179 47.34 121.867 47.604C121.555 47.868 121.195 48 120.787 48C120.475 48 120.199 47.916 119.959 47.748C119.743 47.556 119.599 47.268 119.527 46.884C119.359 46.716 119.227 46.476 119.131 46.164C119.035 45.852 118.987 45.552 118.987 45.264C118.987 45.096 119.011 44.916 119.059 44.724C118.795 44.46 118.663 43.992 118.663 43.32C118.663 43.008 118.687 42.792 118.735 42.672C118.519 42.336 118.411 42.048 118.411 41.808C118.411 41.472 118.543 41.172 118.807 40.908C118.471 40.668 118.303 40.296 118.303 39.792C118.303 39.384 118.399 39.072 118.591 38.856C118.255 38.664 118.087 38.16 118.087 37.344C118.087 36.888 118.135 36.528 118.231 36.264C118.111 36.12 118.003 35.904 117.907 35.616C117.835 35.304 117.799 34.992 117.799 34.68C117.799 34.344 117.847 34.092 117.943 33.924C117.727 33.492 117.619 32.976 117.619 32.376C117.619 32.016 117.667 31.5 117.763 30.828C117.595 30.372 117.511 29.88 117.511 29.352C117.511 28.872 117.583 28.476 117.727 28.164C117.439 27.876 117.295 27.348 117.295 26.58C117.295 26.22 117.331 25.896 117.403 25.608C117.139 25.752 116.875 25.824 116.611 25.824C116.347 25.824 116.095 25.764 115.855 25.644C115.687 25.74 115.459 25.788 115.171 25.788C114.691 25.788 114.355 25.68 114.163 25.464C114.043 25.584 113.863 25.68 113.623 25.752C113.383 25.824 113.131 25.86 112.867 25.86C112.267 25.86 111.859 25.716 111.643 25.428C111.499 25.452 111.307 25.464 111.067 25.464C110.467 25.464 110.023 25.356 109.735 25.14C109.447 24.924 109.303 24.636 109.303 24.276C109.303 23.868 109.495 23.484 109.879 23.124C110.263 22.74 110.719 22.548 111.247 22.548C111.487 22.548 111.763 22.608 112.075 22.728C112.267 22.512 112.639 22.404 113.191 22.404C113.647 22.404 113.995 22.488 114.235 22.656C114.427 22.488 114.763 22.404 115.243 22.404C115.555 22.404 115.855 22.44 116.143 22.512C116.455 22.584 116.683 22.68 116.827 22.8C116.995 22.56 117.439 22.44 118.159 22.44C118.807 22.44 119.215 22.548 119.383 22.764C119.575 22.572 119.911 22.476 120.391 22.476C120.847 22.476 121.135 22.584 121.255 22.8C121.543 22.584 121.963 22.476 122.515 22.476C123.139 22.476 123.619 22.608 123.955 22.872ZM143.016 27.84C143.136 28.32 143.196 28.716 143.196 29.028C143.196 29.148 143.172 29.448 143.124 29.928C143.244 30.168 143.304 30.54 143.304 31.044C143.304 31.476 143.244 31.812 143.124 32.052C143.244 32.292 143.304 32.52 143.304 32.736C143.304 33.048 143.196 33.348 142.98 33.636C143.148 34.044 143.232 34.464 143.232 34.896C143.232 35.232 143.172 35.604 143.052 36.012C143.196 36.252 143.268 36.552 143.268 36.912C143.268 37.272 143.184 37.668 143.016 38.1C143.208 38.364 143.304 38.64 143.304 38.928C143.304 39.216 143.208 39.492 143.016 39.756C143.112 39.924 143.16 40.116 143.16 40.332C143.16 40.548 143.1 40.776 142.98 41.016C143.172 41.352 143.268 41.604 143.268 41.772C143.268 41.916 143.184 42.12 143.016 42.384C143.112 42.72 143.16 42.972 143.16 43.14C143.16 43.5 143.028 43.812 142.764 44.076C143.052 44.58 143.196 45.192 143.196 45.912C143.196 46.8 142.944 47.412 142.44 47.748C142.2 47.916 141.948 48 141.684 48C141.228 48 140.844 47.796 140.532 47.388C140.244 46.956 140.1 46.488 140.1 45.984C140.1 45.744 140.136 45.516 140.208 45.3C139.992 45.012 139.884 44.604 139.884 44.076C139.884 43.548 139.992 43.164 140.208 42.924C140.16 42.804 140.136 42.636 140.136 42.42C140.136 42.252 140.148 42.12 140.172 42.024C140.052 41.832 139.992 41.58 139.992 41.268C139.992 40.884 140.088 40.56 140.28 40.296C140.088 40.104 139.992 39.852 139.992 39.54C139.992 39.324 140.052 39.096 140.172 38.856C140.076 38.664 140.028 38.352 140.028 37.92C140.028 37.392 140.148 37.056 140.388 36.912C140.148 36.48 140.028 36.06 140.028 35.652C140.028 35.436 140.088 35.232 140.208 35.04C140.04 34.704 139.956 34.32 139.956 33.888C139.956 33.384 140.076 32.964 140.316 32.628C140.22 32.412 140.172 32.208 140.172 32.016C140.172 31.848 140.244 31.656 140.388 31.44C140.196 31.176 140.1 30.888 140.1 30.576C140.1 30.312 140.172 30.132 140.316 30.036C140.148 29.844 140.064 29.556 140.064 29.172C140.064 28.884 140.136 28.668 140.28 28.524C140.064 28.188 139.956 27.708 139.956 27.084C139.956 26.532 140.04 26.148 140.208 25.932C139.992 25.548 139.884 25.116 139.884 24.636C139.884 24.204 139.98 23.892 140.172 23.7C140.196 23.292 140.352 22.968 140.64 22.728C140.928 22.464 141.264 22.332 141.648 22.332C141.912 22.332 142.152 22.404 142.368 22.548C142.824 22.812 143.052 23.22 143.052 23.772C143.052 24.228 142.932 24.672 142.692 25.104C143.004 25.656 143.16 26.268 143.16 26.94C143.16 27.276 143.112 27.576 143.016 27.84ZM153.464 27.516C153.536 27.588 153.572 27.708 153.572 27.876C153.572 28.092 153.488 28.332 153.32 28.596C153.176 28.86 152.984 29.064 152.744 29.208C152.792 29.256 152.816 29.4 152.816 29.64C152.816 29.88 152.792 30.108 152.744 30.324C152.72 30.516 152.696 30.648 152.672 30.72C152.744 30.792 152.816 30.948 152.888 31.188C152.96 31.428 153.008 31.62 153.032 31.764C153.248 31.764 153.452 31.836 153.644 31.98C153.836 32.124 153.98 32.328 154.076 32.592C154.1 32.568 154.16 32.556 154.256 32.556C154.4 32.556 154.568 32.58 154.76 32.628C154.952 32.676 155.108 32.724 155.228 32.772C155.3 32.7 155.456 32.664 155.696 32.664C156.104 32.664 156.368 32.76 156.488 32.952C156.608 32.88 156.764 32.844 156.956 32.844C157.34 32.844 157.628 32.94 157.82 33.132C157.94 33.036 158.192 32.988 158.576 32.988C158.84 32.988 159.104 33.024 159.368 33.096C159.632 33.168 159.8 33.264 159.872 33.384C159.944 33.36 160.052 33.348 160.196 33.348C160.604 33.348 160.988 33.456 161.348 33.672C161.732 33.864 161.924 34.08 161.924 34.32C162.236 34.272 162.524 34.344 162.788 34.536C163.052 34.728 163.268 34.968 163.436 35.256C163.868 35.328 164.276 35.724 164.66 36.444C165.044 37.164 165.236 37.836 165.236 38.46C165.236 38.748 165.176 38.988 165.056 39.18C165.416 39.42 165.596 39.864 165.596 40.512C165.596 40.968 165.5 41.388 165.308 41.772C165.356 41.964 165.38 42.108 165.38 42.204C165.38 42.612 165.26 43.02 165.02 43.428C164.804 43.812 164.54 44.052 164.228 44.148C164.156 44.556 163.94 44.94 163.58 45.3C163.22 45.636 162.848 45.888 162.464 46.056C162.416 46.368 162.188 46.68 161.78 46.992C161.372 47.28 160.976 47.376 160.592 47.28C160.424 47.496 160.112 47.676 159.656 47.82C159.224 47.94 158.756 48 158.252 48C157.772 48 157.328 47.94 156.92 47.82C156.536 47.7 156.272 47.52 156.128 47.28C155.912 47.376 155.672 47.424 155.408 47.424C155.072 47.424 154.748 47.34 154.436 47.172C154.148 47.004 153.944 46.776 153.824 46.488C153.536 46.56 153.224 46.5 152.888 46.308C152.576 46.092 152.348 45.768 152.204 45.336C151.82 45.336 151.424 45.204 151.016 44.94C150.632 44.676 150.416 44.412 150.368 44.148C149.984 44.076 149.684 43.908 149.468 43.644C149.276 43.38 149.18 43.08 149.18 42.744C149.18 42.36 149.3 42.012 149.54 41.7C149.804 41.388 150.14 41.232 150.548 41.232C150.764 41.232 150.932 41.256 151.052 41.304C151.244 41.256 151.376 41.232 151.448 41.232C151.808 41.232 152.132 41.352 152.42 41.592C152.732 41.832 152.9 42.132 152.924 42.492C153.068 42.444 153.188 42.42 153.284 42.42C153.62 42.42 153.92 42.576 154.184 42.888C154.472 43.176 154.64 43.512 154.688 43.896C154.832 43.824 154.988 43.788 155.156 43.788C155.42 43.788 155.672 43.86 155.912 44.004C156.152 44.148 156.284 44.316 156.308 44.508C156.524 44.436 156.74 44.4 156.956 44.4C157.34 44.4 157.652 44.556 157.892 44.868C158.108 44.724 158.336 44.652 158.576 44.652C158.696 44.652 158.9 44.7 159.188 44.796C159.5 44.34 159.812 44.16 160.124 44.256C160.316 43.992 160.532 43.764 160.772 43.572C161.012 43.356 161.252 43.236 161.492 43.212C161.588 42.948 161.696 42.756 161.816 42.636C161.936 42.492 162.128 42.348 162.392 42.204C162.344 42.108 162.32 41.988 162.32 41.844C162.32 41.604 162.368 41.352 162.464 41.088C162.56 40.824 162.668 40.656 162.788 40.584C162.596 40.368 162.5 40.116 162.5 39.828C162.5 39.588 162.584 39.312 162.752 39C162.32 38.736 162.104 38.352 162.104 37.848C161.744 37.728 161.48 37.56 161.312 37.344C160.904 37.368 160.568 37.308 160.304 37.164C160.04 36.996 159.872 36.756 159.8 36.444C159.608 36.492 159.476 36.516 159.404 36.516C159.164 36.516 158.936 36.468 158.72 36.372C158.504 36.252 158.324 36.096 158.18 35.904C158.036 36.024 157.844 36.084 157.604 36.084C157.292 36.084 156.956 35.964 156.596 35.724C156.356 35.844 156.128 35.904 155.912 35.904C155.6 35.904 155.348 35.844 155.156 35.724C155.012 35.772 154.892 35.796 154.796 35.796C154.58 35.796 154.376 35.76 154.184 35.688C154.016 35.592 153.92 35.484 153.896 35.364C153.032 35.364 152.564 35.208 152.492 34.896C152.204 34.848 151.928 34.752 151.664 34.608C151.4 34.44 151.256 34.248 151.232 34.032C150.992 33.984 150.788 33.852 150.62 33.636C150.452 33.396 150.368 33.108 150.368 32.772C150.152 32.604 149.972 32.304 149.828 31.872C149.684 31.44 149.612 30.984 149.612 30.504C149.612 29.736 149.768 29.208 150.08 28.92C150.032 28.776 150.008 28.632 150.008 28.488C150.008 28.152 150.068 27.804 150.188 27.444C150.332 27.084 150.476 26.868 150.62 26.796C150.62 26.484 150.704 26.124 150.872 25.716C151.088 25.428 151.34 25.188 151.628 24.996C151.916 24.78 152.228 24.672 152.564 24.672C152.612 24.408 152.756 24.18 152.996 23.988C153.26 23.796 153.56 23.7 153.896 23.7C153.992 23.412 154.196 23.184 154.508 23.016C154.82 22.848 155.168 22.764 155.552 22.764C155.84 22.764 156.092 22.8 156.308 22.872C156.38 22.752 156.512 22.656 156.704 22.584C156.896 22.512 157.1 22.476 157.316 22.476C157.436 22.476 157.568 22.5 157.712 22.548C157.928 22.332 158.312 22.224 158.864 22.224C159.464 22.224 159.92 22.332 160.232 22.548C160.328 22.524 160.46 22.512 160.628 22.512C161.348 22.512 161.96 22.932 162.464 23.772C162.728 23.724 163.016 23.796 163.328 23.988C163.664 24.18 163.928 24.444 164.12 24.78C164.336 25.092 164.432 25.392 164.408 25.68C164.816 25.968 165.104 26.268 165.272 26.58C165.44 26.892 165.572 27.36 165.668 27.984C165.692 28.416 165.56 28.764 165.272 29.028C164.984 29.292 164.648 29.424 164.264 29.424C163.904 29.424 163.592 29.292 163.328 29.028C163.04 28.98 162.788 28.836 162.572 28.596C162.356 28.356 162.26 28.116 162.284 27.876C161.612 27.42 161.312 26.916 161.384 26.364C161.096 26.412 160.736 26.34 160.304 26.148C159.896 25.932 159.584 25.656 159.368 25.32C159.2 25.56 158.864 25.68 158.36 25.68C158 25.68 157.7 25.62 157.46 25.5C157.292 25.716 156.992 25.824 156.56 25.824C156.344 25.824 156.14 25.788 155.948 25.716C155.852 25.98 155.684 26.208 155.444 26.4C155.228 26.568 154.976 26.676 154.688 26.724C154.544 26.94 154.364 27.132 154.148 27.3C153.932 27.444 153.704 27.516 153.464 27.516ZM190.681 22.872C191.017 22.656 191.401 22.548 191.833 22.548C192.169 22.548 192.445 22.62 192.661 22.764C193.141 22.668 193.537 22.788 193.849 23.124C194.185 23.436 194.353 23.808 194.353 24.24C194.353 24.6 194.221 24.9 193.957 25.14C193.717 25.38 193.357 25.5 192.877 25.5C192.565 25.5 192.325 25.476 192.157 25.428C191.893 25.644 191.521 25.752 191.041 25.752C190.513 25.752 190.033 25.644 189.601 25.428C189.457 25.524 189.193 25.608 188.809 25.68C188.425 25.752 188.053 25.788 187.693 25.788C187.453 25.788 187.237 25.764 187.045 25.716C187.237 26.028 187.333 26.424 187.333 26.904C187.333 27.408 187.225 27.756 187.009 27.948C187.369 28.38 187.549 28.944 187.549 29.64C187.549 30.096 187.453 30.516 187.261 30.9C187.501 31.548 187.621 32.184 187.621 32.808C187.621 33.216 187.573 33.576 187.477 33.888C187.597 34.032 187.693 34.26 187.765 34.572C187.861 34.884 187.909 35.196 187.909 35.508C187.909 35.868 187.837 36.18 187.693 36.444C188.053 36.78 188.233 37.308 188.233 38.028C188.233 38.508 188.173 38.892 188.053 39.18C188.269 39.516 188.377 39.948 188.377 40.476C188.377 40.788 188.317 41.064 188.197 41.304C188.317 41.52 188.377 41.82 188.377 42.204C188.377 42.564 188.329 42.84 188.233 43.032C188.473 43.272 188.593 43.656 188.593 44.184C188.593 44.4 188.557 44.604 188.485 44.796C188.797 45.156 188.929 45.516 188.881 45.876C189.001 46.164 189.061 46.404 189.061 46.596C189.061 47.004 188.905 47.34 188.593 47.604C188.281 47.868 187.921 48 187.513 48C187.201 48 186.925 47.916 186.685 47.748C186.469 47.556 186.325 47.268 186.253 46.884C186.085 46.716 185.953 46.476 185.857 46.164C185.761 45.852 185.713 45.552 185.713 45.264C185.713 45.096 185.737 44.916 185.785 44.724C185.521 44.46 185.389 43.992 185.389 43.32C185.389 43.008 185.413 42.792 185.461 42.672C185.245 42.336 185.137 42.048 185.137 41.808C185.137 41.472 185.269 41.172 185.533 40.908C185.197 40.668 185.029 40.296 185.029 39.792C185.029 39.384 185.125 39.072 185.317 38.856C184.981 38.664 184.813 38.16 184.813 37.344C184.813 36.888 184.861 36.528 184.957 36.264C184.837 36.12 184.729 35.904 184.633 35.616C184.561 35.304 184.525 34.992 184.525 34.68C184.525 34.344 184.573 34.092 184.669 33.924C184.453 33.492 184.345 32.976 184.345 32.376C184.345 32.016 184.393 31.5 184.489 30.828C184.321 30.372 184.237 29.88 184.237 29.352C184.237 28.872 184.309 28.476 184.453 28.164C184.165 27.876 184.021 27.348 184.021 26.58C184.021 26.22 184.057 25.896 184.129 25.608C183.865 25.752 183.601 25.824 183.337 25.824C183.073 25.824 182.821 25.764 182.581 25.644C182.413 25.74 182.185 25.788 181.897 25.788C181.417 25.788 181.081 25.68 180.889 25.464C180.769 25.584 180.589 25.68 180.349 25.752C180.109 25.824 179.857 25.86 179.593 25.86C178.993 25.86 178.585 25.716 178.369 25.428C178.225 25.452 178.033 25.464 177.793 25.464C177.193 25.464 176.749 25.356 176.461 25.14C176.173 24.924 176.029 24.636 176.029 24.276C176.029 23.868 176.221 23.484 176.605 23.124C176.989 22.74 177.445 22.548 177.973 22.548C178.213 22.548 178.489 22.608 178.801 22.728C178.993 22.512 179.365 22.404 179.917 22.404C180.373 22.404 180.721 22.488 180.961 22.656C181.153 22.488 181.489 22.404 181.969 22.404C182.281 22.404 182.581 22.44 182.869 22.512C183.181 22.584 183.409 22.68 183.553 22.8C183.721 22.56 184.165 22.44 184.885 22.44C185.533 22.44 185.941 22.548 186.109 22.764C186.301 22.572 186.637 22.476 187.117 22.476C187.573 22.476 187.861 22.584 187.981 22.8C188.269 22.584 188.689 22.476 189.241 22.476C189.865 22.476 190.345 22.608 190.681 22.872ZM215.186 31.908C215.258 32.052 215.294 32.172 215.294 32.268C215.294 32.388 215.27 32.496 215.222 32.592C215.198 32.664 215.174 32.712 215.15 32.736C215.63 32.736 215.978 32.856 216.194 33.096C216.41 33.336 216.518 33.648 216.518 34.032C216.518 34.416 216.41 34.776 216.194 35.112C215.978 35.424 215.726 35.568 215.438 35.544C215.51 35.712 215.546 35.988 215.546 36.372C215.546 36.972 215.45 37.332 215.258 37.452C215.474 37.692 215.582 38.124 215.582 38.748C215.582 39.108 215.534 39.456 215.438 39.792C215.366 40.104 215.258 40.32 215.114 40.44C215.33 40.68 215.438 41.1 215.438 41.7C215.438 42.084 215.378 42.336 215.258 42.456C215.378 42.696 215.438 42.972 215.438 43.284C215.438 43.836 215.33 44.28 215.114 44.616C215.306 44.928 215.402 45.252 215.402 45.588C215.402 45.9 215.342 46.128 215.222 46.272C215.198 46.728 215.066 47.136 214.826 47.496C214.586 47.832 214.262 48 213.854 48C213.686 48 213.458 47.94 213.17 47.82C212.666 47.58 212.414 47.04 212.414 46.2C212.414 45.768 212.45 45.396 212.522 45.084C212.354 44.652 212.27 44.16 212.27 43.608C212.27 42.96 212.39 42.384 212.63 41.88C212.342 41.448 212.198 40.92 212.198 40.296C212.198 39.792 212.306 39.42 212.522 39.18C212.426 39.084 212.378 38.82 212.378 38.388C212.378 37.98 212.426 37.716 212.522 37.596C212.402 37.188 212.342 36.636 212.342 35.94C212.342 35.724 212.354 35.592 212.378 35.544C212.186 35.64 212.03 35.688 211.91 35.688C211.67 35.688 211.49 35.604 211.37 35.436C211.154 35.58 210.95 35.652 210.758 35.652C210.542 35.652 210.338 35.568 210.146 35.4C209.858 35.544 209.558 35.616 209.246 35.616C208.958 35.616 208.718 35.544 208.526 35.4C208.286 35.496 207.962 35.544 207.554 35.544C207.098 35.544 206.774 35.484 206.582 35.364C206.15 35.508 205.754 35.58 205.394 35.58C205.058 35.58 204.782 35.508 204.566 35.364C204.158 35.532 203.75 35.616 203.342 35.616C202.886 35.616 202.43 35.496 201.974 35.256C202.166 35.544 202.262 35.916 202.262 36.372C202.262 36.732 202.214 37.068 202.118 37.38C202.382 37.764 202.514 38.148 202.514 38.532C202.514 38.82 202.442 39.132 202.298 39.468C202.49 39.78 202.586 40.176 202.586 40.656C202.586 41.112 202.502 41.46 202.334 41.7C202.622 42.276 202.766 42.744 202.766 43.104C202.766 43.44 202.646 43.812 202.406 44.22C202.574 44.508 202.658 44.94 202.658 45.516C202.658 45.9 202.598 46.2 202.478 46.416C202.478 46.848 202.346 47.184 202.082 47.424C201.818 47.664 201.494 47.784 201.11 47.784C200.702 47.784 200.354 47.676 200.066 47.46C199.778 47.22 199.634 46.908 199.634 46.524C199.634 46.356 199.67 46.164 199.742 45.948C199.454 45.588 199.31 45.18 199.31 44.724C199.31 44.484 199.358 44.268 199.454 44.076C199.55 43.86 199.682 43.704 199.85 43.608C199.754 43.44 199.658 43.164 199.562 42.78C199.49 42.372 199.454 42 199.454 41.664C199.454 41.208 199.514 40.92 199.634 40.8C199.49 40.704 199.37 40.548 199.274 40.332C199.202 40.116 199.166 39.888 199.166 39.648C199.166 39.288 199.25 39 199.418 38.784C199.25 38.424 199.166 38.052 199.166 37.668C199.166 37.476 199.178 37.332 199.202 37.236C199.13 36.972 199.094 36.708 199.094 36.444C199.094 36.132 199.13 35.82 199.202 35.508C199.01 35.004 198.914 34.416 198.914 33.744C198.914 33.072 199.022 32.628 199.238 32.412C199.07 32.076 198.986 31.668 198.986 31.188C198.986 30.78 199.034 30.468 199.13 30.252C198.938 29.988 198.842 29.64 198.842 29.208C198.842 28.848 198.89 28.56 198.986 28.344C198.914 28.2 198.842 27.996 198.77 27.732C198.722 27.468 198.698 27.204 198.698 26.94C198.698 26.364 198.818 25.944 199.058 25.68C198.962 25.488 198.914 25.344 198.914 25.248C198.914 25.104 198.962 24.984 199.058 24.888C198.794 24.6 198.662 24.288 198.662 23.952C198.662 23.568 198.83 23.232 199.166 22.944C199.502 22.656 199.874 22.512 200.282 22.512C200.546 22.512 200.786 22.596 201.002 22.764C201.242 22.932 201.41 23.196 201.506 23.556C201.866 23.868 202.046 24.228 202.046 24.636C202.046 24.828 201.986 25.044 201.866 25.284C201.986 25.428 202.046 25.632 202.046 25.896C202.046 26.112 201.998 26.316 201.902 26.508C201.806 26.7 201.698 26.832 201.578 26.904C201.914 27.192 202.082 27.564 202.082 28.02C202.082 28.404 201.95 28.728 201.686 28.992C201.998 29.28 202.154 29.604 202.154 29.964C202.154 30.228 202.07 30.528 201.902 30.864C202.142 31.176 202.262 31.536 202.262 31.944C202.262 32.232 202.214 32.436 202.118 32.556C202.478 32.364 202.91 32.268 203.414 32.268C203.966 32.268 204.35 32.388 204.566 32.628C205.166 32.412 205.67 32.304 206.078 32.304C206.534 32.304 206.918 32.412 207.23 32.628C207.422 32.532 207.674 32.448 207.986 32.376C208.298 32.304 208.598 32.268 208.886 32.268C209.318 32.268 209.63 32.364 209.822 32.556C210.134 32.34 210.53 32.232 211.01 32.232C211.658 32.232 212.174 32.412 212.558 32.772C212.486 32.58 212.45 32.316 212.45 31.98C212.45 31.5 212.51 31.236 212.63 31.188C212.486 30.9 212.414 30.6 212.414 30.288C212.414 29.976 212.486 29.748 212.63 29.604C212.582 29.412 212.558 29.256 212.558 29.136C212.558 28.872 212.594 28.656 212.666 28.488C212.474 28.224 212.378 27.936 212.378 27.624C212.378 27.408 212.438 27.18 212.558 26.94C212.438 26.7 212.378 26.484 212.378 26.292C212.378 25.956 212.498 25.728 212.738 25.608C212.666 25.344 212.63 25.14 212.63 24.996C212.63 24.78 212.678 24.54 212.774 24.276C212.606 23.964 212.522 23.676 212.522 23.412C212.522 23.052 212.666 22.752 212.954 22.512C213.242 22.248 213.578 22.116 213.962 22.116C214.25 22.116 214.514 22.212 214.754 22.404C214.994 22.572 215.162 22.824 215.258 23.16C215.57 23.376 215.726 23.76 215.726 24.312C215.726 24.768 215.63 25.212 215.438 25.644C215.582 25.86 215.654 26.256 215.654 26.832C215.654 27.264 215.606 27.564 215.51 27.732C215.606 27.9 215.654 28.128 215.654 28.416C215.654 28.8 215.594 29.112 215.474 29.352C215.594 29.472 215.654 29.628 215.654 29.82C215.654 30.084 215.582 30.288 215.438 30.432C215.51 30.648 215.546 30.84 215.546 31.008C215.546 31.344 215.426 31.644 215.186 31.908ZM224.719 27.84C224.839 28.32 224.899 28.716 224.899 29.028C224.899 29.148 224.875 29.448 224.827 29.928C224.947 30.168 225.007 30.54 225.007 31.044C225.007 31.476 224.947 31.812 224.827 32.052C224.947 32.292 225.007 32.52 225.007 32.736C225.007 33.048 224.899 33.348 224.683 33.636C224.851 34.044 224.935 34.464 224.935 34.896C224.935 35.232 224.875 35.604 224.755 36.012C224.899 36.252 224.971 36.552 224.971 36.912C224.971 37.272 224.887 37.668 224.719 38.1C224.911 38.364 225.007 38.64 225.007 38.928C225.007 39.216 224.911 39.492 224.719 39.756C224.815 39.924 224.863 40.116 224.863 40.332C224.863 40.548 224.803 40.776 224.683 41.016C224.875 41.352 224.971 41.604 224.971 41.772C224.971 41.916 224.887 42.12 224.719 42.384C224.815 42.72 224.863 42.972 224.863 43.14C224.863 43.5 224.731 43.812 224.467 44.076C224.755 44.58 224.899 45.192 224.899 45.912C224.899 46.8 224.647 47.412 224.143 47.748C223.903 47.916 223.651 48 223.387 48C222.931 48 222.547 47.796 222.235 47.388C221.947 46.956 221.803 46.488 221.803 45.984C221.803 45.744 221.839 45.516 221.911 45.3C221.695 45.012 221.587 44.604 221.587 44.076C221.587 43.548 221.695 43.164 221.911 42.924C221.863 42.804 221.839 42.636 221.839 42.42C221.839 42.252 221.851 42.12 221.875 42.024C221.755 41.832 221.695 41.58 221.695 41.268C221.695 40.884 221.791 40.56 221.983 40.296C221.791 40.104 221.695 39.852 221.695 39.54C221.695 39.324 221.755 39.096 221.875 38.856C221.779 38.664 221.731 38.352 221.731 37.92C221.731 37.392 221.851 37.056 222.091 36.912C221.851 36.48 221.731 36.06 221.731 35.652C221.731 35.436 221.791 35.232 221.911 35.04C221.743 34.704 221.659 34.32 221.659 33.888C221.659 33.384 221.779 32.964 222.019 32.628C221.923 32.412 221.875 32.208 221.875 32.016C221.875 31.848 221.947 31.656 222.091 31.44C221.899 31.176 221.803 30.888 221.803 30.576C221.803 30.312 221.875 30.132 222.019 30.036C221.851 29.844 221.767 29.556 221.767 29.172C221.767 28.884 221.839 28.668 221.983 28.524C221.767 28.188 221.659 27.708 221.659 27.084C221.659 26.532 221.743 26.148 221.911 25.932C221.695 25.548 221.587 25.116 221.587 24.636C221.587 24.204 221.683 23.892 221.875 23.7C221.899 23.292 222.055 22.968 222.343 22.728C222.631 22.464 222.967 22.332 223.351 22.332C223.615 22.332 223.855 22.404 224.071 22.548C224.527 22.812 224.755 23.22 224.755 23.772C224.755 24.228 224.635 24.672 224.395 25.104C224.707 25.656 224.863 26.268 224.863 26.94C224.863 27.276 224.815 27.576 224.719 27.84ZM235.167 27.516C235.239 27.588 235.275 27.708 235.275 27.876C235.275 28.092 235.191 28.332 235.023 28.596C234.879 28.86 234.687 29.064 234.447 29.208C234.495 29.256 234.519 29.4 234.519 29.64C234.519 29.88 234.495 30.108 234.447 30.324C234.423 30.516 234.399 30.648 234.375 30.72C234.447 30.792 234.519 30.948 234.591 31.188C234.663 31.428 234.711 31.62 234.735 31.764C234.951 31.764 235.155 31.836 235.347 31.98C235.539 32.124 235.683 32.328 235.779 32.592C235.803 32.568 235.863 32.556 235.959 32.556C236.103 32.556 236.271 32.58 236.463 32.628C236.655 32.676 236.811 32.724 236.931 32.772C237.003 32.7 237.159 32.664 237.399 32.664C237.807 32.664 238.071 32.76 238.191 32.952C238.311 32.88 238.467 32.844 238.659 32.844C239.043 32.844 239.331 32.94 239.523 33.132C239.643 33.036 239.895 32.988 240.279 32.988C240.543 32.988 240.807 33.024 241.071 33.096C241.335 33.168 241.503 33.264 241.575 33.384C241.647 33.36 241.755 33.348 241.899 33.348C242.307 33.348 242.691 33.456 243.051 33.672C243.435 33.864 243.627 34.08 243.627 34.32C243.939 34.272 244.227 34.344 244.491 34.536C244.755 34.728 244.971 34.968 245.139 35.256C245.571 35.328 245.979 35.724 246.363 36.444C246.747 37.164 246.939 37.836 246.939 38.46C246.939 38.748 246.879 38.988 246.759 39.18C247.119 39.42 247.299 39.864 247.299 40.512C247.299 40.968 247.203 41.388 247.011 41.772C247.059 41.964 247.083 42.108 247.083 42.204C247.083 42.612 246.963 43.02 246.723 43.428C246.507 43.812 246.243 44.052 245.931 44.148C245.859 44.556 245.643 44.94 245.283 45.3C244.923 45.636 244.551 45.888 244.167 46.056C244.119 46.368 243.891 46.68 243.483 46.992C243.075 47.28 242.679 47.376 242.295 47.28C242.127 47.496 241.815 47.676 241.359 47.82C240.927 47.94 240.459 48 239.955 48C239.475 48 239.031 47.94 238.623 47.82C238.239 47.7 237.975 47.52 237.831 47.28C237.615 47.376 237.375 47.424 237.111 47.424C236.775 47.424 236.451 47.34 236.139 47.172C235.851 47.004 235.647 46.776 235.527 46.488C235.239 46.56 234.927 46.5 234.591 46.308C234.279 46.092 234.051 45.768 233.907 45.336C233.523 45.336 233.127 45.204 232.719 44.94C232.335 44.676 232.119 44.412 232.071 44.148C231.687 44.076 231.387 43.908 231.171 43.644C230.979 43.38 230.883 43.08 230.883 42.744C230.883 42.36 231.003 42.012 231.243 41.7C231.507 41.388 231.843 41.232 232.251 41.232C232.467 41.232 232.635 41.256 232.755 41.304C232.947 41.256 233.079 41.232 233.151 41.232C233.511 41.232 233.835 41.352 234.123 41.592C234.435 41.832 234.603 42.132 234.627 42.492C234.771 42.444 234.891 42.42 234.987 42.42C235.323 42.42 235.623 42.576 235.887 42.888C236.175 43.176 236.343 43.512 236.391 43.896C236.535 43.824 236.691 43.788 236.859 43.788C237.123 43.788 237.375 43.86 237.615 44.004C237.855 44.148 237.987 44.316 238.011 44.508C238.227 44.436 238.443 44.4 238.659 44.4C239.043 44.4 239.355 44.556 239.595 44.868C239.811 44.724 240.039 44.652 240.279 44.652C240.399 44.652 240.603 44.7 240.891 44.796C241.203 44.34 241.515 44.16 241.827 44.256C242.019 43.992 242.235 43.764 242.475 43.572C242.715 43.356 242.955 43.236 243.195 43.212C243.291 42.948 243.399 42.756 243.519 42.636C243.639 42.492 243.831 42.348 244.095 42.204C244.047 42.108 244.023 41.988 244.023 41.844C244.023 41.604 244.071 41.352 244.167 41.088C244.263 40.824 244.371 40.656 244.491 40.584C244.299 40.368 244.203 40.116 244.203 39.828C244.203 39.588 244.287 39.312 244.455 39C244.023 38.736 243.807 38.352 243.807 37.848C243.447 37.728 243.183 37.56 243.015 37.344C242.607 37.368 242.271 37.308 242.007 37.164C241.743 36.996 241.575 36.756 241.503 36.444C241.311 36.492 241.179 36.516 241.107 36.516C240.867 36.516 240.639 36.468 240.423 36.372C240.207 36.252 240.027 36.096 239.883 35.904C239.739 36.024 239.547 36.084 239.307 36.084C238.995 36.084 238.659 35.964 238.299 35.724C238.059 35.844 237.831 35.904 237.615 35.904C237.303 35.904 237.051 35.844 236.859 35.724C236.715 35.772 236.595 35.796 236.499 35.796C236.283 35.796 236.079 35.76 235.887 35.688C235.719 35.592 235.623 35.484 235.599 35.364C234.735 35.364 234.267 35.208 234.195 34.896C233.907 34.848 233.631 34.752 233.367 34.608C233.103 34.44 232.959 34.248 232.935 34.032C232.695 33.984 232.491 33.852 232.323 33.636C232.155 33.396 232.071 33.108 232.071 32.772C231.855 32.604 231.675 32.304 231.531 31.872C231.387 31.44 231.315 30.984 231.315 30.504C231.315 29.736 231.471 29.208 231.783 28.92C231.735 28.776 231.711 28.632 231.711 28.488C231.711 28.152 231.771 27.804 231.891 27.444C232.035 27.084 232.179 26.868 232.323 26.796C232.323 26.484 232.407 26.124 232.575 25.716C232.791 25.428 233.043 25.188 233.331 24.996C233.619 24.78 233.931 24.672 234.267 24.672C234.315 24.408 234.459 24.18 234.699 23.988C234.963 23.796 235.263 23.7 235.599 23.7C235.695 23.412 235.899 23.184 236.211 23.016C236.523 22.848 236.871 22.764 237.255 22.764C237.543 22.764 237.795 22.8 238.011 22.872C238.083 22.752 238.215 22.656 238.407 22.584C238.599 22.512 238.803 22.476 239.019 22.476C239.139 22.476 239.271 22.5 239.415 22.548C239.631 22.332 240.015 22.224 240.567 22.224C241.167 22.224 241.623 22.332 241.935 22.548C242.031 22.524 242.163 22.512 242.331 22.512C243.051 22.512 243.663 22.932 244.167 23.772C244.431 23.724 244.719 23.796 245.031 23.988C245.367 24.18 245.631 24.444 245.823 24.78C246.039 25.092 246.135 25.392 246.111 25.68C246.519 25.968 246.807 26.268 246.975 26.58C247.143 26.892 247.275 27.36 247.371 27.984C247.395 28.416 247.263 28.764 246.975 29.028C246.687 29.292 246.351 29.424 245.967 29.424C245.607 29.424 245.295 29.292 245.031 29.028C244.743 28.98 244.491 28.836 244.275 28.596C244.059 28.356 243.963 28.116 243.987 27.876C243.315 27.42 243.015 26.916 243.087 26.364C242.799 26.412 242.439 26.34 242.007 26.148C241.599 25.932 241.287 25.656 241.071 25.32C240.903 25.56 240.567 25.68 240.063 25.68C239.703 25.68 239.403 25.62 239.163 25.5C238.995 25.716 238.695 25.824 238.263 25.824C238.047 25.824 237.843 25.788 237.651 25.716C237.555 25.98 237.387 26.208 237.147 26.4C236.931 26.568 236.679 26.676 236.391 26.724C236.247 26.94 236.067 27.132 235.851 27.3C235.635 27.444 235.407 27.516 235.167 27.516ZM252.988 28.524C252.94 28.548 252.832 28.632 252.664 28.776C252.496 28.92 252.316 29.04 252.124 29.136C251.956 29.208 251.788 29.244 251.62 29.244C251.428 29.244 251.248 29.196 251.08 29.1C250.84 28.956 250.648 28.776 250.504 28.56C250.384 28.32 250.324 28.068 250.324 27.804C250.324 27.492 250.408 27.204 250.576 26.94C250.744 26.676 250.984 26.496 251.296 26.4C251.368 26.016 251.62 25.572 252.052 25.068C252.028 24.996 252.016 24.876 252.016 24.708C252.016 24.204 252.292 23.76 252.844 23.376C253.42 22.992 253.996 22.8 254.572 22.8C254.764 22.8 254.896 22.812 254.968 22.836C255.064 22.572 255.28 22.356 255.616 22.188C255.976 21.996 256.336 21.9 256.696 21.9C256.888 21.9 257.08 21.948 257.272 22.044C257.44 21.948 257.656 21.9 257.92 21.9C258.256 21.9 258.592 21.996 258.928 22.188C259.288 22.356 259.552 22.596 259.72 22.908C260.2 22.932 260.572 23.088 260.836 23.376C261.1 23.664 261.268 24 261.34 24.384C262.036 24.744 262.384 25.212 262.384 25.788C262.384 25.884 262.36 26.052 262.312 26.292C262.552 26.532 262.672 26.856 262.672 27.264C262.672 27.456 262.636 27.648 262.564 27.84C262.828 28.104 262.96 28.488 262.96 28.992C262.96 29.352 262.876 29.712 262.708 30.072C262.564 30.408 262.36 30.672 262.096 30.864C262.168 31.032 262.204 31.2 262.204 31.368C262.204 31.536 262.144 31.728 262.024 31.944C261.976 32.256 261.88 32.496 261.736 32.664C261.592 32.832 261.388 32.976 261.124 33.096C260.908 33.48 260.668 33.804 260.404 34.068C260.164 34.332 259.864 34.56 259.504 34.752C259.552 34.944 259.576 35.1 259.576 35.22C259.576 35.508 259.492 35.784 259.324 36.048C259.18 36.288 258.976 36.456 258.712 36.552C258.688 36.888 258.604 37.14 258.46 37.308C258.316 37.476 258.1 37.62 257.812 37.74C257.812 37.884 257.776 38.016 257.704 38.136C257.968 38.472 258.1 38.808 258.1 39.144C258.1 39.672 257.824 40.104 257.272 40.44C257.248 40.848 257.08 41.184 256.768 41.448C256.456 41.712 256.108 41.844 255.724 41.844C255.436 41.844 255.172 41.76 254.932 41.592C254.524 41.28 254.32 40.836 254.32 40.26C254.32 39.684 254.476 39.204 254.788 38.82C254.74 38.7 254.716 38.508 254.716 38.244C254.716 37.74 254.836 37.212 255.076 36.66C255.316 36.108 255.592 35.736 255.904 35.544C255.952 35.016 256.18 34.62 256.588 34.356C256.612 33.828 256.828 33.324 257.236 32.844C257.644 32.364 258.22 31.788 258.964 31.116C258.94 30.708 259 30.312 259.144 29.928C259.312 29.544 259.54 29.232 259.828 28.992C259.612 28.728 259.504 28.404 259.504 28.02C259.504 27.852 259.516 27.732 259.54 27.66C259.252 27.324 259.144 26.928 259.216 26.472C259.072 26.376 258.964 26.244 258.892 26.076C258.532 26.1 258.196 26.016 257.884 25.824C257.596 25.608 257.404 25.332 257.308 24.996H256.984C256.408 25.524 255.856 25.788 255.328 25.788C255.256 25.788 255.124 25.764 254.932 25.716C255.028 25.98 254.944 26.256 254.68 26.544C254.44 26.832 254.176 27 253.888 27.048C253.936 27.336 253.864 27.636 253.672 27.948C253.504 28.236 253.276 28.428 252.988 28.524ZM255.688 47.604C256.12 47.628 256.456 47.484 256.696 47.172C256.96 46.836 257.092 46.452 257.092 46.02C257.092 45.636 256.984 45.312 256.768 45.048C256.552 44.784 256.24 44.652 255.832 44.652C255.64 44.652 255.496 44.664 255.4 44.688C255.256 44.64 255.136 44.616 255.04 44.616C254.704 44.616 254.392 44.772 254.104 45.084C253.816 45.396 253.672 45.744 253.672 46.128C253.672 46.656 253.864 47.052 254.248 47.316C254.632 47.556 255.112 47.652 255.688 47.604Z" fill="black"/>
</svg>
