<svg width="437" height="125" viewBox="0 0 437 125" fill="none" xmlns="http://www.w3.org/2000/svg">
<path d="M99.7721 48.048C100.06 48.144 100.268 48.352 100.396 48.672C100.556 48.992 100.604 49.296 100.54 49.584C100.956 49.904 101.148 50.24 101.116 50.592C101.116 51.168 100.732 51.776 99.9641 52.416C100.06 52.704 100.108 52.992 100.108 53.28C100.108 53.728 99.9961 54.144 99.7721 54.528C99.5481 54.912 99.2761 55.184 98.9561 55.344C98.8601 56.496 98.5241 57.264 97.9481 57.648C97.8521 58 97.5321 58.32 96.9881 58.608C96.4441 58.864 95.9481 58.992 95.5001 58.992C95.2761 59.184 94.8761 59.376 94.3001 59.568C93.7241 59.728 93.2921 59.76 93.0041 59.664C92.6201 60.176 92.0921 60.432 91.4201 60.432C91.1641 60.432 90.9881 60.416 90.8921 60.384C90.7001 60.48 90.4441 60.528 90.1241 60.528C89.7721 60.528 89.3881 60.448 88.9721 60.288C88.4601 60.608 87.4201 60.768 85.8521 60.768C85.9801 61.216 86.0441 61.536 86.0441 61.728C86.0441 62.112 85.9161 62.448 85.6601 62.736C86.0121 63.184 86.1881 63.936 86.1881 64.992C86.1881 65.824 86.1081 66.448 85.9481 66.864C86.3321 67.376 86.5241 68.032 86.5241 68.832C86.5241 69.536 86.3641 70.208 86.0441 70.848C86.2361 71.104 86.3801 71.472 86.4761 71.952C86.5721 72.432 86.6201 72.928 86.6201 73.44C86.6201 74.208 86.5241 74.72 86.3321 74.976C86.3961 75.424 86.4281 75.76 86.4281 75.984C86.4281 77.328 85.6921 78 84.2201 78C83.5481 78 83.0361 77.664 82.6841 76.992C82.3641 76.288 82.2041 75.472 82.2041 74.544C82.2041 73.616 82.3321 72.896 82.5881 72.384C82.2681 71.808 82.1081 71.104 82.1081 70.272C82.1081 69.92 82.1401 69.488 82.2041 68.976C81.9161 68.592 81.7721 67.808 81.7721 66.624C81.7721 65.632 81.8681 64.992 82.0601 64.704C81.9001 64.288 81.8201 63.696 81.8201 62.928C81.8201 62.192 81.9001 61.664 82.0601 61.344C81.9001 60.96 81.8201 60.64 81.8201 60.384C81.8201 60.128 81.8681 59.888 81.9641 59.664C81.6761 59.216 81.5321 58.672 81.5321 58.032C81.5321 57.584 81.5961 57.248 81.7241 57.024C81.5961 56.736 81.5321 56.432 81.5321 56.112C81.5321 55.76 81.5961 55.472 81.7241 55.248C81.4041 54.768 81.2441 54.384 81.2441 54.096C81.2441 53.776 81.3721 53.44 81.6281 53.088C81.4361 52.704 81.3401 52.352 81.3401 52.032C81.3401 51.52 81.5321 51.104 81.9161 50.784C81.4041 50.304 81.1481 49.728 81.1481 49.056C81.1481 48.928 81.1801 48.672 81.2441 48.288C80.8601 48.032 80.6681 47.552 80.6681 46.848C80.6681 46.336 80.7801 45.856 81.0041 45.408C81.2281 44.96 81.5001 44.736 81.8201 44.736C81.8521 44.352 82.0441 44.064 82.3961 43.872C82.7801 43.648 83.2121 43.536 83.6921 43.536C84.1401 43.536 84.5401 43.632 84.8921 43.824C85.2761 43.984 85.5001 44.208 85.5641 44.496C86.2041 44.208 86.7001 44.064 87.0521 44.064C87.2441 44.064 87.3721 44.096 87.4361 44.16C87.5321 44.128 87.7561 44.064 88.1081 43.968C88.4601 43.84 88.7801 43.776 89.0681 43.776C89.4841 43.776 89.9001 43.904 90.3161 44.16C90.5081 44 90.7801 43.872 91.1321 43.776C91.4841 43.68 91.8521 43.632 92.2361 43.632C92.5881 43.632 92.8761 43.68 93.1001 43.776C93.2281 43.744 93.4041 43.728 93.6281 43.728C94.1081 43.728 94.5881 43.856 95.0681 44.112C95.5481 44.368 95.9161 44.656 96.1721 44.976C96.7481 44.944 97.1961 45.056 97.5161 45.312C97.8681 45.536 98.1561 45.968 98.3801 46.608C98.7321 46.704 99.0681 46.896 99.3881 47.184C99.7401 47.472 99.8681 47.76 99.7721 48.048ZM85.3721 57.024C85.5641 56.864 85.8841 56.784 86.3321 56.784C86.8761 56.784 87.2281 56.864 87.3881 57.024C87.6121 56.8 88.0441 56.688 88.6841 56.688C89.3241 56.688 89.7401 56.8 89.9321 57.024C90.1561 56.864 90.4921 56.784 90.9401 56.784C91.2281 56.784 91.4521 56.832 91.6121 56.928C91.9641 56.544 92.3481 56.352 92.7641 56.352C92.9881 56.352 93.1641 56.368 93.2921 56.4C93.3561 56.144 93.7081 55.856 94.3481 55.536C94.9881 55.184 95.4841 55.056 95.8361 55.152C95.8361 54.896 95.9321 54.56 96.1241 54.144C96.3161 53.728 96.5081 53.456 96.7001 53.328C96.5721 53.2 96.5081 52.944 96.5081 52.56C96.5081 52.112 96.5721 51.616 96.7001 51.072C96.8601 50.496 97.0201 50.128 97.1801 49.968C95.9001 49.264 95.2441 48.608 95.2121 48C94.7001 47.904 94.1081 47.648 93.4361 47.232C92.5401 47.68 91.7881 47.904 91.1801 47.904C90.8281 47.904 90.3321 47.824 89.6921 47.664C89.0521 48.08 88.3641 48.288 87.6281 48.288C87.1801 48.288 86.8121 48.192 86.5241 48C86.4921 48.096 86.2681 48.208 85.8521 48.336C85.4681 48.464 85.1961 48.512 85.0361 48.48C85.0681 48.8 85.1801 49.2 85.3721 49.68C85.5961 50.224 85.7081 50.704 85.7081 51.12C85.7081 51.536 85.5641 51.936 85.2761 52.32C85.4041 52.576 85.4681 53.008 85.4681 53.616C85.4681 54.128 85.4041 54.496 85.2761 54.72C85.5641 55.008 85.7081 55.424 85.7081 55.968C85.7081 56.32 85.5961 56.672 85.3721 57.024ZM127.265 72.336C127.585 72.368 127.873 72.528 128.129 72.816C128.385 73.104 128.577 73.424 128.705 73.776C128.865 74.128 128.913 74.384 128.849 74.544C129.233 74.928 129.425 75.408 129.425 75.984C129.425 76.464 129.265 76.896 128.945 77.28C128.657 77.632 128.273 77.84 127.793 77.904C127.217 77.936 126.625 77.696 126.017 77.184C125.409 76.672 125.073 76.128 125.009 75.552C124.625 75.328 124.209 74.832 123.761 74.064C123.345 73.296 123.137 72.672 123.137 72.192C122.753 71.904 122.385 71.424 122.033 70.752C121.681 70.048 121.569 69.504 121.697 69.12C121.249 68.768 120.897 68.32 120.641 67.776C120.417 67.2 120.305 66.624 120.305 66.048C119.825 65.984 119.425 65.664 119.105 65.088C118.817 64.512 118.673 63.952 118.673 63.408C118.385 63.248 118.145 63.008 117.953 62.688C117.761 62.368 117.665 62.048 117.665 61.728C117.665 61.536 117.729 61.344 117.857 61.152C117.537 61.344 117.201 61.44 116.849 61.44C116.497 61.44 116.113 61.36 115.697 61.2C115.249 61.328 114.769 61.392 114.257 61.392C113.809 61.392 113.505 61.312 113.345 61.152C112.865 61.152 112.497 61.008 112.241 60.72C112.017 60.432 111.905 60.064 111.905 59.616C111.905 59.2 112.001 58.816 112.193 58.464C112.417 58.112 112.657 57.952 112.913 57.984C112.977 57.92 113.137 57.856 113.393 57.792C113.649 57.728 113.921 57.696 114.209 57.696C114.721 57.696 115.089 57.76 115.312 57.888C115.825 57.792 116.289 57.744 116.705 57.744C117.153 57.744 117.425 57.808 117.521 57.936C117.873 57.648 118.225 57.504 118.577 57.504C118.833 57.504 119.041 57.536 119.201 57.6C119.393 57.344 119.761 57.104 120.305 56.88C120.881 56.624 121.345 56.544 121.697 56.64C121.825 56.352 122.049 56.176 122.369 56.112C122.689 56.016 122.993 56 123.281 56.064C123.281 55.776 123.377 55.488 123.569 55.2C123.761 54.912 123.985 54.752 124.241 54.72C124.113 54.272 124.049 53.856 124.049 53.472C124.049 53.024 124.113 52.672 124.241 52.416C124.049 52.256 123.905 52.048 123.809 51.792C123.745 51.504 123.745 51.216 123.809 50.928C123.393 50.576 123.121 50.24 122.993 49.92C122.609 49.888 122.273 49.696 121.985 49.344C121.569 49.408 121.233 49.36 120.977 49.2C120.721 49.04 120.481 48.848 120.257 48.624C120.033 48.4 119.857 48.224 119.729 48.096C119.217 48.448 118.625 48.624 117.953 48.624C117.249 48.624 116.705 48.416 116.321 48C116.065 48.256 115.633 48.384 115.025 48.384C114.449 48.384 113.985 48.256 113.633 48C113.377 48.256 112.977 48.384 112.433 48.384C111.889 48.384 111.457 48.288 111.137 48.096C111.297 48.576 111.377 49.136 111.377 49.776C111.377 50.32 111.297 50.784 111.137 51.168C111.393 51.744 111.521 52.336 111.521 52.944C111.521 53.552 111.393 54 111.137 54.288C111.329 54.672 111.425 55.072 111.425 55.488C111.425 55.936 111.297 56.304 111.041 56.592C111.361 56.88 111.521 57.376 111.521 58.08C111.521 58.688 111.441 59.136 111.281 59.424C111.441 59.648 111.569 60.016 111.665 60.528C111.761 61.04 111.809 61.552 111.809 62.064C111.809 62.512 111.761 62.864 111.665 63.12C111.729 63.248 111.793 63.488 111.857 63.84C111.921 64.16 111.953 64.496 111.953 64.848C111.953 65.552 111.857 66.032 111.665 66.288C111.985 66.864 112.145 67.44 112.145 68.016C112.145 68.464 112.017 68.896 111.761 69.312C112.145 69.984 112.337 70.784 112.337 71.712C112.337 72.512 112.177 73.088 111.857 73.44C112.081 74.048 112.193 74.688 112.193 75.36C112.193 76.128 112.001 76.768 111.617 77.28C111.233 77.76 110.609 78 109.745 78C109.233 78 108.817 77.728 108.497 77.184C108.209 76.64 108.065 76.016 108.065 75.312C108.065 74.704 108.145 74.224 108.305 73.872C108.049 73.264 107.921 72.592 107.921 71.856C107.921 71.216 108.017 70.704 108.209 70.32C107.953 69.424 107.825 68.64 107.825 67.968C107.825 67.296 107.953 66.784 108.209 66.432C107.953 66.304 107.745 66.096 107.585 65.808C107.457 65.488 107.393 65.152 107.393 64.8C107.393 64.16 107.569 63.664 107.921 63.312C107.793 63.216 107.681 63.056 107.585 62.832C107.521 62.576 107.489 62.32 107.489 62.064C107.489 61.424 107.601 61.088 107.825 61.056C107.729 60.96 107.649 60.72 107.585 60.336C107.521 59.952 107.489 59.552 107.489 59.136C107.489 58.56 107.537 58.112 107.633 57.792C107.345 57.408 107.201 56.896 107.201 56.256C107.201 55.744 107.297 55.328 107.489 55.008C107.297 54.72 107.201 54.336 107.201 53.856C107.201 53.376 107.345 52.944 107.633 52.56C107.441 52.016 107.345 51.552 107.345 51.168C107.345 50.72 107.489 50.352 107.777 50.064C107.585 49.872 107.473 49.616 107.441 49.296C107.409 48.944 107.393 48.544 107.393 48.096C106.913 48 106.545 47.776 106.289 47.424C106.033 47.072 105.905 46.672 105.905 46.224C105.905 45.68 106.081 45.216 106.433 44.832C106.817 44.416 107.313 44.224 107.921 44.256C107.889 44.096 108.065 43.952 108.449 43.824C108.865 43.696 109.297 43.632 109.745 43.632C110.449 43.632 110.913 43.808 111.137 44.16C111.329 44.096 111.585 44.064 111.905 44.064C112.353 44.064 112.657 44.128 112.817 44.256C113.201 44.032 113.681 43.92 114.257 43.92C114.929 43.92 115.409 44.064 115.697 44.352C116.337 44.16 116.865 44.064 117.281 44.064C117.889 44.064 118.353 44.224 118.673 44.544C119.121 44.384 119.681 44.304 120.353 44.304C120.865 44.304 121.313 44.384 121.697 44.544C122.081 44.672 122.337 44.88 122.465 45.168C122.561 45.136 122.705 45.12 122.897 45.12C123.313 45.12 123.681 45.28 124.001 45.6C124.353 45.888 124.593 46.256 124.721 46.704C125.329 46.8 125.761 47.12 126.017 47.664C126.593 47.728 126.993 47.984 127.217 48.432C127.473 48.848 127.601 49.344 127.601 49.92C127.953 50.624 128.129 51.28 128.129 51.888C128.129 52.368 128.017 52.768 127.793 53.088C127.921 53.472 127.984 53.856 127.984 54.24C127.984 54.816 127.793 55.328 127.409 55.776C127.409 56.288 127.265 56.8 126.977 57.312C126.689 57.792 126.305 58.096 125.825 58.224C125.697 58.64 125.473 58.976 125.153 59.232C124.833 59.488 124.449 59.616 124.001 59.616C123.841 59.872 123.617 60.064 123.329 60.192C123.041 60.288 122.705 60.368 122.321 60.432C121.969 60.496 121.681 60.56 121.457 60.624C121.649 60.656 121.809 60.832 121.937 61.152C122.065 61.44 122.081 61.632 121.985 61.728C122.241 61.792 122.497 62.08 122.753 62.592C123.009 63.072 123.089 63.488 122.993 63.84C123.473 63.968 123.841 64.272 124.097 64.752C124.385 65.232 124.529 65.792 124.529 66.432C124.913 66.816 125.233 67.296 125.489 67.872C125.745 68.448 125.857 68.992 125.825 69.504C126.337 69.76 126.721 70.144 126.977 70.656C127.233 71.168 127.329 71.728 127.265 72.336ZM150.213 44.304C150.533 44.08 150.949 43.968 151.461 43.968C152.197 43.968 152.933 44.208 153.669 44.688C154.021 44.688 154.309 44.832 154.533 45.12C154.757 45.408 154.869 45.76 154.869 46.176C154.869 46.72 154.709 47.2 154.389 47.616C154.069 48.032 153.621 48.24 153.045 48.24C152.629 48.24 152.181 48.112 151.701 47.856C151.445 48.112 151.109 48.24 150.693 48.24C150.245 48.24 149.781 48.08 149.301 47.76C148.981 47.92 148.501 48 147.861 48C146.933 48 146.213 47.856 145.701 47.568C145.221 47.792 144.725 47.904 144.213 47.904C143.797 47.904 143.397 47.84 143.013 47.712C142.597 47.872 142.197 47.952 141.813 47.952C141.301 47.952 140.789 47.808 140.277 47.52C139.701 47.84 139.189 48.032 138.741 48.096C138.965 48.64 139.077 49.232 139.077 49.872C139.077 50.672 138.901 51.312 138.549 51.792C138.933 52.4 139.125 53.072 139.125 53.808C139.125 54.384 138.981 54.96 138.693 55.536C138.981 55.856 139.125 56.256 139.125 56.736C139.125 57.056 139.013 57.44 138.789 57.888C139.077 57.728 139.429 57.648 139.845 57.648C140.165 57.648 140.389 57.68 140.517 57.744C140.869 57.488 141.253 57.36 141.669 57.36C142.085 57.36 142.501 57.536 142.917 57.888C143.301 57.792 143.621 57.744 143.877 57.744C144.037 57.744 144.309 57.776 144.693 57.84C145.077 57.776 145.349 57.744 145.509 57.744C146.053 57.744 146.453 57.872 146.709 58.128C146.965 57.968 147.253 57.888 147.573 57.888C147.957 57.888 148.197 57.968 148.293 58.128C148.581 58.032 148.805 57.984 148.965 57.984C149.189 57.984 149.493 58.048 149.877 58.176C150.293 57.952 150.693 57.84 151.077 57.84C151.621 57.84 152.085 58.048 152.469 58.464C152.853 58.848 153.045 59.28 153.045 59.76C153.045 60.176 152.901 60.528 152.613 60.816C152.325 61.104 151.877 61.264 151.269 61.296C150.981 61.68 150.501 61.872 149.829 61.872C149.221 61.872 148.677 61.712 148.197 61.392C147.877 61.712 147.413 61.872 146.805 61.872C146.261 61.872 145.813 61.744 145.461 61.488C145.205 61.68 144.933 61.776 144.645 61.776C144.453 61.776 144.293 61.712 144.165 61.584C143.813 61.904 143.333 62.064 142.725 62.064C142.277 62.064 141.861 61.968 141.477 61.776C141.157 61.936 140.885 62.016 140.661 62.016C140.341 62.016 140.021 61.904 139.701 61.68C139.477 61.808 139.301 61.888 139.173 61.92C139.045 61.952 138.869 61.952 138.645 61.92C138.933 62.496 139.077 62.944 139.077 63.264C139.077 63.552 138.981 63.888 138.789 64.272C139.013 64.528 139.125 64.848 139.125 65.232C139.125 65.52 139.045 65.824 138.885 66.144C139.109 66.4 139.221 66.736 139.221 67.152C139.221 67.536 139.109 67.856 138.885 68.112C139.077 68.496 139.173 68.8 139.173 69.024C139.173 69.216 139.045 69.536 138.789 69.984C138.917 70.112 138.981 70.288 138.981 70.512C138.981 70.8 138.885 70.992 138.693 71.088C139.013 71.376 139.173 71.744 139.173 72.192C139.173 72.352 139.141 72.624 139.077 73.008L139.365 72.96C139.717 72.96 140.085 73.12 140.469 73.44C140.949 73.088 141.573 72.912 142.341 72.912C142.629 72.912 142.933 72.944 143.253 73.008C143.445 72.784 143.717 72.608 144.069 72.48C144.421 72.352 144.805 72.288 145.221 72.288C145.893 72.288 146.405 72.432 146.757 72.72C146.949 72.4 147.285 72.144 147.765 71.952C148.245 71.76 148.725 71.664 149.205 71.664C149.557 71.664 149.845 71.712 150.069 71.808C150.421 71.616 150.741 71.52 151.029 71.52C151.541 71.52 151.989 71.728 152.373 72.144C152.757 72.56 152.949 73.04 152.949 73.584C152.949 74.256 152.645 74.784 152.037 75.168C151.909 75.424 151.653 75.648 151.269 75.84C150.885 76 150.469 76.08 150.021 76.08C149.573 76.08 149.221 76 148.965 75.84C148.709 76.096 148.373 76.32 147.957 76.512C147.541 76.672 147.125 76.752 146.709 76.752C146.069 76.752 145.573 76.576 145.221 76.224C144.677 76.8 143.973 77.088 143.109 77.088C142.949 77.088 142.677 77.056 142.293 76.992C141.653 77.376 141.029 77.568 140.421 77.568C139.941 77.568 139.525 77.44 139.173 77.184C138.821 77.728 138.309 78 137.637 78C137.061 78 136.549 77.776 136.101 77.328C135.685 76.88 135.541 76.352 135.669 75.744C135.477 75.552 135.333 75.264 135.237 74.88C135.141 74.496 135.093 74.112 135.093 73.728C135.093 73.44 135.109 73.232 135.141 73.104C134.725 72.688 134.517 71.984 134.517 70.992C134.517 70.576 134.565 70.192 134.661 69.84C134.757 69.456 134.869 69.184 134.997 69.024C134.837 68.704 134.757 68.368 134.757 68.016C134.757 67.856 134.789 67.648 134.853 67.392C134.565 67.104 134.421 66.72 134.421 66.24C134.421 65.792 134.533 65.44 134.757 65.184C134.597 64.864 134.517 64.576 134.517 64.32C134.517 63.968 134.629 63.632 134.853 63.312C134.597 62.736 134.469 62.176 134.469 61.632C134.469 60.96 134.677 60.32 135.093 59.712C134.901 59.296 134.725 58.784 134.565 58.176C134.437 57.568 134.373 56.992 134.373 56.448C134.373 55.424 134.613 54.72 135.093 54.336C134.933 53.632 134.853 53.264 134.853 53.232C134.661 52.464 134.565 51.92 134.565 51.6C134.565 51.12 134.677 50.544 134.901 49.872C134.741 49.648 134.613 49.28 134.517 48.768C134.421 48.256 134.389 47.888 134.421 47.664C134.037 47.28 133.845 46.816 133.845 46.272C133.845 45.856 133.973 45.472 134.229 45.12C134.517 44.736 134.885 44.48 135.333 44.352C135.557 44.128 135.861 43.952 136.245 43.824C136.629 43.664 137.029 43.584 137.445 43.584C137.989 43.584 138.453 43.728 138.837 44.016C139.381 43.856 139.925 43.776 140.469 43.776C141.237 43.776 141.861 43.952 142.341 44.304C142.629 44.176 142.965 44.112 143.349 44.112C143.701 44.112 143.973 44.192 144.165 44.352C144.357 44.192 144.821 44.112 145.557 44.112C146.517 44.112 147.269 44.272 147.813 44.592C148.165 44.24 148.597 44.064 149.109 44.064C149.429 44.064 149.797 44.144 150.213 44.304ZM165.119 50.688C165.215 50.784 165.263 50.944 165.263 51.168C165.263 51.456 165.151 51.776 164.927 52.128C164.735 52.48 164.479 52.752 164.159 52.944C164.223 53.008 164.255 53.2 164.255 53.52C164.255 53.84 164.223 54.144 164.159 54.432C164.127 54.688 164.095 54.864 164.063 54.96C164.159 55.056 164.255 55.264 164.351 55.584C164.447 55.904 164.511 56.16 164.543 56.352C164.831 56.352 165.103 56.448 165.359 56.64C165.615 56.832 165.807 57.104 165.935 57.456C165.967 57.424 166.047 57.408 166.175 57.408C166.367 57.408 166.591 57.44 166.847 57.504C167.103 57.568 167.311 57.632 167.471 57.696C167.567 57.6 167.775 57.552 168.095 57.552C168.639 57.552 168.991 57.68 169.151 57.936C169.311 57.84 169.519 57.792 169.775 57.792C170.287 57.792 170.671 57.92 170.927 58.176C171.087 58.048 171.423 57.984 171.935 57.984C172.287 57.984 172.639 58.032 172.991 58.128C173.343 58.224 173.567 58.352 173.663 58.512C173.759 58.48 173.903 58.464 174.095 58.464C174.639 58.464 175.151 58.608 175.631 58.896C176.143 59.152 176.399 59.44 176.399 59.76C176.815 59.696 177.199 59.792 177.551 60.048C177.903 60.304 178.191 60.624 178.415 61.008C178.991 61.104 179.535 61.632 180.047 62.592C180.559 63.552 180.815 64.448 180.815 65.28C180.815 65.664 180.735 65.984 180.575 66.24C181.055 66.56 181.295 67.152 181.295 68.016C181.295 68.624 181.167 69.184 180.911 69.696C180.975 69.952 181.007 70.144 181.007 70.272C181.007 70.816 180.847 71.36 180.527 71.904C180.239 72.416 179.887 72.736 179.471 72.864C179.375 73.408 179.087 73.92 178.607 74.4C178.127 74.848 177.631 75.184 177.119 75.408C177.055 75.824 176.751 76.24 176.207 76.656C175.663 77.04 175.135 77.168 174.623 77.04C174.399 77.328 173.983 77.568 173.375 77.76C172.799 77.92 172.175 78 171.503 78C170.863 78 170.271 77.92 169.727 77.76C169.215 77.6 168.863 77.36 168.671 77.04C168.383 77.168 168.063 77.232 167.711 77.232C167.263 77.232 166.831 77.12 166.415 76.896C166.031 76.672 165.759 76.368 165.599 75.984C165.215 76.08 164.799 76 164.351 75.744C163.935 75.456 163.631 75.024 163.439 74.448C162.927 74.448 162.399 74.272 161.855 73.92C161.343 73.568 161.055 73.216 160.991 72.864C160.479 72.768 160.079 72.544 159.791 72.192C159.535 71.84 159.407 71.44 159.407 70.992C159.407 70.48 159.567 70.016 159.887 69.6C160.239 69.184 160.687 68.976 161.231 68.976C161.519 68.976 161.743 69.008 161.903 69.072C162.159 69.008 162.335 68.976 162.431 68.976C162.911 68.976 163.343 69.136 163.727 69.456C164.143 69.776 164.367 70.176 164.399 70.656C164.591 70.592 164.751 70.56 164.879 70.56C165.327 70.56 165.727 70.768 166.079 71.184C166.463 71.568 166.687 72.016 166.751 72.528C166.943 72.432 167.151 72.384 167.375 72.384C167.727 72.384 168.063 72.48 168.383 72.672C168.703 72.864 168.879 73.088 168.911 73.344C169.199 73.248 169.487 73.2 169.775 73.2C170.287 73.2 170.703 73.408 171.023 73.824C171.311 73.632 171.615 73.536 171.935 73.536C172.095 73.536 172.367 73.6 172.751 73.728C173.167 73.12 173.583 72.88 173.999 73.008C174.255 72.656 174.543 72.352 174.863 72.096C175.183 71.808 175.503 71.648 175.823 71.616C175.951 71.264 176.095 71.008 176.255 70.848C176.415 70.656 176.671 70.464 177.023 70.272C176.959 70.144 176.927 69.984 176.927 69.792C176.927 69.472 176.991 69.136 177.119 68.784C177.247 68.432 177.391 68.208 177.551 68.112C177.295 67.824 177.167 67.488 177.167 67.104C177.167 66.784 177.279 66.416 177.503 66C176.927 65.648 176.639 65.136 176.639 64.464C176.159 64.304 175.807 64.08 175.583 63.792C175.039 63.824 174.591 63.744 174.239 63.552C173.887 63.328 173.663 63.008 173.567 62.592C173.311 62.656 173.135 62.688 173.039 62.688C172.719 62.688 172.415 62.624 172.127 62.496C171.839 62.336 171.599 62.128 171.407 61.872C171.215 62.032 170.959 62.112 170.639 62.112C170.223 62.112 169.775 61.952 169.295 61.632C168.975 61.792 168.671 61.872 168.383 61.872C167.967 61.872 167.631 61.792 167.375 61.632C167.183 61.696 167.023 61.728 166.895 61.728C166.607 61.728 166.335 61.68 166.079 61.584C165.855 61.456 165.727 61.312 165.695 61.152C164.543 61.152 163.919 60.944 163.823 60.528C163.439 60.464 163.071 60.336 162.719 60.144C162.367 59.92 162.175 59.664 162.143 59.376C161.823 59.312 161.551 59.136 161.327 58.848C161.103 58.528 160.991 58.144 160.991 57.696C160.703 57.472 160.463 57.072 160.271 56.496C160.079 55.92 159.983 55.312 159.983 54.672C159.983 53.648 160.191 52.944 160.607 52.56C160.543 52.368 160.511 52.176 160.511 51.984C160.511 51.536 160.591 51.072 160.751 50.592C160.943 50.112 161.135 49.824 161.327 49.728C161.327 49.312 161.439 48.832 161.663 48.288C161.951 47.904 162.287 47.584 162.671 47.328C163.055 47.04 163.471 46.896 163.919 46.896C163.983 46.544 164.175 46.24 164.495 45.984C164.847 45.728 165.247 45.6 165.695 45.6C165.823 45.216 166.095 44.912 166.511 44.688C166.927 44.464 167.391 44.352 167.903 44.352C168.287 44.352 168.623 44.4 168.911 44.496C169.007 44.336 169.183 44.208 169.439 44.112C169.695 44.016 169.967 43.968 170.255 43.968C170.415 43.968 170.591 44 170.783 44.064C171.071 43.776 171.583 43.632 172.319 43.632C173.119 43.632 173.727 43.776 174.143 44.064C174.271 44.032 174.447 44.016 174.671 44.016C175.631 44.016 176.447 44.576 177.119 45.696C177.471 45.632 177.855 45.728 178.271 45.984C178.719 46.24 179.071 46.592 179.327 47.04C179.615 47.456 179.743 47.856 179.711 48.24C180.255 48.624 180.639 49.024 180.863 49.44C181.087 49.856 181.263 50.48 181.391 51.312C181.423 51.888 181.247 52.352 180.863 52.704C180.479 53.056 180.031 53.232 179.519 53.232C179.039 53.232 178.623 53.056 178.271 52.704C177.887 52.64 177.551 52.448 177.263 52.128C176.975 51.808 176.847 51.488 176.879 51.168C175.983 50.56 175.583 49.888 175.679 49.152C175.295 49.216 174.815 49.12 174.239 48.864C173.695 48.576 173.279 48.208 172.991 47.76C172.767 48.08 172.319 48.24 171.647 48.24C171.167 48.24 170.767 48.16 170.447 48C170.223 48.288 169.823 48.432 169.247 48.432C168.959 48.432 168.687 48.384 168.431 48.288C168.303 48.64 168.079 48.944 167.759 49.2C167.471 49.424 167.135 49.568 166.751 49.632C166.559 49.92 166.319 50.176 166.031 50.4C165.743 50.592 165.439 50.688 165.119 50.688ZM193.103 50.688C193.199 50.784 193.247 50.944 193.247 51.168C193.247 51.456 193.135 51.776 192.911 52.128C192.719 52.48 192.463 52.752 192.143 52.944C192.207 53.008 192.239 53.2 192.239 53.52C192.239 53.84 192.207 54.144 192.143 54.432C192.111 54.688 192.079 54.864 192.047 54.96C192.143 55.056 192.239 55.264 192.335 55.584C192.431 55.904 192.495 56.16 192.527 56.352C192.815 56.352 193.087 56.448 193.343 56.64C193.599 56.832 193.791 57.104 193.919 57.456C193.951 57.424 194.031 57.408 194.159 57.408C194.351 57.408 194.575 57.44 194.831 57.504C195.087 57.568 195.295 57.632 195.455 57.696C195.551 57.6 195.759 57.552 196.079 57.552C196.623 57.552 196.975 57.68 197.135 57.936C197.295 57.84 197.503 57.792 197.759 57.792C198.271 57.792 198.655 57.92 198.911 58.176C199.071 58.048 199.407 57.984 199.919 57.984C200.271 57.984 200.623 58.032 200.975 58.128C201.327 58.224 201.551 58.352 201.647 58.512C201.743 58.48 201.887 58.464 202.079 58.464C202.623 58.464 203.135 58.608 203.615 58.896C204.127 59.152 204.383 59.44 204.383 59.76C204.799 59.696 205.183 59.792 205.535 60.048C205.887 60.304 206.175 60.624 206.399 61.008C206.975 61.104 207.519 61.632 208.031 62.592C208.543 63.552 208.799 64.448 208.799 65.28C208.799 65.664 208.719 65.984 208.559 66.24C209.039 66.56 209.279 67.152 209.279 68.016C209.279 68.624 209.151 69.184 208.895 69.696C208.959 69.952 208.991 70.144 208.991 70.272C208.991 70.816 208.831 71.36 208.511 71.904C208.223 72.416 207.871 72.736 207.455 72.864C207.359 73.408 207.071 73.92 206.591 74.4C206.111 74.848 205.615 75.184 205.103 75.408C205.039 75.824 204.735 76.24 204.191 76.656C203.647 77.04 203.119 77.168 202.607 77.04C202.383 77.328 201.967 77.568 201.359 77.76C200.783 77.92 200.159 78 199.487 78C198.847 78 198.255 77.92 197.711 77.76C197.199 77.6 196.847 77.36 196.655 77.04C196.367 77.168 196.047 77.232 195.695 77.232C195.247 77.232 194.815 77.12 194.399 76.896C194.015 76.672 193.743 76.368 193.583 75.984C193.199 76.08 192.783 76 192.335 75.744C191.919 75.456 191.615 75.024 191.423 74.448C190.911 74.448 190.383 74.272 189.839 73.92C189.327 73.568 189.039 73.216 188.975 72.864C188.463 72.768 188.063 72.544 187.775 72.192C187.519 71.84 187.391 71.44 187.391 70.992C187.391 70.48 187.551 70.016 187.871 69.6C188.223 69.184 188.671 68.976 189.215 68.976C189.503 68.976 189.727 69.008 189.887 69.072C190.143 69.008 190.319 68.976 190.415 68.976C190.895 68.976 191.327 69.136 191.711 69.456C192.127 69.776 192.351 70.176 192.383 70.656C192.575 70.592 192.735 70.56 192.863 70.56C193.311 70.56 193.711 70.768 194.063 71.184C194.447 71.568 194.671 72.016 194.735 72.528C194.927 72.432 195.135 72.384 195.359 72.384C195.711 72.384 196.047 72.48 196.367 72.672C196.687 72.864 196.863 73.088 196.895 73.344C197.183 73.248 197.471 73.2 197.759 73.2C198.271 73.2 198.687 73.408 199.007 73.824C199.295 73.632 199.599 73.536 199.919 73.536C200.079 73.536 200.351 73.6 200.735 73.728C201.151 73.12 201.567 72.88 201.983 73.008C202.239 72.656 202.527 72.352 202.847 72.096C203.167 71.808 203.487 71.648 203.807 71.616C203.935 71.264 204.079 71.008 204.239 70.848C204.399 70.656 204.655 70.464 205.007 70.272C204.943 70.144 204.911 69.984 204.911 69.792C204.911 69.472 204.975 69.136 205.103 68.784C205.231 68.432 205.375 68.208 205.535 68.112C205.279 67.824 205.151 67.488 205.151 67.104C205.151 66.784 205.263 66.416 205.487 66C204.911 65.648 204.623 65.136 204.623 64.464C204.143 64.304 203.791 64.08 203.567 63.792C203.023 63.824 202.575 63.744 202.223 63.552C201.871 63.328 201.647 63.008 201.551 62.592C201.295 62.656 201.119 62.688 201.023 62.688C200.703 62.688 200.399 62.624 200.111 62.496C199.823 62.336 199.583 62.128 199.391 61.872C199.199 62.032 198.943 62.112 198.623 62.112C198.207 62.112 197.759 61.952 197.279 61.632C196.959 61.792 196.655 61.872 196.367 61.872C195.951 61.872 195.615 61.792 195.359 61.632C195.167 61.696 195.007 61.728 194.879 61.728C194.591 61.728 194.319 61.68 194.063 61.584C193.839 61.456 193.711 61.312 193.679 61.152C192.527 61.152 191.903 60.944 191.807 60.528C191.423 60.464 191.055 60.336 190.703 60.144C190.351 59.92 190.159 59.664 190.127 59.376C189.807 59.312 189.535 59.136 189.311 58.848C189.087 58.528 188.975 58.144 188.975 57.696C188.687 57.472 188.447 57.072 188.255 56.496C188.063 55.92 187.967 55.312 187.967 54.672C187.967 53.648 188.175 52.944 188.591 52.56C188.527 52.368 188.495 52.176 188.495 51.984C188.495 51.536 188.575 51.072 188.735 50.592C188.927 50.112 189.119 49.824 189.311 49.728C189.311 49.312 189.423 48.832 189.647 48.288C189.935 47.904 190.271 47.584 190.655 47.328C191.039 47.04 191.455 46.896 191.903 46.896C191.967 46.544 192.159 46.24 192.479 45.984C192.831 45.728 193.231 45.6 193.679 45.6C193.807 45.216 194.079 44.912 194.495 44.688C194.911 44.464 195.375 44.352 195.887 44.352C196.271 44.352 196.607 44.4 196.895 44.496C196.991 44.336 197.167 44.208 197.423 44.112C197.679 44.016 197.951 43.968 198.239 43.968C198.399 43.968 198.575 44 198.767 44.064C199.055 43.776 199.567 43.632 200.303 43.632C201.103 43.632 201.711 43.776 202.127 44.064C202.255 44.032 202.431 44.016 202.655 44.016C203.615 44.016 204.431 44.576 205.103 45.696C205.455 45.632 205.839 45.728 206.255 45.984C206.703 46.24 207.055 46.592 207.311 47.04C207.599 47.456 207.727 47.856 207.695 48.24C208.239 48.624 208.623 49.024 208.847 49.44C209.071 49.856 209.247 50.48 209.375 51.312C209.407 51.888 209.231 52.352 208.847 52.704C208.463 53.056 208.015 53.232 207.503 53.232C207.023 53.232 206.607 53.056 206.255 52.704C205.871 52.64 205.535 52.448 205.247 52.128C204.959 51.808 204.831 51.488 204.863 51.168C203.967 50.56 203.567 49.888 203.663 49.152C203.279 49.216 202.799 49.12 202.223 48.864C201.679 48.576 201.263 48.208 200.975 47.76C200.751 48.08 200.303 48.24 199.631 48.24C199.151 48.24 198.751 48.16 198.431 48C198.207 48.288 197.807 48.432 197.231 48.432C196.943 48.432 196.671 48.384 196.415 48.288C196.287 48.64 196.063 48.944 195.743 49.2C195.455 49.424 195.119 49.568 194.735 49.632C194.543 49.92 194.303 50.176 194.015 50.4C193.727 50.592 193.423 50.688 193.103 50.688ZM231.494 50.688C231.59 50.784 231.638 50.944 231.638 51.168C231.638 51.456 231.526 51.776 231.302 52.128C231.11 52.48 230.854 52.752 230.534 52.944C230.598 53.008 230.63 53.2 230.63 53.52C230.63 53.84 230.598 54.144 230.534 54.432C230.502 54.688 230.47 54.864 230.438 54.96C230.534 55.056 230.63 55.264 230.726 55.584C230.822 55.904 230.886 56.16 230.918 56.352C231.206 56.352 231.478 56.448 231.734 56.64C231.99 56.832 232.182 57.104 232.31 57.456C232.342 57.424 232.422 57.408 232.55 57.408C232.742 57.408 232.966 57.44 233.222 57.504C233.478 57.568 233.686 57.632 233.846 57.696C233.942 57.6 234.15 57.552 234.47 57.552C235.014 57.552 235.366 57.68 235.526 57.936C235.686 57.84 235.894 57.792 236.15 57.792C236.662 57.792 237.046 57.92 237.302 58.176C237.462 58.048 237.798 57.984 238.31 57.984C238.662 57.984 239.014 58.032 239.366 58.128C239.718 58.224 239.942 58.352 240.038 58.512C240.134 58.48 240.278 58.464 240.47 58.464C241.014 58.464 241.526 58.608 242.006 58.896C242.518 59.152 242.774 59.44 242.774 59.76C243.19 59.696 243.574 59.792 243.926 60.048C244.278 60.304 244.566 60.624 244.79 61.008C245.366 61.104 245.91 61.632 246.422 62.592C246.934 63.552 247.19 64.448 247.19 65.28C247.19 65.664 247.11 65.984 246.95 66.24C247.43 66.56 247.67 67.152 247.67 68.016C247.67 68.624 247.542 69.184 247.286 69.696C247.35 69.952 247.382 70.144 247.382 70.272C247.382 70.816 247.222 71.36 246.902 71.904C246.614 72.416 246.262 72.736 245.846 72.864C245.75 73.408 245.462 73.92 244.982 74.4C244.502 74.848 244.006 75.184 243.494 75.408C243.43 75.824 243.126 76.24 242.582 76.656C242.038 77.04 241.51 77.168 240.998 77.04C240.774 77.328 240.358 77.568 239.75 77.76C239.174 77.92 238.55 78 237.878 78C237.238 78 236.646 77.92 236.102 77.76C235.59 77.6 235.238 77.36 235.046 77.04C234.758 77.168 234.438 77.232 234.086 77.232C233.638 77.232 233.206 77.12 232.79 76.896C232.406 76.672 232.134 76.368 231.974 75.984C231.59 76.08 231.174 76 230.726 75.744C230.31 75.456 230.006 75.024 229.814 74.448C229.302 74.448 228.774 74.272 228.23 73.92C227.718 73.568 227.43 73.216 227.366 72.864C226.854 72.768 226.454 72.544 226.166 72.192C225.91 71.84 225.782 71.44 225.782 70.992C225.782 70.48 225.942 70.016 226.262 69.6C226.614 69.184 227.062 68.976 227.606 68.976C227.894 68.976 228.118 69.008 228.278 69.072C228.534 69.008 228.71 68.976 228.806 68.976C229.286 68.976 229.718 69.136 230.102 69.456C230.518 69.776 230.742 70.176 230.774 70.656C230.966 70.592 231.126 70.56 231.254 70.56C231.702 70.56 232.102 70.768 232.454 71.184C232.838 71.568 233.062 72.016 233.126 72.528C233.318 72.432 233.526 72.384 233.75 72.384C234.102 72.384 234.438 72.48 234.758 72.672C235.078 72.864 235.254 73.088 235.286 73.344C235.574 73.248 235.862 73.2 236.15 73.2C236.662 73.2 237.078 73.408 237.398 73.824C237.686 73.632 237.99 73.536 238.31 73.536C238.47 73.536 238.742 73.6 239.126 73.728C239.542 73.12 239.958 72.88 240.374 73.008C240.63 72.656 240.918 72.352 241.238 72.096C241.558 71.808 241.878 71.648 242.198 71.616C242.326 71.264 242.47 71.008 242.63 70.848C242.79 70.656 243.046 70.464 243.398 70.272C243.334 70.144 243.302 69.984 243.302 69.792C243.302 69.472 243.366 69.136 243.494 68.784C243.622 68.432 243.766 68.208 243.926 68.112C243.67 67.824 243.542 67.488 243.542 67.104C243.542 66.784 243.654 66.416 243.878 66C243.302 65.648 243.014 65.136 243.014 64.464C242.534 64.304 242.182 64.08 241.958 63.792C241.414 63.824 240.966 63.744 240.614 63.552C240.262 63.328 240.038 63.008 239.942 62.592C239.686 62.656 239.51 62.688 239.414 62.688C239.094 62.688 238.79 62.624 238.502 62.496C238.214 62.336 237.974 62.128 237.782 61.872C237.59 62.032 237.334 62.112 237.014 62.112C236.598 62.112 236.15 61.952 235.67 61.632C235.35 61.792 235.046 61.872 234.758 61.872C234.342 61.872 234.006 61.792 233.75 61.632C233.558 61.696 233.398 61.728 233.27 61.728C232.982 61.728 232.71 61.68 232.454 61.584C232.23 61.456 232.102 61.312 232.07 61.152C230.918 61.152 230.294 60.944 230.198 60.528C229.814 60.464 229.446 60.336 229.094 60.144C228.742 59.92 228.55 59.664 228.518 59.376C228.198 59.312 227.926 59.136 227.702 58.848C227.478 58.528 227.366 58.144 227.366 57.696C227.078 57.472 226.838 57.072 226.646 56.496C226.454 55.92 226.358 55.312 226.358 54.672C226.358 53.648 226.566 52.944 226.982 52.56C226.918 52.368 226.886 52.176 226.886 51.984C226.886 51.536 226.966 51.072 227.126 50.592C227.318 50.112 227.51 49.824 227.702 49.728C227.702 49.312 227.814 48.832 228.038 48.288C228.326 47.904 228.662 47.584 229.046 47.328C229.43 47.04 229.846 46.896 230.294 46.896C230.358 46.544 230.55 46.24 230.87 45.984C231.222 45.728 231.622 45.6 232.07 45.6C232.198 45.216 232.47 44.912 232.886 44.688C233.302 44.464 233.766 44.352 234.278 44.352C234.662 44.352 234.998 44.4 235.286 44.496C235.382 44.336 235.558 44.208 235.814 44.112C236.07 44.016 236.342 43.968 236.63 43.968C236.79 43.968 236.966 44 237.158 44.064C237.446 43.776 237.958 43.632 238.694 43.632C239.494 43.632 240.102 43.776 240.518 44.064C240.646 44.032 240.822 44.016 241.046 44.016C242.006 44.016 242.822 44.576 243.494 45.696C243.846 45.632 244.23 45.728 244.646 45.984C245.094 46.24 245.446 46.592 245.702 47.04C245.99 47.456 246.118 47.856 246.086 48.24C246.63 48.624 247.014 49.024 247.238 49.44C247.462 49.856 247.638 50.48 247.766 51.312C247.798 51.888 247.622 52.352 247.238 52.704C246.854 53.056 246.406 53.232 245.894 53.232C245.414 53.232 244.998 53.056 244.646 52.704C244.262 52.64 243.926 52.448 243.638 52.128C243.35 51.808 243.222 51.488 243.254 51.168C242.358 50.56 241.958 49.888 242.054 49.152C241.67 49.216 241.19 49.12 240.614 48.864C240.07 48.576 239.654 48.208 239.366 47.76C239.142 48.08 238.694 48.24 238.022 48.24C237.542 48.24 237.142 48.16 236.822 48C236.598 48.288 236.198 48.432 235.622 48.432C235.334 48.432 235.062 48.384 234.806 48.288C234.678 48.64 234.454 48.944 234.134 49.2C233.846 49.424 233.51 49.568 233.126 49.632C232.934 49.92 232.694 50.176 232.406 50.4C232.118 50.592 231.814 50.688 231.494 50.688ZM270.71 44.496C271.158 44.208 271.67 44.064 272.246 44.064C272.694 44.064 273.062 44.16 273.35 44.352C273.99 44.224 274.518 44.384 274.934 44.832C275.382 45.248 275.606 45.744 275.606 46.32C275.606 46.8 275.43 47.2 275.078 47.52C274.758 47.84 274.278 48 273.638 48C273.222 48 272.902 47.968 272.678 47.904C272.326 48.192 271.83 48.336 271.19 48.336C270.486 48.336 269.846 48.192 269.27 47.904C269.078 48.032 268.726 48.144 268.214 48.24C267.702 48.336 267.206 48.384 266.726 48.384C266.406 48.384 266.118 48.352 265.862 48.288C266.118 48.704 266.246 49.232 266.246 49.872C266.246 50.544 266.102 51.008 265.814 51.264C266.294 51.84 266.534 52.592 266.534 53.52C266.534 54.128 266.406 54.688 266.15 55.2C266.47 56.064 266.63 56.912 266.63 57.744C266.63 58.288 266.566 58.768 266.438 59.184C266.598 59.376 266.726 59.68 266.822 60.096C266.95 60.512 267.014 60.928 267.014 61.344C267.014 61.824 266.918 62.24 266.726 62.592C267.206 63.04 267.446 63.744 267.446 64.704C267.446 65.344 267.366 65.856 267.206 66.24C267.494 66.688 267.638 67.264 267.638 67.968C267.638 68.384 267.558 68.752 267.398 69.072C267.558 69.36 267.638 69.76 267.638 70.272C267.638 70.752 267.574 71.12 267.446 71.376C267.766 71.696 267.926 72.208 267.926 72.912C267.926 73.2 267.878 73.472 267.782 73.728C268.198 74.208 268.374 74.688 268.31 75.168C268.47 75.552 268.55 75.872 268.55 76.128C268.55 76.672 268.342 77.12 267.926 77.472C267.51 77.824 267.03 78 266.486 78C266.07 78 265.702 77.888 265.382 77.664C265.094 77.408 264.902 77.024 264.806 76.512C264.582 76.288 264.406 75.968 264.278 75.552C264.15 75.136 264.086 74.736 264.086 74.352C264.086 74.128 264.118 73.888 264.182 73.632C263.83 73.28 263.654 72.656 263.654 71.76C263.654 71.344 263.686 71.056 263.75 70.896C263.462 70.448 263.318 70.064 263.318 69.744C263.318 69.296 263.494 68.896 263.846 68.544C263.398 68.224 263.174 67.728 263.174 67.056C263.174 66.512 263.302 66.096 263.558 65.808C263.11 65.552 262.886 64.88 262.886 63.792C262.886 63.184 262.95 62.704 263.078 62.352C262.918 62.16 262.774 61.872 262.646 61.488C262.55 61.072 262.502 60.656 262.502 60.24C262.502 59.792 262.566 59.456 262.694 59.232C262.406 58.656 262.262 57.968 262.262 57.168C262.262 56.688 262.326 56 262.454 55.104C262.23 54.496 262.118 53.84 262.118 53.136C262.118 52.496 262.214 51.968 262.406 51.552C262.022 51.168 261.83 50.464 261.83 49.44C261.83 48.96 261.878 48.528 261.974 48.144C261.622 48.336 261.27 48.432 260.918 48.432C260.566 48.432 260.23 48.352 259.91 48.192C259.686 48.32 259.382 48.384 258.998 48.384C258.358 48.384 257.91 48.24 257.654 47.952C257.494 48.112 257.254 48.24 256.934 48.336C256.614 48.432 256.278 48.48 255.926 48.48C255.126 48.48 254.582 48.288 254.294 47.904C254.102 47.936 253.846 47.952 253.526 47.952C252.726 47.952 252.134 47.808 251.75 47.52C251.366 47.232 251.174 46.848 251.174 46.368C251.174 45.824 251.43 45.312 251.942 44.832C252.454 44.32 253.062 44.064 253.766 44.064C254.086 44.064 254.454 44.144 254.87 44.304C255.126 44.016 255.622 43.872 256.358 43.872C256.966 43.872 257.43 43.984 257.75 44.208C258.006 43.984 258.454 43.872 259.094 43.872C259.51 43.872 259.91 43.92 260.294 44.016C260.71 44.112 261.014 44.24 261.206 44.4C261.43 44.08 262.022 43.92 262.982 43.92C263.846 43.92 264.39 44.064 264.614 44.352C264.87 44.096 265.318 43.968 265.958 43.968C266.566 43.968 266.95 44.112 267.11 44.4C267.494 44.112 268.054 43.968 268.79 43.968C269.622 43.968 270.262 44.144 270.71 44.496ZM303.562 72.816C303.562 72.816 303.834 72.928 304.378 73.152C304.954 73.376 305.178 74.128 305.05 75.408C305.178 75.664 305.242 75.952 305.242 76.272C305.242 76.784 305.034 77.2 304.618 77.52C304.202 77.84 303.722 78 303.178 78C302.698 78 302.282 77.856 301.93 77.568C301.61 77.248 301.45 76.8 301.45 76.224C301.098 76.16 300.73 75.888 300.346 75.408C299.994 74.896 299.818 74.384 299.818 73.872C299.818 73.744 299.85 73.552 299.914 73.296C299.594 73.136 299.306 72.816 299.05 72.336C298.826 71.824 298.666 71.296 298.57 70.752C298.474 70.208 298.442 69.824 298.474 69.6C298.058 69.408 297.722 68.944 297.466 68.208C297.242 67.44 297.162 66.784 297.226 66.24C297.002 66.336 296.73 66.384 296.41 66.384C295.77 66.384 295.178 66.192 294.634 65.808C294.218 66.224 293.594 66.432 292.762 66.432C291.994 66.432 291.45 66.24 291.13 65.856C290.714 66.208 290.266 66.384 289.786 66.384C289.402 66.384 289.098 66.304 288.874 66.144C288.65 66.304 288.314 66.384 287.866 66.384C287.482 66.384 287.098 66.32 286.714 66.192C286.33 66.064 286.026 65.888 285.802 65.664C285.77 65.664 285.69 65.696 285.562 65.76C285.754 66.368 285.85 66.912 285.85 67.392C285.85 68.128 285.482 68.768 284.746 69.312C284.874 69.568 284.938 69.872 284.938 70.224C284.938 70.928 284.698 71.6 284.218 72.24C283.738 72.88 283.274 73.232 282.826 73.296C282.954 73.584 283.018 73.92 283.018 74.304C283.018 75.168 282.73 75.968 282.154 76.704C281.578 77.408 280.874 77.76 280.042 77.76C279.818 77.76 279.642 77.744 279.514 77.712C279.098 77.712 278.778 77.584 278.554 77.328C278.33 77.072 278.218 76.736 278.218 76.32C278.218 76.032 278.298 75.696 278.458 75.312C278.426 75.184 278.41 74.992 278.41 74.736C278.41 74.096 278.73 73.536 279.37 73.056C279.338 72.96 279.322 72.816 279.322 72.624C279.322 72.144 279.434 71.664 279.658 71.184C279.914 70.672 280.234 70.336 280.618 70.176C280.586 70.112 280.57 69.968 280.57 69.744C280.57 69.2 280.698 68.576 280.954 67.872C281.21 67.136 281.498 66.72 281.818 66.624C281.754 65.216 282.218 63.792 283.21 62.352C283.21 61.616 283.322 60.928 283.546 60.288C283.77 59.616 284.17 59.136 284.746 58.848C284.778 58.24 284.922 57.632 285.178 57.024C285.434 56.416 285.722 55.904 286.042 55.488C285.946 55.136 285.898 54.816 285.898 54.528C285.898 54.08 285.978 53.728 286.138 53.472C286.33 53.184 286.538 53.008 286.762 52.944C286.73 52.816 286.714 52.624 286.714 52.368C286.714 51.664 286.97 51.104 287.482 50.688L287.434 50.4C287.434 49.92 287.626 49.488 288.01 49.104C287.978 48.976 287.962 48.8 287.962 48.576C287.962 48 288.106 47.424 288.394 46.848C288.682 46.272 289.002 45.888 289.354 45.696C289.93 44.896 290.538 44.496 291.178 44.496C291.466 44.496 291.834 44.592 292.282 44.784C293.21 44.816 293.882 45.536 294.298 46.944C294.586 47.296 294.794 47.712 294.922 48.192C295.05 48.64 295.098 49.056 295.066 49.44C295.354 49.632 295.562 49.888 295.69 50.208C295.85 50.528 295.914 50.864 295.882 51.216C296.202 51.504 296.474 51.952 296.698 52.56C296.954 53.168 297.082 53.744 297.082 54.288C297.082 54.544 297.066 54.72 297.034 54.816C297.258 55.04 297.45 55.36 297.61 55.776C297.802 56.192 297.898 56.576 297.898 56.928C297.898 57.12 297.882 57.264 297.85 57.36C298.266 57.648 298.602 58.096 298.858 58.704C299.146 59.312 299.338 59.92 299.434 60.528C299.562 61.104 299.594 61.504 299.53 61.728C299.594 61.824 299.77 62.064 300.058 62.448C300.346 62.8 300.57 63.168 300.73 63.552C300.89 63.904 300.97 64.24 300.97 64.56C300.97 64.848 300.938 65.056 300.874 65.184C301.002 65.344 301.146 65.536 301.306 65.76C301.466 65.952 301.594 66.128 301.69 66.288C301.786 66.448 301.834 66.64 301.834 66.864C301.834 67.088 301.818 67.248 301.786 67.344C302.042 67.6 302.266 67.936 302.458 68.352C302.65 68.768 302.746 69.168 302.746 69.552C302.746 69.872 302.682 70.112 302.554 70.272C302.906 70.528 303.178 70.896 303.37 71.376C303.562 71.856 303.626 72.336 303.562 72.816ZM294.73 62.4C294.794 62.208 294.938 62.096 295.162 62.064C295.386 62 295.578 62.016 295.738 62.112C295.674 61.92 295.642 61.776 295.642 61.68C295.642 61.424 295.706 61.232 295.834 61.104C295.546 60.88 295.306 60.592 295.114 60.24C294.954 59.888 294.89 59.536 294.922 59.184C294.698 59.12 294.49 58.96 294.298 58.704C294.138 58.416 294.058 58.112 294.058 57.792C294.058 57.696 294.09 57.52 294.154 57.264C293.482 56.848 293.146 56.224 293.146 55.392C293.146 55.072 293.194 54.704 293.29 54.288C293.258 54.256 293.178 54.192 293.05 54.096C292.922 53.968 292.874 53.776 292.906 53.52C292.266 53.328 291.962 52.816 291.994 51.984C291.738 51.856 291.53 51.616 291.37 51.264C291.434 52 291.146 52.576 290.506 52.992C290.538 53.344 290.474 53.744 290.314 54.192C290.154 54.64 289.962 54.976 289.738 55.2C289.77 55.328 289.786 55.536 289.786 55.824C289.786 56.56 289.482 57.536 288.874 58.752C288.714 59.104 288.586 59.424 288.49 59.712C288.362 60.032 288.218 60.352 288.058 60.672C287.93 60.992 287.754 61.232 287.53 61.392C287.53 61.712 287.466 62 287.338 62.256L287.722 62.208C288.042 62.208 288.282 62.288 288.442 62.448C288.538 62.288 288.73 62.208 289.018 62.208C289.21 62.208 289.354 62.256 289.45 62.352C289.834 62.064 290.314 61.92 290.89 61.92C291.306 61.92 291.69 61.984 292.042 62.112C292.394 62.24 292.682 62.416 292.906 62.64C293.226 62.288 293.562 62.112 293.914 62.112C294.138 62.112 294.41 62.208 294.73 62.4ZM330.702 72.336C331.022 72.368 331.31 72.528 331.566 72.816C331.822 73.104 332.014 73.424 332.142 73.776C332.302 74.128 332.35 74.384 332.286 74.544C332.67 74.928 332.862 75.408 332.862 75.984C332.862 76.464 332.702 76.896 332.382 77.28C332.094 77.632 331.71 77.84 331.23 77.904C330.654 77.936 330.062 77.696 329.454 77.184C328.846 76.672 328.51 76.128 328.446 75.552C328.062 75.328 327.646 74.832 327.198 74.064C326.782 73.296 326.574 72.672 326.574 72.192C326.19 71.904 325.822 71.424 325.47 70.752C325.118 70.048 325.006 69.504 325.134 69.12C324.686 68.768 324.334 68.32 324.078 67.776C323.854 67.2 323.742 66.624 323.742 66.048C323.262 65.984 322.862 65.664 322.542 65.088C322.254 64.512 322.11 63.952 322.11 63.408C321.822 63.248 321.582 63.008 321.39 62.688C321.198 62.368 321.102 62.048 321.102 61.728C321.102 61.536 321.166 61.344 321.294 61.152C320.974 61.344 320.638 61.44 320.286 61.44C319.934 61.44 319.55 61.36 319.134 61.2C318.686 61.328 318.206 61.392 317.694 61.392C317.246 61.392 316.942 61.312 316.782 61.152C316.302 61.152 315.934 61.008 315.678 60.72C315.454 60.432 315.342 60.064 315.342 59.616C315.342 59.2 315.438 58.816 315.63 58.464C315.854 58.112 316.094 57.952 316.35 57.984C316.414 57.92 316.574 57.856 316.83 57.792C317.086 57.728 317.358 57.696 317.646 57.696C318.158 57.696 318.526 57.76 318.75 57.888C319.262 57.792 319.726 57.744 320.142 57.744C320.59 57.744 320.862 57.808 320.958 57.936C321.31 57.648 321.662 57.504 322.014 57.504C322.27 57.504 322.478 57.536 322.638 57.6C322.83 57.344 323.198 57.104 323.742 56.88C324.318 56.624 324.782 56.544 325.134 56.64C325.262 56.352 325.486 56.176 325.806 56.112C326.126 56.016 326.43 56 326.718 56.064C326.718 55.776 326.814 55.488 327.006 55.2C327.198 54.912 327.422 54.752 327.678 54.72C327.55 54.272 327.486 53.856 327.486 53.472C327.486 53.024 327.55 52.672 327.678 52.416C327.486 52.256 327.342 52.048 327.246 51.792C327.182 51.504 327.182 51.216 327.246 50.928C326.83 50.576 326.558 50.24 326.43 49.92C326.046 49.888 325.71 49.696 325.422 49.344C325.006 49.408 324.67 49.36 324.414 49.2C324.158 49.04 323.918 48.848 323.694 48.624C323.47 48.4 323.294 48.224 323.166 48.096C322.654 48.448 322.062 48.624 321.39 48.624C320.686 48.624 320.142 48.416 319.758 48C319.502 48.256 319.07 48.384 318.462 48.384C317.886 48.384 317.422 48.256 317.07 48C316.814 48.256 316.414 48.384 315.87 48.384C315.326 48.384 314.894 48.288 314.574 48.096C314.734 48.576 314.814 49.136 314.814 49.776C314.814 50.32 314.734 50.784 314.574 51.168C314.83 51.744 314.958 52.336 314.958 52.944C314.958 53.552 314.83 54 314.574 54.288C314.766 54.672 314.862 55.072 314.862 55.488C314.862 55.936 314.734 56.304 314.478 56.592C314.798 56.88 314.958 57.376 314.958 58.08C314.958 58.688 314.878 59.136 314.718 59.424C314.878 59.648 315.006 60.016 315.102 60.528C315.198 61.04 315.246 61.552 315.246 62.064C315.246 62.512 315.198 62.864 315.102 63.12C315.166 63.248 315.23 63.488 315.294 63.84C315.358 64.16 315.39 64.496 315.39 64.848C315.39 65.552 315.294 66.032 315.102 66.288C315.422 66.864 315.582 67.44 315.582 68.016C315.582 68.464 315.454 68.896 315.198 69.312C315.582 69.984 315.774 70.784 315.774 71.712C315.774 72.512 315.614 73.088 315.294 73.44C315.518 74.048 315.63 74.688 315.63 75.36C315.63 76.128 315.438 76.768 315.054 77.28C314.67 77.76 314.046 78 313.182 78C312.67 78 312.254 77.728 311.934 77.184C311.646 76.64 311.502 76.016 311.502 75.312C311.502 74.704 311.582 74.224 311.742 73.872C311.486 73.264 311.358 72.592 311.358 71.856C311.358 71.216 311.454 70.704 311.646 70.32C311.39 69.424 311.262 68.64 311.262 67.968C311.262 67.296 311.39 66.784 311.646 66.432C311.39 66.304 311.182 66.096 311.022 65.808C310.894 65.488 310.83 65.152 310.83 64.8C310.83 64.16 311.006 63.664 311.358 63.312C311.23 63.216 311.118 63.056 311.022 62.832C310.958 62.576 310.926 62.32 310.926 62.064C310.926 61.424 311.038 61.088 311.262 61.056C311.166 60.96 311.086 60.72 311.022 60.336C310.958 59.952 310.926 59.552 310.926 59.136C310.926 58.56 310.974 58.112 311.07 57.792C310.782 57.408 310.638 56.896 310.638 56.256C310.638 55.744 310.734 55.328 310.926 55.008C310.734 54.72 310.638 54.336 310.638 53.856C310.638 53.376 310.782 52.944 311.07 52.56C310.878 52.016 310.782 51.552 310.782 51.168C310.782 50.72 310.926 50.352 311.214 50.064C311.022 49.872 310.91 49.616 310.878 49.296C310.846 48.944 310.83 48.544 310.83 48.096C310.35 48 309.982 47.776 309.726 47.424C309.47 47.072 309.342 46.672 309.342 46.224C309.342 45.68 309.518 45.216 309.87 44.832C310.254 44.416 310.75 44.224 311.358 44.256C311.326 44.096 311.502 43.952 311.886 43.824C312.302 43.696 312.734 43.632 313.182 43.632C313.886 43.632 314.35 43.808 314.574 44.16C314.766 44.096 315.022 44.064 315.342 44.064C315.79 44.064 316.094 44.128 316.254 44.256C316.638 44.032 317.118 43.92 317.694 43.92C318.366 43.92 318.846 44.064 319.134 44.352C319.774 44.16 320.302 44.064 320.718 44.064C321.326 44.064 321.79 44.224 322.11 44.544C322.558 44.384 323.118 44.304 323.79 44.304C324.302 44.304 324.75 44.384 325.134 44.544C325.518 44.672 325.774 44.88 325.902 45.168C325.998 45.136 326.142 45.12 326.334 45.12C326.75 45.12 327.118 45.28 327.438 45.6C327.79 45.888 328.03 46.256 328.158 46.704C328.766 46.8 329.198 47.12 329.454 47.664C330.03 47.728 330.43 47.984 330.654 48.432C330.91 48.848 331.038 49.344 331.038 49.92C331.39 50.624 331.566 51.28 331.566 51.888C331.566 52.368 331.454 52.768 331.23 53.088C331.358 53.472 331.422 53.856 331.422 54.24C331.422 54.816 331.23 55.328 330.846 55.776C330.846 56.288 330.702 56.8 330.414 57.312C330.126 57.792 329.742 58.096 329.262 58.224C329.134 58.64 328.91 58.976 328.59 59.232C328.27 59.488 327.886 59.616 327.438 59.616C327.278 59.872 327.054 60.064 326.766 60.192C326.478 60.288 326.142 60.368 325.758 60.432C325.406 60.496 325.118 60.56 324.894 60.624C325.086 60.656 325.246 60.832 325.374 61.152C325.502 61.44 325.518 61.632 325.422 61.728C325.678 61.792 325.934 62.08 326.19 62.592C326.446 63.072 326.526 63.488 326.43 63.84C326.91 63.968 327.278 64.272 327.534 64.752C327.822 65.232 327.966 65.792 327.966 66.432C328.35 66.816 328.67 67.296 328.926 67.872C329.182 68.448 329.294 68.992 329.262 69.504C329.774 69.76 330.158 70.144 330.414 70.656C330.67 71.168 330.766 71.728 330.702 72.336ZM354.851 44.496C355.299 44.208 355.811 44.064 356.387 44.064C356.835 44.064 357.203 44.16 357.491 44.352C358.131 44.224 358.659 44.384 359.075 44.832C359.523 45.248 359.747 45.744 359.747 46.32C359.747 46.8 359.571 47.2 359.219 47.52C358.899 47.84 358.419 48 357.779 48C357.363 48 357.043 47.968 356.819 47.904C356.467 48.192 355.971 48.336 355.331 48.336C354.627 48.336 353.987 48.192 353.411 47.904C353.219 48.032 352.867 48.144 352.355 48.24C351.843 48.336 351.347 48.384 350.867 48.384C350.547 48.384 350.259 48.352 350.003 48.288C350.259 48.704 350.387 49.232 350.387 49.872C350.387 50.544 350.243 51.008 349.955 51.264C350.435 51.84 350.675 52.592 350.675 53.52C350.675 54.128 350.547 54.688 350.291 55.2C350.611 56.064 350.771 56.912 350.771 57.744C350.771 58.288 350.707 58.768 350.579 59.184C350.739 59.376 350.867 59.68 350.963 60.096C351.091 60.512 351.155 60.928 351.155 61.344C351.155 61.824 351.059 62.24 350.867 62.592C351.347 63.04 351.587 63.744 351.587 64.704C351.587 65.344 351.507 65.856 351.347 66.24C351.635 66.688 351.779 67.264 351.779 67.968C351.779 68.384 351.699 68.752 351.539 69.072C351.699 69.36 351.779 69.76 351.779 70.272C351.779 70.752 351.715 71.12 351.587 71.376C351.907 71.696 352.067 72.208 352.067 72.912C352.067 73.2 352.019 73.472 351.923 73.728C352.339 74.208 352.515 74.688 352.451 75.168C352.611 75.552 352.691 75.872 352.691 76.128C352.691 76.672 352.483 77.12 352.067 77.472C351.651 77.824 351.171 78 350.627 78C350.211 78 349.843 77.888 349.523 77.664C349.235 77.408 349.043 77.024 348.947 76.512C348.723 76.288 348.547 75.968 348.419 75.552C348.291 75.136 348.227 74.736 348.227 74.352C348.227 74.128 348.259 73.888 348.323 73.632C347.971 73.28 347.795 72.656 347.795 71.76C347.795 71.344 347.827 71.056 347.891 70.896C347.603 70.448 347.459 70.064 347.459 69.744C347.459 69.296 347.635 68.896 347.987 68.544C347.539 68.224 347.315 67.728 347.315 67.056C347.315 66.512 347.443 66.096 347.699 65.808C347.251 65.552 347.027 64.88 347.027 63.792C347.027 63.184 347.091 62.704 347.219 62.352C347.059 62.16 346.915 61.872 346.787 61.488C346.691 61.072 346.643 60.656 346.643 60.24C346.643 59.792 346.707 59.456 346.835 59.232C346.547 58.656 346.403 57.968 346.403 57.168C346.403 56.688 346.467 56 346.595 55.104C346.371 54.496 346.259 53.84 346.259 53.136C346.259 52.496 346.355 51.968 346.547 51.552C346.163 51.168 345.971 50.464 345.971 49.44C345.971 48.96 346.019 48.528 346.115 48.144C345.763 48.336 345.411 48.432 345.059 48.432C344.707 48.432 344.371 48.352 344.051 48.192C343.827 48.32 343.523 48.384 343.139 48.384C342.499 48.384 342.051 48.24 341.795 47.952C341.635 48.112 341.395 48.24 341.075 48.336C340.755 48.432 340.419 48.48 340.067 48.48C339.267 48.48 338.723 48.288 338.435 47.904C338.243 47.936 337.987 47.952 337.667 47.952C336.867 47.952 336.275 47.808 335.891 47.52C335.507 47.232 335.315 46.848 335.315 46.368C335.315 45.824 335.571 45.312 336.083 44.832C336.595 44.32 337.203 44.064 337.907 44.064C338.227 44.064 338.595 44.144 339.011 44.304C339.267 44.016 339.763 43.872 340.499 43.872C341.107 43.872 341.571 43.984 341.891 44.208C342.147 43.984 342.595 43.872 343.235 43.872C343.651 43.872 344.051 43.92 344.435 44.016C344.851 44.112 345.155 44.24 345.347 44.4C345.571 44.08 346.163 43.92 347.123 43.92C347.987 43.92 348.531 44.064 348.755 44.352C349.011 44.096 349.459 43.968 350.099 43.968C350.707 43.968 351.091 44.112 351.251 44.4C351.635 44.112 352.195 43.968 352.931 43.968C353.763 43.968 354.403 44.144 354.851 44.496Z" fill="black"/>
<path d="M389 51L391.245 57.9098H398.511L392.633 62.1803L394.878 69.0902L389 64.8197L383.122 69.0902L385.367 62.1803L379.489 57.9098H386.755L389 51Z" fill="black"/>
<path d="M49 51L51.2451 57.9098H58.5106L52.6327 62.1803L54.8779 69.0902L49 64.8197L43.1221 69.0902L45.3673 62.1803L39.4894 57.9098H46.7549L49 51Z" fill="black"/>
</svg>
